<svg xmlns="http://www.w3.org/2000/svg" viewBox="0 0 45 45" stroke="#000" xmlns:v="https://vecta.io/nano"><path d="M22.5 1.988l-4.66 11.427-9.015-8.872 2.683 11.6-6.51 3.497 6.922 3.998v9.64L7.96 36.115v6.004h7.133v-2.34h3.813v2.34h7.188v-2.34h3.813v2.34h7.133l-.004-5.992-3.953-2.768v-9.72l6.922-3.998-6.51-3.497 2.683-11.6-9.015 8.872z" fill="#fff" stroke-width="1.2"/><g fill="none"><g stroke-width=".9"><path d="M22.5 29.213v4.378m-4-8.378v4.378"/><path d="M26.5 25.213v4.378m6.566 3.857H11.934m25.116 3H7.95"/><path d="M26.5 33.413l2 3.078m-10-3.078l-2 3.078"/></g><path d="M18.53 19.45l3.97-3.97 3.97 3.97-3.97 3.97z"/><path d="M32.796 29.448H12.204m20.592-4H12.204" stroke-width=".9"/><path d="M11.928 16.852v6.788m0-6A10.572 4.052 0 0 1 22.5 13.588a10.572 4.052 0 0 1 10.572 4.052m0-.788v6.788" stroke-width="1.2"/></g></svg>