<svg xmlns="http://www.w3.org/2000/svg" viewBox="0 0 45 45" width="100%" height="100%" fill="none" fill-rule="evenodd" stroke="#000" xmlns:v="https://vecta.io/nano"><g fill="#fff" stroke-linejoin="round" stroke-width="1.5"><path d="M9 36c3.4-.97 10.1.43 13.5-2 3.4 2.43 10.1 1.03 13.5 2 0 0 1.65.54 3 2-.68.97-1.65 1-3 .5-3.4-.97-10.1.46-13.5-1-3.4 1.46-10.1.03-13.5 1-1.354.5-2.323.47-3-.5 1.354-1.94 3-2 3-2zm6-4c2.5 2.5 12.5 2.5 15 0 .5-1.5 0-2 0-2 0-2.5-2.5-4-2.5-4 5.5-1.5 6-11.5-5-15.5-11 4-10.5 14-5 15.5 0 0-2.5 1.5-2.5 4 0 0-.5.5 0 2z"/><path d="M25 8a2.5 2.5 0 1 1-5 0 2.5 2.5 0 1 1 5 0z"/></g><path d="M17.5 26h10M15 30h15m-7.5-14.5v5M20 18h5" stroke-linejoin="miter" stroke-linecap="round" stroke-width="1.5"/></svg>