<svg xmlns="http://www.w3.org/2000/svg" viewBox="0 0 522 522" xmlns:v="https://vecta.io/nano"><path d="M385.065 388.937c11.178-8.796 18.46-22.405 18.46-37.48 0-14.568-6.796-27.773-17.34-36.583-.544-19.55-7.25-38.424-18.24-50.197-.315-.33-.632-.634-.947-.958 26.537-28.8 40.865-66.2 40.865-106.65 0-10.468-1.007-20.694-2.908-30.588 20.468-10.148 33.28-30.878 33.28-54.456 0-33.844-26.902-61.614-59.878-61.614-14.093 0-28.175 5.72-39.017 15.507C315.352 9.542 286.68 0 256 0c-30.656 0-59.308 9.527-83.288 25.926-10.674-9.8-24.234-15.513-39.07-15.513-32.976 0-59.878 27.77-59.878 61.614 0 23.85 13.114 44.777 33.327 54.794-1.932 10.053-2.954 20.455-2.954 31.117 0 40.013 14.604 77.718 40.9 106.613-.04.043-.083.083-.125.126-11.67 11.67-18.434 30.313-18.464 49.677-10.9 8.805-17.983 22.243-17.983 37.102 0 15.02 7.23 28.583 18.337 37.382-21.065 10.652-35.693 32.42-35.693 58.076 0 36.447 29.505 65.085 65.085 65.085 17.225 0 33.013-6.928 44.732-18.1 17.627 6.497 35.98 9.422 55.064 9.422s37.437-2.926 55.064-9.422c11.72 11.172 27.507 18.1 44.732 18.1 35.58 0 65.085-29.505 65.085-65.085 0-25.1-14.684-47.146-35.816-57.977zm-29.268-7.106c-10.962 0-20.767-6.14-26.113-15.1-3.012-6.153-3.958-13.313-2.525-20.48 2.603-10.414 10.414-18.224 20.827-21.695 11.28-2.603 19.96 0 25.166 3.47.793.264 1.668.528 2.573.72 6.36 5.6 10.444 13.776 10.444 22.712 0 16.488-13.884 30.373-30.372 30.373zM378.36 26.9c23.43 0 42.522 19.96 42.522 44.258 0 15.62-7.8 29.505-19.96 37.315-8.678-27.77-25.166-52.936-47.73-72.027 7.8-5.207 16.488-8.68 25.166-9.546zm-267.28 82.44c-12.15-7.8-19.96-21.695-19.96-37.315 0-24.298 19.1-44.258 42.522-44.258 8.53 0 17.055 3.36 24.76 9.24a156.76 156.76 0 0 0-25.197 28.05c-9.694 13.5-17.182 28.46-22.126 44.28zM256 17.356c26.154 0 50.667 7.862 71.382 21.445l-.222.25 7.8 5.207c1.396 1.024 2.766 2.078 4.117 3.152 31.104 25.576 51.054 65.17 50.554 109.662 0 35.58-12.15 69.424-35.58 94.6-13.885-11.28-29.505-17.356-45.125-17.356-20.827 0-39.92 12.15-52.936 32.108-13.017-19.96-32.976-32.108-53.803-32.108-15.62 0-30.373 6.075-45.125 16.488-23.43-25.166-35.58-58.142-35.58-93.722 0-77.235 60.745-139.716 134.508-139.716zM157.07 275.96c12.8-13.563 25.62-21.23 38.997-23.015l.463-.064c.744-.092 1.5-.157 2.24-.212l.63-.052c.93-.056 1.86-.088 2.797-.088 23.43 0 39.05 19.96 45.993 37.315.868 2.603 4.34 5.207 7.8 5.207s6.942-2.603 7.8-5.207c7.8-18.224 22.563-37.315 45.125-37.315 15.62 0 30.373 6.942 45.125 22.563 6.875 6.875 11.193 18.006 12.962 30.02-3.6-.896-7.37-1.383-11.226-1.383-26.034 0-47.73 21.695-47.73 47.73 0 13.45 5.8 25.735 15 34.476l-60.984 62.718c-1.685 1.685-3.984 2.545-6.3 2.594-2.527-.05-5.03-.9-6.717-2.594l-27.94-28.775-32.62-33.52a48.95 48.95 0 0 0 7.738-9.194l.66-1.023c.062-.1.12-.202.18-.303a43.91 43.91 0 0 0 3-5.81l.157-.374.675-1.688c1.95-5.163 3.024-10.727 3.024-16.507 0-7.988-2.05-15.564-5.634-22.234-5.816-11.45-16.413-20.426-29.078-23.76l-1.44-.27c-3.717-.953-7.595-1.466-11.577-1.466a46.58 46.58 0 0 0-12.054 1.59c1.077-11.76 6.173-22.6 12.92-29.36zm-31.24 75.5c0-9.05 4.187-17.307 10.686-22.923 1.427-.14 2.843-.56 4.066-1.376 7.8-4.34 16.488-6.075 25.166-3.47 4.592 1.148 8.676 3.48 12.033 6.62 5.408 5.513 8.794 13.013 8.794 21.15 0 16.488-13.885 30.373-30.373 30.373S125.83 367.95 125.83 351.46zm-17.356 95.457c0-26.034 21.695-47.73 47.73-47.73 10.576 0 20.436 3.58 28.417 9.578 1.228.923 2.4 1.903 3.546 2.935s2.22 2.12 3.253 3.253a48.52 48.52 0 0 1 8.717 13.522 47.24 47.24 0 0 1 2.274 6.62 46.6 46.6 0 0 1 1.273 6.993c.165 1.6.25 3.2.25 4.826 0 26.034-21.695 47.73-47.73 47.73s-47.73-21.694-47.73-47.728zM212.6 479.892c1.177-2.353 2.258-4.752 3.227-7.173 3.494-7.938 5.45-16.667 5.45-25.803l14.753 14.753c5.315 5.315 12.44 7.9 19.525 7.8l.434.01c6.942 0 13.885-3.47 19.092-6.942l15.62-16.3v1.54c0 11.28 2.603 22.563 8.678 32.1-28.637 8.675-58.143 8.675-86.78-.002zm143.187 14.752c-21.004 0-39.176-14.125-45.417-33.253a48.87 48.87 0 0 1-2.103-10.17l-.04-.528-.1-1.563c-.035-.735-.058-1.473-.058-2.215 0-1.627.085-3.237.25-4.826a46.6 46.6 0 0 1 1.273-6.993c.596-2.274 1.36-4.486 2.274-6.62 1.674-3.906 3.87-7.55 6.476-10.857l6.848-7.094a48.71 48.71 0 0 1 2.191-1.759c7.98-5.997 17.84-9.578 28.417-9.578 26.034 0 47.73 21.695 47.73 47.73s-21.694 47.727-47.728 47.727zm-157.93-206.536c1.736-.868 2.603-1.736 4.34-1.736 4.34 0 7.8 4.34 11.28 12.15.868 3.47 4.34 5.207 7.8 5.207.868 0 1.736 0 2.603-.868 4.34-1.736 6.942-6.942 5.207-11.28-6.942-18.224-18.224-22.563-26.902-22.563-3.47 0-8.678 2.603-13.017 5.207-4.34 1.736-5.207 7.8-2.603 11.28s7.8 5.208 11.282 2.604zm29.505-112.813c2.524 8.413 10.76 15.175 19.96 15.58v8.717c0 5.207-3.47 8.678-8.678 8.678s-8.678-3.47-8.678-8.678-3.47-8.678-8.678-8.678-8.678 3.47-8.678 8.678c0 14.753 11.28 26.034 26.034 26.034 6.77 0 12.803-2.38 17.356-6.376 4.553 3.996 10.587 6.376 17.356 6.376 14.753 0 26.034-11.28 26.034-26.034 0-5.207-3.47-8.678-8.678-8.678s-8.678 3.47-8.678 8.678-3.47 8.678-8.678 8.678-8.678-3.47-8.678-8.678v-8.717c9.197-.407 17.382-7.194 18.224-16.45l2.603-9.546c1.736-6.075.868-13.017-3.47-18.224-3.47-5.207-9.546-7.8-16.488-7.8h-19.96c-6.075 0-13.017 2.603-16.488 7.8s-5.207 12.15-3.47 18.224l1.735 10.414zm15.62-17.356c0-.868.868-1.736 2.603-1.736h20.827c.868 0 2.603.868 2.603 1.736.868.868.868 1.736.868 3.47l-2.603 9.546c0 1.736-1.736 2.603-3.47 2.603H248.2c-1.736 0-3.47-.868-3.47-2.603l-2.603-9.546c-.001-1.735.867-2.603.867-3.47zm56.417-27.77c5.207 0 8.678-3.47 8.678-8.678 0-9.546 7.8-17.356 17.356-17.356s17.356 7.8 17.356 17.356c0 5.207 3.47 8.678 8.678 8.678s8.678-3.47 8.678-8.678c0-19.1-15.62-34.712-34.712-34.712s-34.712 15.62-34.712 34.712c0 5.207 3.47 8.678 8.678 8.678zm-130.18-8.678c0-9.546 7.8-17.356 17.356-17.356s17.356 7.8 17.356 17.356c0 5.207 3.47 8.678 8.678 8.678s8.678-3.47 8.678-8.678c0-19.1-15.62-34.712-34.712-34.712s-34.712 15.62-34.712 34.712c0 5.207 3.47 8.678 8.678 8.678s8.678-3.472 8.678-8.678zm186.577 295.05c-16.488 0-30.373 13.885-30.373 30.373 0 5.207 3.47 8.678 8.678 8.678s8.678-3.47 8.678-8.678c0-6.942 6.075-13.017 13.017-13.017 5.207 0 8.678-3.47 8.678-8.678s-3.472-8.678-8.678-8.678zm-199.594-4.34c-16.488 0-30.373 13.885-30.373 30.373 0 5.207 3.47 8.678 8.678 8.678s8.678-3.47 8.678-8.678c0-6.942 6.075-13.017 13.017-13.017 5.207 0 8.678-3.47 8.678-8.678s-3.47-8.678-8.678-8.678z"/><path d="M107.254 105.964c-19.817-16.146-21.063-46.85-2.65-65.36 8.324-8.367 17.347-12.226 28.628-12.244 5.498-.01 7.195.245 11.385 1.705 2.708.943 6.763 2.848 9 4.234l4.088 2.52-6.858 6.83c-3.772 3.757-8.748 9.18-11.06 12.053-10.82 13.447-21.408 31.932-26.543 46.343-1.288 3.614-2.433 6.57-2.544 6.57s-1.668-1.193-3.457-2.65zM253.1 261.695c-3.712-5.04-12.695-13.724-17.64-17.053-5.152-3.468-12.748-6.993-18.854-8.75-4.2-1.2-6.32-1.412-14.758-1.4-8.857.003-10.464.174-16 1.706-6.9 1.906-17.658 6.852-24.356 11.184-3.623 2.344-4.572 2.72-5.182 2.055-16.126-17.57-27.928-42.044-32.292-66.967-2.43-13.873-2.688-33.307-.624-46.77 6.98-45.512 35.593-84.976 75.894-104.672 36.597-17.886 77.946-17.693 114.423.535 5.002 2.5 10.264 5.436 11.692 6.524S329.8 41.265 332 42.74c9.594 6.44 21.022 17.518 28.963 28.082 15.48 20.6 25.034 45.062 27.712 70.983.912 8.827.385 28.715-.995 37.577-3.856 24.753-13.655 47.227-28.777 66-2.386 2.962-4.568 5.385-4.85 5.385s-2.216-1.254-4.298-2.787c-8.45-6.22-19.447-10.986-29.894-12.954-7.206-1.357-18.887-.92-25.36.948-13.164 3.8-25.893 12.82-34.773 24.64l-3.4 4.464c-.217.255-1.67-1.268-3.23-3.385zm-6.955-36.883c2.332-.598 6.807-2.74 9.05-4.33.835-.592 1.264-.536 2.17.284 1.952 1.767 7.708 4.067 11.817 4.723 15.927 2.54 30.202-9.13 30.202-24.693 0-7.083-2.504-9.974-8.658-9.995-5.6-.02-8.33 2.527-8.984 8.35-.67 5.97-3.282 8.54-8.678 8.54-5.727 0-8.142-3.462-8.142-11.673 0-4.503.108-4.943 1.2-4.943 2.04 0 6.965-1.907 9.593-3.715 4.2-2.896 5.806-5.92 8.378-15.868 3.658-14.146 2.968-20.12-3.057-26.463-5.48-5.768-6.098-5.925-24.156-6.145-14.937-.18-15.905-.123-19.335 1.16-7.408 2.772-12.002 9.322-12.484 17.8-.355 6.25 1.73 18.283 3.772 21.768 3.277 5.6 9.813 10.274 15.643 11.206l2.6.414v4.864c0 8.127-2.435 11.594-8.142 11.594-4.9 0-8.47-3.02-8.477-7.172-.014-7.275-5.82-11.58-12.6-9.33-3.748 1.245-5.253 3.944-5.253 9.42 0 17.14 16 28.695 33.528 24.202zm-80.972-95.436c2.575-1.323 3.8-3.7 4.407-8.45 1.918-15.277 17.954-21.67 28.783-11.476 2.893 2.724 4.44 6.064 5.137 11.085 1.027 7.414 3.116 9.618 9.117 9.618 6.124 0 8.847-2.98 8.8-9.624-.093-12.693-7.776-24.73-19.324-30.273-8.287-3.978-15.65-4.763-24.2-2.58-6.668 1.705-10.406 3.888-15.808 9.232-6.866 6.8-10.398 14.864-10.398 23.766 0 6.257 2.912 9.483 8.545 9.47 1.9-.005 4.12-.35 4.935-.77zm139.156-.155c2.387-1.234 3.447-3.44 4.173-8.684.732-5.28 2.3-8.52 5.594-11.487 4.576-4.134 10.074-5.495 15.65-3.874 7.104 2.065 11.66 7.67 12.652 15.563.298 2.374.868 4.925 1.265 5.668 1.246 2.327 4.306 3.742 8.1 3.745 5.635.004 8.545-3.223 8.545-9.475 0-4.934-1.062-9.3-3.535-14.522-2.804-5.924-9.717-13.035-15.414-15.856-13.935-6.9-30.315-4.112-41.114 7-9.693 9.973-13.05 28.03-5.93 31.894 2.203 1.195 7.727 1.212 10.012.03zm95.437-25.428c-7.84-22.576-21.107-43.372-38.5-60.324-8.17-7.97-8.118-7.102-.662-10.788 13.414-6.63 24.07-6.886 36.104-.863 5.9 2.953 12.7 9.086 16.45 14.857 9.563 14.677 9.785 32.925.587 48.165-2.15 3.564-7.57 9.495-10.73 11.746l-1.836 1.307zm-153.79 68.67c-.35-.423-1.304-3.138-2.12-6.032-1.257-4.466-1.374-5.584-.768-7.385l.714-2.122 11.023-.175c6.062-.096 11.618-.03 12.346.15 2.442.6 2.737 3.275 1.03 9.34-.844 3-1.822 5.8-2.173 6.223-.904 1.1-19.147 1.1-20.05 0zm-97.667 207.905c-13.077-4.153-21.882-15.68-21.9-28.684-.012-5.558.73-8.755 3.138-13.514 1.863-3.682 6.435-9.246 7.597-9.246.395 0 2.722-.97 5.17-2.16 10.356-5.024 19.357-5.184 29-.517 4.138 2.005 9.15 7.05 11.377 11.454 8.453 16.707.743 35.57-17.202 42.082-4.563 1.656-12.888 1.94-17.16.582zm0 113.21c-9.7-1.925-17.306-5.828-24.36-12.483-15.502-14.624-19.454-36.924-9.82-55.425 8.284-15.9 24.443-25.977 41.698-25.977 7.762 0 13.386 1.34 20.983 5 5.105 2.46 7.303 3.973 11.25 7.744 10.447 9.98 15.293 20.957 15.317 34.696.045 24.8-20.112 45.76-45.22 47.023-3.397.17-7.204-.052-9.846-.577zm-9.297-43.127c2.552-1.2 4.03-3.8 4.488-7.824.83-7.333 6.273-12.782 12.768-12.782 6.784 0 11.096-7.427 7.84-13.5-2.842-5.3-11.85-5.804-21.337-1.197-11.138 5.4-17.364 16.14-16.98 29.265.062 2.133 2.522 5.524 4.622 6.374 2.077.84 6.483.668 8.6-.337zm208.68 43.09c-22.457-4.225-39.107-24.004-39.066-46.408.025-13.897 4.896-24.856 15.47-34.802 8.698-8.182 20-12.638 32.082-12.638 27.6 0 50.324 25.78 46.605 52.848-2.904 21.14-19.45 37.978-40.534 41.25-5.433.843-9.08.78-14.556-.25zm-8.425-39.094c2.197-1.34 3.8-4.4 3.8-7.257 0-2.494 1.138-5.604 2.936-8.024 1.772-2.385 6.912-4.996 9.853-5.005 5.305-.016 8.745-3.53 8.745-8.93 0-7.595-6.126-10.625-16.184-8.005-5.26 1.37-9.16 3.582-13.536 7.676-6.063 5.67-9.66 13.644-9.66 21.412 0 3.963 1.232 6.56 3.876 8.173 2.662 1.623 7.464 1.604 10.16-.04zM237.23 484.843c-7.102-.963-19.662-3.643-22.28-4.753l-1.665-.706 2.155-4.86c2.982-6.724 5.15-14.548 5.553-20.045.187-2.55.465-5.027.617-5.508.18-.566 3.25 2.063 8.717 7.467 6.2 6.116 9.425 8.832 12.133 10.182 9.08 4.527 17.55 4.237 27.938-.958 3.9-1.945 5.63-3.422 11.947-10.125 4.066-4.316 7.527-7.714 7.7-7.55s.527 3.02.8 6.347c.6 7.113 2.833 15.284 5.775 21.147l2.104 4.192-3.208.93c-5.63 1.632-14.07 3.314-21.548 4.293-9.043 1.185-27.816 1.16-36.738-.05zm109.766-104.71c-4.812-1.713-9.887-5.017-13.124-8.543-5.23-5.695-7.1-11.515-6.677-20.753.22-4.8.56-6.233 2.325-9.913 2.82-5.875 8.075-11.06 14.342-14.15 4.395-2.167 5.303-2.383 11.12-2.642 4.694-.2 7.218-.025 9.744.7 5.025 1.46 11.14 4.477 12.97 6.4 2.395 2.514 5.916 8.658 6.96 12.146 1.098 3.668 1.232 11.486.26 15.102-2.315 8.598-8.263 15.755-16.475 19.824-5.043 2.5-5.497 2.606-11.767 2.773-5.086.135-7.216-.074-9.68-.95z" fill="#fff"/><path d="M251.855 450.006c-1.53-.705-13.17-12.488-49.74-50.36l-12.82-13.277 2.65-3.03c8.166-9.343 12.025-19.54 12.047-31.832.014-7.967-1.295-13.573-4.914-21.045-5.15-10.633-11.65-17.223-21.845-22.154-7.546-3.65-13.78-4.84-23.373-4.466-4.068.16-7.84.48-8.385.717-.877.38-.927.032-.44-3.072.76-4.855 2.627-10.156 5.613-15.948 4.354-8.447 17.583-20.752 28.64-26.64 10.318-5.494 23.114-7.368 32.714-4.8 14.04 3.77 27.107 16.346 34.904 33.596 2.474 5.472 4.817 7.372 9.096 7.372 4.538 0 6.37-1.69 10.27-9.47 7.23-14.424 16.217-24.204 26.652-29.007 6.177-2.843 10.19-3.67 17.23-3.553 14.538.244 27.7 6.627 40.952 19.858 6.782 6.77 9.667 11.203 12.332 18.94 1.097 3.185 3.023 10.66 3.024 11.733 0 .233-4.5.425-10 .428-11.52.005-13.97.55-22.923 5.113-4.506 2.296-6.642 3.92-11.46 8.713-5.282 5.256-6.257 6.588-9.028 12.338-3.745 7.77-5.054 13.312-5.04 21.337.022 12.25 3.928 22.462 12.36 32.31l1.95 2.276-22.723 23.262-30.082 30.955c-4.048 4.23-8.024 8.222-8.837 8.87-1.8 1.44-6.53 1.884-8.82.83zm-27.298-147.093c5.852-3.346 6.634-8.523 2.53-16.744-5.762-11.545-16.77-18.733-26.467-17.28-3.365.505-11.915 4.74-13.958 6.914-1.163 1.238-1.434 2.203-1.434 5.12 0 2.983.26 3.873 1.538 5.24 3.495 3.74 7.445 4.322 12.26 1.804 2.79-1.458 3.155-1.51 5.075-.707 2.835 1.185 5.762 4.692 8.28 9.92 2.167 4.5 3.466 5.774 6.694 6.555 2.782.673 2.895.656 5.48-.822z"/><path d="M219.354 303.394c-3.09-.7-4.453-1.885-5.85-5.08-3.525-8.068-7.238-12.014-11.305-12.014-.97 0-1.488.163-2.88.905-3.82 2.036-3.648 1.972-5.335 1.97-3.737-.008-7.607-2.854-8.453-6.217-.404-1.605-.164-4.168.514-5.496.83-1.627 1.555-2.242 4.657-3.96 4.99-2.76 8.304-4.084 10.826-4.32 1.76-.164 5.136.258 7.514.942 7.76 2.23 14.458 8.868 18.7 18.535 1.858 4.234 2.116 5.798 1.357 8.23-.704 2.254-2.416 4.4-4.266 5.343-.48.245-1.122.63-1.428.856-.742.55-2.423.676-4.05.308z" fill="#fff"/><path d="M144.324 304.65c0-1.08.73-5.126 1.393-7.726 1.634-6.403 4.85-12.986 8.732-17.87 2.228-2.803 7.987-8.487 11.95-11.794 8.568-7.15 17.352-11.73 26.077-13.598 3.662-.784 5.177-.93 9.692-.928 4.55.001 6.19.182 9.68 1.066 13.607 3.45 25.688 14.393 33.838 30.654.434.866.788 1.662.786 1.77s-.525-.81-1.162-2.036c-5.004-9.632-11.422-17.443-18.9-23-5.422-4.03-11.45-6.742-17.32-7.796-2.553-.458-8.313-.565-11.385-.21-5.38.62-10.705 2.057-15.402 4.157-9.113 4.073-20.65 13.322-27.867 22.343-1.653 2.065-3.11 4.352-4.354 6.835-2.7 5.405-4.415 10.424-5.14 15.134-.462 2.995-.413 3.327.443 3.028.264-.092.912-.206 1.44-.253.908-.08.876-.065-.578.29-1.967.48-1.923.483-1.923-.067z"/><path d="M145.57 294.476c.328-.923.95-1.697 1.55-2.456l1.274-1.544 1.002-1.037c.094-.1.226-.15.284-.267.097-.197-.244-.3-.42-.215-.787.384-1.516.875-2.274 1.312-.178.166-.76.435-.8.71-.065.362.383.52.616.617 1.038.206 2.138.01 3.186-.082.14.166.555-.155.726.016.045.045-.07.105-.103.16l-1.355 2.138-1.93 3.017c-.257.48-.43.888-.652 1.383l1.99-.9.653-1.358c.565-1.037 1.25-2.003 1.898-2.987l1.1-1.653c.13-.226.526-.755.25-1.09-.065-.08-.784-.033-.785-.033-1.026.1-2.07.27-3.1.14-.06-.018-.332-.07-.402-.162-.105-.138.725-.648.82-.7-.53.3-1.03.657-1.587.903-.088.04.096-.167.127-.257.01-.025.01-.094-.013-.08-.097.066-.163.17-.244.254l-.945 1.033-1.253 1.543c-.635.808-1.316 1.635-1.64 2.627l2.047-1.01z"/><path d="M145.758 292.323c.447.665.854 1.358 1.137 2.108.012.09.04.182.036.274-.02.488-.434 1.054-.8 1.35l1.814-1.09c-.02.005-.04.02-.06.016s-.043-.046-.066-.036l-2.084 1.09c-.06.036-.026.136-.043.204l-.078.276-.783 2.307c-.14.487-.212.99-.276 1.493-.04.317-.046.183-.014.417l2.148-1.038c.09-.053.068-.196.102-.294l.16-.478.61-2.008c.263-.957.59-1.904.702-2.894-.152-.88-.026-.35-2.12 1.014-.086.056-.052.198-.077.298-.193.768-.027.16-.272 1l-.162.56c-.275.755-.47 1.535-.696 2.305-.023.034-.105.12-.07.1l2.03-1.087c.06-.036.03-.134.046-.2l.367-1.524c.297-1.045.51-2.106.654-3.182.047-.327.086-.662.22-.968.024-.055.14-.186.088-.157-1.957 1.086-2.196.496-1.817 1.27.023.12.06.235.07.356.044.607-.097 1.216-.22 1.804l-.305 1.41c-.11.7-.333 1.397-.39 2.108-.018.233.01.468.028.7l.058.288 1.994-1.066-.05-.262c-.072-.92.162-1.822.33-2.72.215-1.002.602-2.297.532-3.316-.01-.143-.05-.28-.076-.422-.482-.99-.103-.466-2.227.797-.054.032-.046.117-.064.177-.096.323-.14.657-.178 1a20.8 20.8 0 0 1-.642 3.143l-.41 1.572c-.018.1-.126.334-.03.302.723-.235 1.39-.614 2.066-.963.038-.02.022-.083.033-.124l.65-2.278.48-1.573c.034-.098.216-.32.117-.288-2.083.688-2.21.21-1.993.947-.066.963-.4 1.887-.642 2.814l-.657 2.012-.203.472c-.044.084-.252.263-.164.23.685-.25 1.33-.6 1.996-.9-.03-.162-.02-.07.01-.343.055-.49.14-.98.3-1.452l.797-2.31c.035-.088.06-.18.105-.263.024-.044.068-.074.102-.11l-1.976 1.004c-.032.018.06.043.1.065.05.036.097.135.154.11.723-.34 1.395-.78 2.093-1.168.445-.512.822-1.16.635-1.856-.307-.752-.743-1.435-1.135-2.144l-1.97 1.133z"/><path d="M144.834 298.904c.15.36.238.74.308 1.123l.05.396a2.53 2.53 0 0 1-.041.491c-.028.162-.066.294-.108.45a6.79 6.79 0 0 1-.263.716c-.094.173-.167.355-.232.54-.062.157-.09.322-.12.486l-.073.355-.243 1.152-.1.918c-.034.203-.082.407-.066.614l.503-.26c-.017-.2.03-.398.057-.596l.102-.92c.055-.387.146-.766.238-1.145l.205-.84c.07-.185.154-.362.24-.54.095-.233.18-.47.242-.715.075-.314.152-.636.143-.96-.002-.07-.044-.332-.055-.398-.074-.388-.17-.77-.29-1.146l-.494.277z"/><path d="M144.85 299.517c-.05.25-.068.502-.08.755-.013.307.05.61.118.906.043.157.073.284.037.444-.02.105-.06.204-.092.305l-.138.374-.217.548c-.08.28-.142.563-.195.848.073-.053-.072.173-.03.148.16-.093.34-.175.458-.32.036-.044-.05-.1-.072-.154-.075-.185-.102-.297-.16-.49a11.76 11.76 0 0 1-.252-1.477c-.015-.185-.034-.374-.008-.558.007-.053.022-.106.035-.157.018-.044.018-.064.06-.09.016-.01.067-.03.052-.02l-.424.256c-.02.014.047-.013.07-.013s.052.008.078.013c.026.015.056.025.08.045.08.07.153.184.202.274.132.24.156.417.194.683.012.214.013.432-.03.643-.008.04-.014.083-.036.118-.01.016-.068.033-.053.022l.466-.3-.036-.124c-.073-.357-.04-.75-.01-1.1l.077-.664c.007-.046.012-.094.025-.14.003-.01.03-.03.023-.023l-.514.382c-.03.52-.14 1.028-.193 1.544l-.014.515a1.73 1.73 0 0 0 .016.182c.004.013.015.022.022.033.17-.12.36-.22.513-.363.036-.034.02-.098.028-.147l.036-.204.12-.82.077-.473c.01-.046.02-.095.042-.137.01-.017.066-.044.05-.033-.513.334-.487.122-.462.453l-.01.234-.063.612-.103.933-.06.618c-.005.04-.054.13-.018.115.55-.2.495-.138.538-.472.063-.47.058-.945.058-1.418-.052-.236-.025-.17-.534.313-.042.04-.015.114-.024.17l-.13.662c-.077.35-.244.5.458.027.03-.02.01-.073.015-.1l.054-.3.06-.244c.007-.013.053-.03.04-.02-.165.117-.36.2-.5.347-.04.043-.002.12-.006.178l-.026.23-.14.814c-.036.2-.055.29-.067.5l-.003.224c.033.21.03.22.08.42.013.052.025.105.045.155.01.025.02.078.046.067.562-.234.498-.137.595-.45.1-.39.038-.788-.04-1.176l-.01-.095c.005-.004.022-.015.016-.012-.16.107-.345.185-.48.322-.03.03.03.082.04.123l.088.38.346 1.3c-.002.198-.02.503.432-.297.037-.066-.085-.126-.126-.2l-.48-.815-.122-.215c-.152-.26-.144-.268-.57.2-.038.04.04.105.06.157l.15.404.065.19.1.313.036.1c.004.012.006.044.017.036.165-.118.315-.256.472-.384l-.07-.213-.17-.5c-.018-.06-.037-.117-.046-.178-.003-.02.03-.067.012-.057-.16.093-.307.21-.46.317.152.243.225.523.296.797.023.075.04.208.147.213.095.004.22-.07.292-.11l.644-.373-.506.195.29-.165c.178-.1-.192.117-.252.135-.018.006-.04.01-.056-.001-.033-.022-.06-.136-.07-.16-.08-.28-.167-.562-.298-.824-.177.078-.363.138-.53.234-.018.01.007.04.014.06l.058.173.217.728.513-.17c.008-.003-.017-.008-.02-.016-.017-.034-.027-.07-.04-.106l-.175-.5-.14-.407c-.014-.05.016-.155-.035-.15-.745.096-.547.114-.4.325l.13.21.47.822c.037.068.032.206.1.207.634.007.602-.033.534-.255a12.27 12.27 0 0 1-.354-1.291l-.078-.4c-.01-.045.012-.14-.034-.134-.595.07-.564.054-.505.322.094.378.152.77.023 1.148-.114.24-.147.24.39-.074.018-.01-.038-.022-.047-.04-.024-.046-.035-.098-.05-.148-.053-.187-.05-.21-.077-.406l.002-.218c.024-.443.144-.875.21-1.313l.032-.238c.007-.064.077-.184.014-.192-.54-.064-.528.097-.6.42l-.064.3c-.01.032-.07.1-.038.092.602-.164.467-.05.517-.308l.04-.178.136-.667c.012-.058.097-.173.038-.173-.664-.003-.594.058-.467.184a5.39 5.39 0 0 1-.055 1.403c-.07.307-.133.346.453-.015.032-.02.006-.075.01-.113l.043-.61.2-1.796c-.02-.352.042-.237-.55.02-.018.008-.02.033-.025.05-.028.098-.046.254-.06.346l-.037.258-.133.823-.045.207c-.012.05-.09.157-.04.15.17-.02.314-.134.47-.2.001.03.004.077-.012-.04-.018-.135-.018-.273-.015-.41l.008-.198.205-1.554-.5.105c-.01.002.001.02 0 .028l-.017.136-.07.663c-.028.363-.056.773.005 1.134.008.05.024.098.036.146l.547-.2c.03-.013.048-.137.053-.168.03-.215.03-.434.013-.65-.028-.2-.04-.32-.102-.502-.025-.07-.06-.137-.094-.204a1.41 1.41 0 0 0-.201-.304c-.025-.025-.058-.04-.087-.06-.03-.01-.058-.026-.09-.03-.025-.004-.053-.007-.076.004l-.552.297c-.017.01-.032.024-.044.04-.028.035-.033.068-.045.1-.05.24-.03.48.002.722l.265 1.48.15.502c.02.06.001.18.064.177.537-.037.52-.086.56-.364.046-.283.104-.566.195-.838l.226-.55.14-.38a2.13 2.13 0 0 0 .088-.311c.025-.163-.01-.303-.058-.46-.07-.29-.133-.588-.115-.9.016-.254.036-.51.1-.756l-.512.248z"/><path d="M143.756 306.233l1.944-.22 1.757-.056.857-.002.2.004c.01 0 .018.014.025.008l1.07-.945-4.846.028-.52-.012c-.706-.036-.144-.416-1.388.898-.093.098.262-.068.394-.095l1.253-.208c1.348-.22 2.708-.325 4.07-.383l1.618-.084c.103-.01.216.01.3-.037.488-.25 1.013-.466 1.4-.843.1-.087-.223-.118-.334-.176l-.88.044-2.726.234-3.72.268-.73.044c-.8.05-.872-.022-1.72.947-.096.1.3.046.435.05l.9-.027 1.154-.032 6.537-.3c.673-.1 1.15-.1 1.676-.937.14-.22-.52-.037-.78-.014-.396.035-.786.125-1.18.188l-2.632.417-1.082.167c-.625.103-1.563.17-1.672 1.1-.03.266.53-.064.796-.1l1.042-.157 3.02-.508 1.177-.275c.513-.267 1-.596 1.485-.895-.168-.078-.32-.204-.503-.235-.32-.055-2.065.018-2.24.025l-3.42.194c-.136.007-.297-.058-.407.022-.325.236-.724.488-.827.877-.053.202.413-.06.62-.1l1.865-.322c.814-.188 1.4-.36 1.996-1.17.1-.137-.336-.072-.506-.074-.316-.005-1.47.12-1.742.146l-1.625.2c-.827.12-1.274.134-1.853 1.1-.097.162.378 0 .567 0l5.423-.263c.913-.067 1.8-.245 2.698-.45.417-.087.842-.116 1.266-.13l2.042-.02 2.498.044c.725.045 1.446.12 2.142.335.584.203 1.205.252 1.807.388l1.414.314 1.73.094c.47.06.9.246 1.304.488a5.59 5.59 0 0 0 1.266.679 10.37 10.37 0 0 0 2.36.578l2.504.12c.78.022.53.096 1.578-.947.054-.053-.148-.035-.222-.048l-.393-.066-4.587-.28c-.307-.046-1.175.006-1.385-.297.004-.014-.002-.038.012-.043.04-.013.158-.026.124-.003-.376.26-.802.444-1.165.72-.1.068.216-.06.326-.08.318-.064.543-.084.865-.123l1.986-.106c.38-.016.7.072 1 .317.198.2.354.418.5.648a2.32 2.32 0 0 0 .609.595 2.84 2.84 0 0 0 .869.287c.624.098.265.07 1.38-.93.06-.054-.16.026-.24.03l-1.4.022c-1.087-.003-2.174.02-3.26-.016-.678-.008-1.232-.215-1.8-.583a3.96 3.96 0 0 0-1.283-.645c-.22-.063-.607-.136-.832-.18l-.44-.1-.9-.262-.35-.13c-.274-.1-.305-.095-.167-.117-.363.262-.797.445-1.088.785-.103.12.312-.047.47-.062.942-.086 1.895-.076 2.84-.082l2.708.017 2.224.007.363.024c1.354-.976 1.777-1.02 1.14-.925-.73.06-1.085.468-1.808.95-.002.002-.03.152-.033.162-.582.06.02.01 1.145-.734.053-.035-.124.034-.187.046-.265.05-.537.06-.806.075-1.15.053-2.298-.092-3.443-.187l-3.726-.35c-.837-.2-.402-.344-1.614.72-.07.063.186-.04.28-.048l.455-.024 5.498.378 2.555.12.157-.018 1.282-.966-.152.037c-.872.08-1.75-.024-2.623-.047l-5.46-.422-.44-.005c-.093.001-.197-.028-.28.015a12.93 12.93 0 0 0-1.492.933c-.033.024.035.08.07.1.072.045.437.12.48.13 1.255.172 2.528.187 3.788.317l3.392.248c.904-.016 2.075-.08 2.584-1.012.194-.45 1.878-1.08-1.255.665-.118.065.345-.247.334-.128.674.018.17.03 1.5-.958.017-.013-.04-.012-.06-.014-.2-.023-.403-.013-.603-.014h-1.98c-.92-.001-1.84.01-2.76.018l-2.17.03-.646.017c-.152.006-.317-.037-.456.025-.564.254-1.078.606-1.617.9.02.052.016.12.06.156a5.09 5.09 0 0 0 .617.232l1.347.38c.76.145 1.444.284 2.063.784.57.4 1.152.633 1.86.642l4.25.018.38.005c.08.003.17.06.237.018.473-.285.912-.624 1.342-.97.032-.026-.08-.01-.12-.013a2.78 2.78 0 0 1-.826-.232c-.226-.144-.423-.312-.575-.537-.157-.242-.322-.482-.53-.685a1.47 1.47 0 0 0-1.077-.408l-2.023.115-.86.1c-.108.016-.224.01-.322.057l-1.6.86c-.1.068-.054.183-.032.263.026.036.045.077.078.107.32.296 1.073.22 1.46.262l4.54.286.365.076c.067.015.138.083.198.05 2.16-1.15 1.8-.893 1.04-.893-.84.002-1.68-.01-2.515-.088-.793-.1-1.572-.264-2.317-.56a5.57 5.57 0 0 1-1.24-.66c-.412-.262-.857-.47-1.344-.54-.57-.096-1.152-.04-1.727-.1-.48-.055-.947-.17-1.415-.295-.598-.14-1.215-.185-1.8-.378-.705-.223-1.435-.302-2.17-.358-.84-.075-1.683-.026-2.525-.04l-1.998-.018a9.75 9.75 0 0 0-1.299.116l-.93.23a17.62 17.62 0 0 1-1.827.29l-5.378.247c-1.044-.01-.4-.094-1.922.908-.057.038.117-.075.183-.092.187-.05.38-.075.57-.107l1.643-.234.908-.083.755-.034c.124-.007.26.027.372-.027.478-.23.92-.528 1.37-.812.22-.14-1.234.625-.745.245l-1.86.334c-.198.027-.413-.013-.594.072-.587.274-1.16.595-1.675.986-.125.095.3-.046.465-.07l3.463-.238c4.56-.134-1.333.052 2.105.026.103-.001.203-.032.304-.048.408-.22.842-.392 1.223-.655.145-.1-.334.113-.504.158-.87.233-1.77.382-2.66.527l-1.1.168-1.004.134c-.244.03-.5-.03-.734.07-.578.256-1.082.654-1.626.976-.058.034.103-.092.167-.113.473-.15 1.392-.282 1.813-.353l2.612-.404c.324-.046 1.253-.1 1.66-.305a10.38 10.38 0 0 0 1.35-.787c.098-.07-.235.054-.352.08-2.186.28-4.398.294-6.598.36l-1.117.007-.83-.013c-.1 0-.23-.04-.327.01-.473.246-.956.5-1.348.862-.307.283 2-.643 1.245-.13l3.77-.303 2.645-.182.78-.013 1.5-.84c.1-.06-.212.044-.32.058-.545.072-1.097.072-1.645.1-1.366.053-2.73.156-4.08.37-1.748.238.327-.048-1.22.174-.124.018-.264-.014-.37.05-2.03 1.204-1.684.994-.58.986l4.772.026 1.535-.946c.014-.01-.032.007-.048.008l-.2.003h-.856l-1.775.056-1.908.196-1.3.957zm6.694-17.71c.047-.8.35-1.56.685-2.277l.722-1.52c.325-.522.863-.833 1.35-1.184.402-.347.686-.817.92-1.3.246-.52.45-1.06.65-1.6.245-.645.452-1.316.85-1.887.412-.558.917-1.034 1.4-1.518l1.578-1.506.212-.25.217-.316 1.1-1.503c.548-.803 1.245-1.487 1.94-2.163l1.624-1.443c.338-.427.783-.738 1.204-1.075l1.387-1.386 1.504-1.627.577-.5c.083-.06.176-.105.264-.158l-4.238 2.403c-.154.07-.264-.2-.396-.315l-.305.286c-.922.84-1.778 1.743-2.505 2.758-.472.63-.754 1.36-1.103 2.056l-.144.36c-.023.312.158.627.286.897l.258.444c.032.062.036.14.083.2.088.094.192.172.288.258.857-.492 3.66-1.576 4.886-2.95.366-.4.514-.652.847-1.1l.978-1.34 2.37-2.714c.203-.303.468-.57.646-.9.153-.276.294-.622.415-.915l.86-2.285c.14-.294.227-.613.354-.913l.244-.54c.012-.06.017-.12.035-.178.04-.124.058-.124.143-.206l-4.236 2.5c-.012.007 0-.055.007-.043.043.08.07.168.106.25.232.795.323 1.62.53 2.423.017.06.1.38.147.446.07.094.15.295.257.245 3.576-1.694 3.636-1.403 5.086-3.15.326-.377.5-.826.667-1.282l.524-1.402c.157-.383.277-.86.658-1.1.06-.036.254-.12.193-.086l-4.075 2.387c.094.001.2-.022.282.002.774.2 1.33 1.127 1.72 1.763 1.127 1.9 1.433.168 4.88-1.924.108-.065.017-.25.03-.376l.12-.902c.135-1.108.437-2 1.056-2.927.042-.043.18-.153.126-.128l-4.626 2.182c-.084.043-.1.165-.134.25l-.2.394-.426.97c-.123.584-.446 1.774.44 1.968.133.03.27-.024.407-.036l4.573-2.715c.142-.1.213-.26.314-.395.462-.613.8-1.3 1.14-1.978.34-.496.607-1.12 1.115-1.482.13-.093.577-.283.44-.198-3.777 2.354-5.26 2.296-3.325 2.272l.464.1c.343.103.588.227.92.357.45.177.906.312 1.372.44l.4.056c.12.005.25.03.356-.025l4.564-2.617c.185-.115.583-1.077.682-1.288.322-.503.402-1.135.735-1.63.034-.05.088-.083.132-.124l-4.722 2.063c-1.34.8-3.518 2.436 2.242-1.254.355-.228-.756.375-1.144.54-.814.35-1.637.62-2.472.913l-2.923.88-1.083.383-4.473 2.57c.138.187.194.486.414.562.234.08 1.906-.347 2-.37l3.278-.858c2.255-.73 4-1.985 6.14-3.25.487-.3.686-.657.927-1.14.206-.405.204-.86.302-1.3.017-.074.14-.253.075-.215-3.72 2.158-5.312 3.715-4.1 2.543.526.715.552 1.66.993 2.413.075.127.177.235.266.352.142.074.273.177.427.222.268.078.656.03.896-.105 3.383-1.902 3.8-1.568 5.275-3.55.368-.46.47-1.02.624-1.57.046-.164.066-.34.147-.5.063-.117.182-.195.273-.292l-3.722 2.365c.216.022.437.01.647.066.93.243 1.8.993 2.645 1.455.105.034.207.083.316.103.098.017.213.06.298.007l4.35-2.837c.085-.064-.063-.8-.076-.845-.044-.158-.114-.307-.17-.46-.335-.718-.688-1.527-1.42-1.93-.14-.077-.3-.1-.45-.167-2.218.143-.96-.012-5.102 2.805-.13.1-.8 1.443-.812 1.467-.57 1.1-.3.62-.917 1.652-.18.194-.332.415-.537.58-.18.145-.8.462-.602.342l3.614-2.168c.125-.08-.287.087-.435.108-.306.044-.354.004-.628-.07-.07-.048-.15-.083-.207-.145-.168-.188-.13-.518-.065-.733.03-.105.056-.22.13-.3.095-.103.236-.15.354-.224 1.865-.952-.565.276-3.2 1.933-.15.094.326-.142.498-.18.778-.177 1.533-.046 2.306.072.617.1 1.22.328 1.853.346 1.845.055 3.315-1.654 4.838-2.697.117-.08.034-.282.05-.423.04-.436-.062-.878-.017-1.314.01-.105-.008-.24.073-.3.098-.082.485-.136.378-.066l-3.697 2.258c.24-.03.476-.082.716-.087.85-.016 1.672.232 2.474.482 3.482 1.085-1.744-.522 1.616.5 1.372.454 2.8.566 4.242.66l3.788.037 2.74-.016c.605.007.4-.012.824.05-1.378-1.036-.07-.022 3.94-2.95.046-.034-.094.067-.146.1-.063.027-.137.023-.196.057l-4.44 2.587c-.087.057.015.207.023.3.105.133.187.288.316.398.23.198.688.324.957.404l1.866.532c1.228.422 2.525.573 3.8.844.918.202 1.77.606 2.62.992.862.407 1.64.96 2.46 1.44.725.338 1.448.663 2.058 1.187.4.402.67.916 1.003 1.376.486.68 1.174.938 1.935 1.22 1.018.298 1.98.72 2.807 1.4.818.673.94 1.22 1 2.242.08 1.077.27 1.52 1.05 2.268.64.57 1.368 1.034 2.083 1.505l2.265 1.494c.688.573 1.26 1.264 1.868 1.916.695.74 1.254 1.57 1.733 2.463l.88 1.827c.16.424.176.543.286.98l.075.55.06.593c.05.25.13.5.2.734.24.83.544 1.517.9 2.304l.4.757.805 1.408c.558.833 1.204 1.597 1.853 2.36l3.05 3.22 1.624 1.5c.37.373.68.818 1.1 1.128.66.473 1.446.77 2.187 1.083.926.347 1.776.86 2.68 1.252l1.52.58c1.016.365 2.08.548 3.152.647 2.707.2 1.566-.106 5.7-2.6.16-.605.175-.773-.226-1.275-.358-.383-.858-.553-1.33-.744l-.877-.354c-.796-.275-1.48-.72-2.1-1.283l-.252-.25c-.07-.072-.14-.144-.198-.225-.034-.048-.132-.155-.074-.16.112-.008.396.078.304.142-3.286 2.294-5.447 2.677-3.226 2.208 2.276-.263 4.566-.062 6.85-.112 1.496-.843 3.092-1.53 4.488-2.53.156-.112-.103-.378-.212-.536-.17-.248-.753-.64-.975-.808-.66-.5-.43-.3-.943-.84.037-.08.034-.196.1-.236.15-.08.64-.18.5-.084-1.1.776-2.4 1.277-3.448 2.145-.3.244.744-.16 1.122-.198 1.098-.1 1.886-.05 2.985-.015 2.425.226 1.815.4 4.972-2.716.228-.225-.64-.047-.955-.1l-1.312-.35c-1.056-.332-1.918-.717-2.942-1.14l-5.388-2.378-4.126 2.816c-.123.1.286.14.44.175.23.052.47.06.705.084.756.075 1.5.084 2.27.105.2.03.403.04.597.095.995.3 1.77 1.468 2.26 2.312.025.14.072.28.075.424.004.15-.06.434-.194.544-.06.048-.283.107-.218.068 4.06-2.486 5.618-2.135 3.78-2.473l-.37-.253c-.22-.184-.336-.346-.5-.576-.032-.048-.037-.174-.088-.147-4.57 2.426-4.973.947-4.303 2.853.064.278.322.636.152.93-.086.148-.348.243-.478.307l4.586-1.863c.078-.105.177-.197.233-.315.22-.462-.012-.944-.098-1.402.124-1.84.08-.35-4.37 2.124-.038.02.087.024.12.053.092.085.163.2.248.283.363.395.328.346.733.718.13.1.244.362.394.296.797-.346 5.232-1.256 4.666-3.487-.045-.178-.128-.344-.193-.516-.575-.86-1.485-2.27-2.473-2.647-.212-.08-.442-.1-.663-.15-.742-.006-1.48.027-2.218-.067l-.58-.102c-.07-.01-.152-.036-.212.001l-4.232 2.706c.1-.014.198-.046.298-.04.474.022 1.017.184 1.45.33 1.364.454 2.65 1.1 3.96 1.68l4.065 1.716c.238.095.5.4.715.282 1.444-.763 2.865-1.643 4.03-2.8.28-.274-.78-.015-1.172-.022l-2.9-.126c-.358-.001-.745-.095-1.073.05-1.686.747-3.305 1.644-4.888 2.6-.548.328-.33.636-.217 1.06l.45.428 1.252 1.083c.013.013-.03-.024-.043-.036l4.004-2.174-.727.117-1.063.05c-1.685.05-3.368-.025-5.05-.08-2.3.1-1.2-.04-5.275 2.597-.126.08-.04.303-.01.45.048.223.514.57.657.733.66.6 1.36 1.14 2.216 1.418l1.24.52c.252.103.367.122.585.27.058.04.107.092.16.138.047.06.124.112.133.188.02.177-.106.36-.233.463l4.153-2.393c.055-.03-.062.118-.117.148-.2.1-.875.003-1.113.04-1.08-.03-2.157-.143-3.196-.458-.626-.198-.886-.263-1.494-.528-.9-.397-1.736-.98-2.693-1.275-.688-.274-1.43-.53-2.03-.978-.418-.3-.7-.763-1.036-1.15-.513-.552-1.1-1.038-1.678-1.5-1.144-.927-2.188-1.966-3.18-3.054l-.657-.786c-.9-1.128-1.626-2.372-2.256-3.662-.33-.73-.635-1.455-.82-2.237-.152-.65-.116-.685-.2-1.315l-.083-.6a11.84 11.84 0 0 0-1.227-2.912c-.513-.9-1.038-1.815-1.775-2.567l-1.9-1.992a14.24 14.24 0 0 0-2.303-1.527c-.696-.446-1.348-.958-2.012-1.45-.206-.183-.358-.294-.514-.523-.282-.414-.3-.942-.384-1.42-.13-1.087-.3-1.872-1.187-2.597-.915-.712-1.83-1.15-2.94-1.5-.713-.257-1.2-.457-1.683-1.04-.362-.48-.645-1.02-1.086-1.44-.26-.25-.292-.302-.592-.5-.482-.32-1.034-.504-1.548-.763l-1.133-.7-.877-.473-.513-.273c-.86-.447-1.72-.92-2.685-1.097-1.265-.24-2.55-.383-3.776-.797l-1.835-.544-.462-.15c-.096-.034-.184-.1-.283-.113-.018-.004-.026.027-.04.04 1.694-.01.126-.018-4.043 2.362-.053.03.102-.07.16-.088s.13.026.178-.008c4.315-2.97 5.612-2.057 4.033-3.1l-3.683.012a144.67 144.67 0 0 1-3.773-.018c-1.425-.04-2.855-.137-4.235-.526l-1.626-.5c-1.06-.345-2.123-.7-3.252-.7l-4.75 2.545c-.14.083-.2.267-.242.42-.038.115-.018.242-.02.364-.005.396.05.796-.076 1.18-1.068 1.454-.247.275 3.883-2.03.107-.06-.206.14-.324.17-.63.16-1.302-.107-1.9-.2-.76-.152-.87-.194-1.632-.27-.24-.024-.48-.065-.72-.048-.186.013-.378.048-.543.135-4.257 2.25-3.35 1.57-5.134 2.98-.098.15-.22.287-.294.45-.055.123-.068.262-.083.397-.063.573.113 1.073.582 1.422.126.063.243.15.377.2.187.058.813.112.978.028l4.695-2.6a2.28 2.28 0 0 0 .518-.447c.177-.195.3-.425.467-.637.456-.825.862-1.704 1.424-2.464.146-.198.714-.656.5-.553-2.46 1.13-5.105 2.98-3.46 1.842.116-.003.237-.043.348-.01.13.04.237.133.345.216.464.356.68.923.912 1.44.07.258.15.442.112.7-.013.092-.175.307-.092.264l4.073-2.317c.08-.042-.065.18-.14.23s-.173.03-.26.045l-.36-.12c-.236-.104-.852-.466-1.042-.577-.583-.34-.76-.467-1.38-.754l-.72-.3-4.683 2.576c-.118.072-.293.8-.317.892-.124.408-.18.606-.404.974-.1.148-.202.28-.302.422l-.35.4c-.128.124-.567.428-.4.344l3.82-2.157c.043-.024-.273.266-.665.368-.1.023-.183.02-.274.028-.077-.076-.168-.14-.23-.227-.165-.235-.3-.64-.4-.897l-.6-1.65c-1.208-1.833-.24-.675-4.665 2.18-.066.042-.016.156-.025.233-.047.384-.13.748-.338 1.083-.268.35-.256.38-.597.646-.12.094-.5.334-.376.26l3.623-2.058-.677.346-.85.344-1 .336-2.25.56-1.002.198c-.2.044-.467-.004-.594.156-.1.127.06.32.1.48l-3.5 2.038c1.208-.513 2.477-.848 3.726-1.24l2.472-.865c.37-.14.752-.258 1.1-.447l4.917-2.828c.6-.344.664-.418 1.16-.792l-4.516 1.87c-.048.022-.024.104-.04.154l-.13.33-.556 1.258c-.18.327-.284.564-.538.84-.087.094-.407.308-.294.248l3.972-2.204c-.097.046-.2.108-.292.137-.115.033-.237.03-.355.046-.46-.095-.905-.2-1.345-.365l-.952-.396-.508-.18c-2.242-.516-.527-.243-5.237 2.335-.594.325-1.04 1.348-1.404 1.885-.286.512-.557 1.034-.915 1.5-1.1 1.42-3.75 2.48 3.193-1.46l-.227.224c-.047.047-.077.125-.14.14-.296.07.012-1.198.066-1.266l.703-1.36c.06-.1.297-.38.178-.337-4.487 1.665-4.08.38-4.573 2.074-.465.974-.8 2-.948 3.063-.033.15-.135.687-.225.854-.04.074-.25.217-.175.18l4.327-2.2c-.04 0-.086.024-.116 0-.087-.07-.14-.172-.2-.258-.622-.863-1.235-1.813-2.238-2.268l-4.564 2.45c-.272.15-.546 1.125-.653 1.4-.312.9-.62 1.805-1.28 2.506l-.313.314c-.097.087-.425.3-.3.24l4.16-2.235c.07-.033.057.163.016.228-.07.112-.112-.584-.152-.366-.256-.798-.377-1.63-.56-2.446-.006-.02-.24-.83-.365-.773-6.053 2.767-3.785.942-4.57 2.95l-.515 1.433-.897 2.26a7.66 7.66 0 0 1-1.074 1.662l-2.233 2.7-1.502 1.933c-1.265 1.38-4.315 2.697 3.184-1.48.028.1.068.2.085.304.006.034-.033-.06-.05-.1-.097-.18-.208-.35-.32-.522-.196-.426-.148-.448.04-.87.268-.677.614-1.32 1.04-1.9.76-1 1.635-1.873 2.562-2.7.12-.13.32-.218.357-.4.05-.23.092-.772-.127-.7-2.247.85-3.768 1.627-5.205 3.165l-1.536 1.622-1.426 1.336c-.424.348-.82.72-1.197 1.12l-1.53 1.412c-.7.708-1.4 1.4-1.93 2.24l-1.612 2.018-1.567 1.498c-.506.5-1.016 1.026-1.388 1.645-.317.626-.52 1.3-.8 1.948l-.73 1.567c-.26.42-.55.8-.97 1.08-.512.392-1.016.814-1.273 1.425l-.65 1.502c-.315.816-.636 1.67-.663 2.552l4.444-2.33z"/><path d="M272.886 284.06c.94-.92 1.565-2.08 2.248-3.185.313-.555.173-.284.426-.81l-6.41 2.904-.386.73c-.653 1.143-1.405 2.218-2.43 3.064l6.55-2.705z"/><path d="M270.72 285.123c-.02-.115-.05-.228-.057-.344-.02-.317.02-.89.03-1.185l.046-1.855c-.007-.7.006-1.424.18-2.108.1-.396.21-.566.39-.934l1.324-2.3c.205-.323.478-.658.714-.958.806-.987 1.468-2.077 2.2-3.117.3-.472.572-.975.938-1.403.502-.59 1.117-1.094 1.69-1.612 1.098-1 2.038-2.154 3.1-3.182.962-.987 1.855-2.044 2.735-3.104.622-.633 1.056-1.42 1.63-2.1.172-.2.765-.783.94-.958l2.044-1.868c.066-.05 1.016-.668 1.063-.698l.612-.408 1.18-.773.526-.314-5.13 2.993 1.37-.657.41-.192c.077-.035.167-.048.23-.103.02-.016-.037-.033-.055-.05-.01.727-.22 1.42-.378 2.123l-.28 1.284c-.264.756-.32 1.898-.778 2.563-.084.122-.22.2-.33.3l5.64-3.43c-.087.04-.165.125-.26.12-.325-.014-.765-.363-.972-.534-.55-.457-.987-1.012-1.413-1.58-.272-.388-.512-.804-.548-1.287-.007-.096-.04-.214.02-.29.04-.05.24 0 .187.032l-6.164 3.454c.382.96.456 2.015.553 3.035.117 1.224.1.716.06 1.84-.113.163-.192.356-.34.49-.13.12-.622.335-.47.243l5.552-3.332c.09-.057-.212.07-.318.054-.3-.047-.343-.295-.464-.523-.15-.69-.13-.483-.188-1.217-.013-.165.014-.336-.028-.497-.035-.132-.074-.416-.197-.358-6.323 2.958-5.214 1.513-6.984 4.223l-5.118 6.83-.928 1.484c-.1.107-.505.3-.377.22l6.12-3.35c.127-.076.138-.264.176-.407.104-.38.166-.773.25-1.16l1.314-4.025c.118-.29.228-.6.395-.856.09-.14.507-.422.36-.346l-6.2 3.346-.152.46-.287 1.27c-.304 1.122-.926 2.975-1.345 3.964-.948 2.24-1.646 3.373-2.83 5.524-1.343 2.053-2.46 4.346-4.207 6.112-.27.273-1.266.86-.92.695 6.288-2.97 5.04-1.296 6.752-3.96 1.058-1.77 2.206-3.54 3.7-4.974.27-.257 1.193-.89.867-.708l-5.22 3.126c.266-.123-.122-.112-.18-.082-.153.076-.255.228-.4.332l-.512.365c5.638-3.34 7.453-3.47 4.932-3.202-.078-.14-.2-.264-.234-.418-.214-.747-.2-1.504-.138-2.272.06-.743.202-1.675.48-2.386.08-.208.226-.386.34-.58 10.746 8.858-5.423 1.535-6.27 3.834-.15.405-.165.848-.272 1.266l-.51 1.77-1.387 3.963-2.373 5.755c-.1.216-.588.734-.37.628 2.145-1.038 4.166-2.315 6.25-3.472l.244-1.47c.286-1.337.754-2.983 1.15-4.286.456-1.504.968-2.967 1.585-4.41.087-.125.4-.44.26-.376l-6.535 3.3c-.284.174-.233.625-.363.93l-.592 1.314-1.658 3.338c-.843 1.42-1.636 2.896-2.683 4.182-.188.23-.884.783-.62.643 9.086-4.866 3.593-2.458 6.166-3.578.263-1.26.73-2.465 1.258-3.635l.504-1.037c.132-.227.696-.762.465-.636-1.946 1.063-3.78 2.32-5.67 3.478-.06-.044-.138-.193-.176-.13-.084.135-.02.318-.038.476l-.084.658-.126.62c-.03.125-.132.247-.1.372.05.208.22.368.33.553l6.403-3.96c.236-.16.308-.48.48-.71l.665-.818c.934-1.04 2.067-1.81 3.188-2.63l6.612-4.868 2.86-1.85-6.127 2.378-2.792 1.884-1.383 1.063-5.25 3.803c-1.004.738-1.654 1.157-2.53 1.996-.535.513-1.067 1.18-1.524 1.763-2.015 2.573-.154.55 5.2-2.257.07.184.077.41.212.552.073.077-.002-.212.01-.318l.09-.64c.038-.297.162-1.175.08-1.477s-.282-.55-.423-.826l-6.208 3.688c-.2.133-.2.432-.305.652l-.422 1.025-1.4 3.88c.04.42-.278 1.394.12 1.26 2.25-.764 4.222-2.19 6.254-3.423.214-.13.283-.413.418-.623l2.453-4.163 1.8-3.422.717-1.378c.193-.363.988-1.188.59-1.082-6.263 1.68-6.053.397-6.282 2.915-.93 3.527-1.932 7.033-3.052 10.504 2.1-.87 4.26-1.607 6.297-2.614.196-.097.157-.408.232-.613l.337-.95 1.66-4.654 2.125-5.91c.153-.46.347-.912.42-1.39.07-.455.438-1.53.002-1.382-2.246.754-4.136 2.31-6.205 3.463a19.77 19.77 0 0 0-.469 3.064c-.062.842-.138 1.84.117 2.674.112.365.34.684.5 1.025 3.014.935.732.4 7.192-3.44.2-.118.338-.323.465-.517.316-.486.493-.935.136-1.497-.11-.175-.36-.207-.54-.3-2.154 1.257-4.348 2.447-6.462 3.77-.342.214-1.44 1.568-1.605 1.776-1.038 1.317-1.95 2.725-2.88 4.117-1.493 3.107-1.235 1.897 5.732-1.4.278-.13.42-.448.606-.694.84-1.114 1.513-2.25 2.227-3.457l1.462-2.53c1.154-2.078 2.02-3.56 3.037-5.702.81-1.71 1.103-2.518 1.69-4.2.167-.48.363-.95.483-1.44.077-.316.068-.647.102-.97-2.13 1.002-4.303 1.914-6.387 3.005-.13.068-.102.275-.148.415l-.264.83-1.287 4.066c-.13.438-.312.864-.392 1.314-.062.35-.372 1.174-.032 1.07 6.323-1.95 5.53-1.52 7.428-4.783 1.542-2.4 3.353-4.625 5.204-6.803.232-.26 1.02-.9.697-.778-2.08.852-4.022 2.004-6.05 2.973-.038.018.04-.15.058-.11.06.143.067.304.09.457.204 1.28-.04.14.27 1.45.24.49.3.783.767 1.1.156.105.357.286.526.204 2.214-1.08 4.344-2.328 6.45-3.606.17-.103.247-.316.318-.5.087-.224.1-.47.15-.704-.087-1.573.007-.142-.154-1.854-.1-1.177-.13-2.38-.474-3.52-2.145 1.03-4.333 1.978-6.436 3.094-.088.047.032.197.05.295.122.69.377 1.327.837 1.87.698.876 1.62 2.035 2.584 2.618.163.1.346.16.52.24 2.096-1.255 4.238-2.436 6.29-3.764.14-.1.155-.295.215-.45.33-.85.436-1.775.714-2.642l.418-1.925c.073-.373.194-.987.187-1.375-.003-.2-.055-.416-.083-.624-.125-.2-.193-.45-.374-.602-.1-.092-.282-.085-.424-.066-.16.022-.3.118-.447.184-.452.205-.882.46-1.35.633-3.223 1.473-6.186 3.45-9.124 5.414-1.114.78-2.093 1.717-3.04 2.69-.918.97-1.673 2.064-2.532 3.085-.9 1.043-1.805 2.084-2.78 3.057-1.025 1.043-1.97 2.164-3.066 3.138-.405.38-.863.792-1.238 1.202-.557.608-.978 1.3-1.422 2-.697 1.06-1.416 2.1-2.205 3.092-.747 1.085-1.363 2.253-1.984 3.413-.067.184-.146.365-.202.553-.264.884-.233 1.826-.246 2.737.01 1.178-.077 2.348-.09 3.524l6.288-3.303z"/><path d="M290.4 256.424c1.158-.016 2.3.274 3.43.5l2.35.443 5.94 1.072c2.94.153 1.784.202 6.977-3.644.242-.18-.12-.594-.232-.875-.118-.296-.295-.566-.453-.842l-1.046-1.668c-.03-.048-.625-.85-.445-1.12.07-.105.48-.1.376-.04-1.743 1.2-3.738 2.036-5.33 3.423-.3.27.823.065 1.225.155.492.1.964.295 1.447.442 1.485.538 2.88 1.282 4.275 2.014.84.44 1.64.886 2.538 1.194 2.1-1.16 4.434-1.993 6.326-3.48.307-.242-.417-.684-.73-.918-.56-.418-3.166-1.404-3.574-1.576l-3.906-1.856-1.245-.77c-2.383-1.74 4.07-4.862-6.066 3.533-.175.145.46.05.667.146.756.355 1.508 1.025 2.146 1.535.037.04 1.294 1.062 1.03 1.544-.1.202-.85.322-.667.183 1.477-1.1 3.314-1.774 4.578-3.12.398-.424-1.16.1-1.74.098-.612-.001-1.222-.07-1.833-.103l-1.667-.195-1.353-.2c-.302-.036-.634-.2-.9-.07-1.376.656-8.447 1.938-5.784 4.442.273.257.652.37.978.555 1.896.794 4.22 1.662 6.306 1.202.355-.078.68-.258 1.02-.387l6.355-4.204c.263-.213.123-.678.073-1.013-.165-1.1-1.12-2.107-1.932-2.792-2.426-1.42-.72-.562-6.698 3.35-.15.1.07.357.07.538 0 .115.014.263-.074.337-.1.086-.506.13-.394.058l5.58-3.313c-2.678 1.017-3.928 2.073-7.188 4.017-.1.06-.166.16-.254.238-.222.194-.2.166-.44.302-.05.068-.136.12-.15.203-.025.146.016.297.04.443.097.6.46 1.05.845 1.495.298.344.643.586 1.07.733l5.594-4.403c-.12.538-.323.293-.64.03-.153-.167-.7-.647-.5-.94.07-.1.296.002.327-.164l.394-.336.255-.18-5.705 3.252c-.13.073.243-.177.38-.23.152-.057.32-.062.478-.094l6.413-3.708c.287-.182.18-.622.277-.875.025-.066.2-.186.146-.153-6.323 3.282-8.23 3.6-5.715 3.143.155.086.323.153.466.258.533.393 1.174 1.094 1.182 1.8.024 2.192-6.554 4.02 5.03-2.04-.307.197-.58.46-.92.592-.375.145-.785.188-1.185.225-.43.04-.864.054-1.3.006-1.14-.13-2.454-.655-3.5-1.12-.23-.136-.447-.3-.692-.407-.03-.013-.017.07-.046.085l-5.7 3.07c-.28.177.658-.1 1-.106.218.003 3.1.325 3.166.33l3.518.257c2.48-.984 4.862-2.222 7.15-3.596.262-.158.316-.568.286-.872-.063-.625-1.034-1.38-1.374-1.707l-1.063-.933-.962-.817c-.246-.216-.433-.8-.725-.662-7.844 3.96-7.448 3.22-3.78 5.046l5.822 2.785c.38.216.7.5 1.1.726.032.018.064-.038.096-.057l5.952-3.173c-.197.002-.398.043-.592.006-.694-.13-1.5-.55-2.1-.84l-4.324-2.084-1.4-.555c-.388-.147-.785-.572-1.172-.422-2.35.9-4.553 2.183-6.718 3.476-.163.097-.08.38-.05.566.073.467.43.877.682 1.24.43.64.636.893.965 1.598.104.223.22.448.26.7.016.1-.194.327-.105.282 6.992-3.53 7.722-3.7 5.194-2.965l-6.068-.967-5.576-1.237-5.74 4.17zM314.94 360.8c-1.095-2.3-1.856-4.757-2.694-7.163l-1.6-5.63c-.018-.45-.323-2.034-.163-2.392.033-.074.308-.084.24-.042l-12.07 7.16c.033-.026.06-.097.098-.078.36.178.662.978.918 1.294.158.195.342.367.513.55 4.22-2.404 8.546-4.627 12.658-7.2.265-.167.156-.606.253-.904.42-1.296.493-1.182.875-2.578.4-1.418.365-1.642.553-3.1.12-2.864.536-5.696.976-8.524l.74-3.706c.037-.185-.023-.43.12-.553.092-.08.216.112.325.168-4.237 2.2-8.636 4.13-12.7 6.627-.305.187.13.704.165 1.06.065.663.12 1.327.132 1.993.07 3.435-.196 6.88-.4 10.303-.114 2.96-.457 5.927-.427 8.892.02 1.967.3 3.92.576 5.864.276 1.606.557 3.237 1.168 4.756 2.227 4.7.515 1.4 12.618-7.032.332-.23-.085-.805-.092-1.2a31.38 31.38 0 0 1 .039-1.911c.098-2.207.22-3.203.428-5.46l1.914-16.78c.82-3.97 1.248-7.995 1.743-12a39.27 39.27 0 0 1 1.63-6.744c.566-1.615 1.1-3.25 1.9-4.774.704-1.4 1.84-2.405 3.066-3.346 4.58-2.914 12.938-7.637-8.05 4.533 2.16-1.108 4.454-1.94 6.685-2.9.03.008 1.597-.703 1.67-.688.05.01-.07.084-.078.136-.05.3-.044.626-.097.935-.087.506-.214 1.003-.322 1.505-.766 2.556-1.193 5.27-2.324 7.702 3.898-2.435 7.7-5.016 11.695-7.306.148-.085.16.302.218.462.045.122-.126-.23-.177-.35-.114-.27-.212-.544-.317-.817-.658-1.7-.2-.567-.95-2.393-.503-1-.804-2.228-1.636-3.046-.208-.205-.455-.64-.715-.507-12.968 6.585-12.264 2.53-12.766 8.64-.452 3.2-.136 6.442.32 9.616 2.08 5.082.297 1.322 13.35-5.677.272-.146.162-.6.297-.877a6.29 6.29 0 0 1 .59-.948c.564-.773 1.193-1.388 1.85-2.08 1.86-2.03 4.1-3.626 6.15-5.46.835-.357 1.628-1.78 2.378-2.188.136-.074.584-.2.45-.122l-11.83 6.733c.18.03.385-.006.54.088.855.52 1.592 1.456 2.23 2.18.724.82 1.4 1.656 2.22 2.37 4.197-2.348 8.577-4.394 12.6-7.044.307-.203-.204-.708-.318-1.058l-1.743-5.198c-.136-.472-.493-1.622-.566-2.162-.027-.198-.085-.422.008-.6.05-.095.412-.08.32-.024-11.846 7.4-16.13 5.773-10.767 7.47 3.4 1.857 6.568 4.094 10.016 5.863.325.135.64.296.974.404 5.053 1.633 12.13-6.96 13.316-7.94.318-.263-.487-.674-.8-.953-.313-.288-.695-.5-1.043-.734-3.5-1.627-7.246-2.6-10.96-3.585-7.005-1.796-6.63-.234-16.008 6.82-.405.305.308.976.572 1.4.3.5.733.888 1.1 1.33.878 1.006 1.88 1.886 2.883 2.763.146.128.302.246.437.386.113.116.173.47.306.378 3.842-2.67 7.495-5.6 11.242-8.4l-.98-.543c-.5-.28-1.74-1-2.223-1.295-.284-.18-.577-.348-.832-.566-.062-.053-.152-.284-.093-.228.24.23.433.504.65.757-17.315 9.64-15.075 4.734-9.958 7.785.514.307 1.152.677 1.48 1.2-.02.007-.08.03-.06.02 15.832-9.33 14.3-2.877 12.082-7.846-.247-.555-.4-1.057-.464-1.66 4.58 2.226.596.137-11.383 7.32-.102.06.183-.175.3-.192.314-.047.733.2.984.37 3.927-2.685 7.95-5.232 11.78-8.054.035-.026-.957-1.184-.987-1.168-12.42 6.765-12.047 2.703-12.344 7.994-.134.156-.226.36-.4.467-.4.24-1.645.8-1.258.554 3.092-1.963 6.256-3.8 9.384-5.713l-10.547 8.33 13.992-7.672c.515-.3.923-.767 1.3-1.235.2-.24.232-.564.348-.846.067-.117.32-.416.202-.35-4.075 2.288-8 4.863-12.124 7.044-.17.1-.178-.35-.2-.543-.014-.125.43.33.3.215l12.148-7.38c-.397.535-1.383-.62-1.604-.504-12.812 6.717-13.18 2.556-12.393 8.026.17.64.404 1.248.608 1.878.056.172-.014.6.15.522 12.986-6.197 15.216-2.7 12.35-6.906-.835-.854-1.886-1.44-2.894-2.07-.296-.185-.568-.687-.9-.55-4.482 1.897-8.726 4.3-13.1 6.467.124.35.187.73.37 1.05.225.394 1.155.87 1.43 1.035 1 .6 1.977 1.183 2.917 1.854l12.202-7.694c.116-.07.17.325.06.402-.135.093-.33-.042-.477-.115-1.102-.55-1.988-1.494-2.827-2.364-.225-.32-.513-.606-.674-.963-.056-.123.177-.464.057-.402-3.983 2.063-7.862 4.32-11.793 6.482.286-.065.564-.185.857-.196.638-.024 2.198.3 2.74.387 3.583.762 7.147 1.714 10.464 3.302 4.877 3.234-.986 1.62 12.88-6.485.175-.103-.208.365-.376.48-.62.425-.973.182-1.675.047-3.618-1.3-6.86-3.462-9.87-5.826-4.866-3.6-1.145-1.325-13.808 6.18-.172.102.052.398.096.593.217.974.624 1.896.915 2.847.45 1.335.926 2.67 1.208 4.054.066.325.16.654.144.985-.006.114-.307.325-.206.273l12.257-6.53c-.672.043-.48.12-1.218-.53-.813-.717-1.505-1.597-2.174-2.44-.362-.457-.67-.956-1.062-1.387-.25-.276-.568-.482-.852-.723l-12.887 6.7c-.14.075-.204.242-.3.36-.123.14-.246.278-.376.4-.293.298-.754.705-1.052.973l-.745.67c-2.06 1.8-4.22 3.484-6.004 5.566-1.205 1.4-.773.85-1.885 2.293-.245.317-.443.675-.73.956-.185.182-.895.52-.66.4 12.63-5.915 16.55-3.824 12.273-6.036-.817-2.92-.94-6.04-.067-8.963 3.054-4.703.507-.478-11.347 5.607-.15.078.037-.445.206-.468.34-.046.82.877 1.03 1.296.193.384.345.786.518 1.18.404 1.113.7 2.255 1.087 3.37 2.27 6.394 8-1.562 13.347-5.694l1.9-7.7c.2-.972.592-2.202.4-3.24-.338-1.922-1.547-2.038-3.027-1.316-2.193.954-4.358 1.97-6.638 2.704-5.036 2.902-11.105 5.825-15.95 9.58-1.205 1.12-2.218 2.382-2.846 3.922-.66 1.622-1.266 3.27-1.78 4.943-.568 2.25-1.1 4.52-1.254 6.842-.162 1.813-.3 3.628-.53 5.433-.4 3-.22 1.28-.723 4.354-.116.705-.205 1.414-.308 2.12-.536 5.558-.817 11.142-1.667 16.667l-.72 5.666-.24 2.112c-.044.45-.524 1.517-.1 1.354 13.237-5.107 14.972-2.25 12.34-6.346-.58-1.384-1.103-2.792-1.398-4.27-.258-1.337-.42-2.03-.564-3.424-.37-3.55-.287-7.144-.138-10.703.246-3.56.63-7.103.907-10.66a42.15 42.15 0 0 0 .112-2.229c.012-.46.415-1.53-.022-1.384-4.468 1.495-8.618 3.8-12.926 5.716.3 1.328-.482 3.242-.504 4.62-.34 2.817-.707 5.628-.9 8.46-.34 1.863-.8 3.75-1.834 5.377-.15.237-.36.43-.54.645l12.083-6.56c.032.167.176.35.096.5-.054.103-.147-.182-.213-.278-.442-.64-.834-1.317-1.36-1.895-11.505 6.485-13.482 2.947-12.134 10.123.5 1.92 1.314 3.74 1.956 5.618.858 2.436 1.606 4.907 2.357 7.377l12.414-6.9zm-147.5-48.188c2.852.285 5.618 1.056 8.364 1.843 2.548.796 5.074 1.728 7.328 3.185.917.593 1.628 1.193 2.48 1.872a61.36 61.36 0 0 1 5.287 5.31c1.383 1.5 2.677 3.077 3.9 4.718 1.356 1.77 2.586 3.623 3.746 5.525 1.16 1.833 1.922 3.872 2.824 5.834 1 1.997 1.38 4.187 1.585 6.392.193 1.535.396 3.1.303 4.64-.045.757-.2 1.628-.332 2.375-.362 1.948-1.03 3.805-1.668 5.674l-3.617 8c-1.105 2.38-2.605 4.512-4.212 6.576-1.96 2.194-3.828 4.462-5.43 6.932-.783 1.274-1.3 2.675-1.792 4.075-.566 1.398-.95 2.87-1.13 4.367-.16 1.52.172 2.994.7 4.405.705 1.758 1.74 3.344 2.863 4.86 1.2 1.482 2.6 2.815 3.895 4.214 2.587 2.404 5.75 4.036 8.666 5.982.62.414 1.215.864 1.822 1.296 3.052 2.518 5.534 5.604 8.027 8.65 1.926 2.54 3.933 4.992 6.222 7.214 2.037 1.813 4.62 2.748 6.897 4.18 1.435.903 2.023 1.423 3.352 2.47 2.717 2.213 4.9 4.922 6.722 7.886 1.388 2.2 2.378 4.623 3.374 7.024 1.2 2.694 2.215 5.453 3.285 8.196.62 1.418 1.154 2.87 1.744 4.3.298.72.77 1.933 1.336 2.52.362.374.846.607 1.27.9.463.157.913.356 1.388.47 5.64 1.37 13.487-5.98 15.915-7.38l-13.118 5.142 11.467-6.5c.255-.144-.48.338-.747.46-1.048.48-2.143.45-3.253.247-.314-.126-.68-.164-.942-.378-.5-.4-1.05-1.68-1.272-2.202-.605-1.42-1.107-2.886-1.725-4.3l-3.208-8.272a49.97 49.97 0 0 0-3.57-7.205c-2.022-3.024-4.33-5.83-7.164-8.14-1.68-1.353-3.35-2.7-5.243-3.746-1.86-1.038-1.605-.642-3.358-1.798-.503-.332-.963-.724-1.445-1.086-.396-.373-.808-.73-1.188-1.12-1.8-1.856-3.23-4.047-4.954-5.976-2.673-3.048-5.305-6.165-8.394-8.8-.624-.46-1.228-.948-1.87-1.382-.625-.42-1.3-.78-1.928-1.18-2.185-1.373-4.375-2.805-6.2-4.657-.644-.797-1.268-1.622-1.992-2.35-.377-.38-.804-.707-1.176-1.092-.217-.224-.4-.468-.617-.702-1.026-1.42-1.965-2.9-2.564-4.568-.416-1.237-.614-2.5-.36-3.8.26-1.406.65-2.774 1.24-4.08.524-1.286 1.02-2.6 1.808-3.748 1.57-2.348 3.358-4.525 5.156-6.7 1.67-2.182 3.34-4.404 4.38-6.97l3.497-8.1c.752-1.928 1.4-3.882 1.577-5.958.282-2.453.302-4.896-.1-7.34-.306-2.336-.744-4.65-1.757-6.8-.912-2.025-1.85-4.042-2.948-5.975l-3.737-5.66c-1.25-1.665-2.626-3.227-4.042-4.752-1.695-1.97-3.55-3.775-5.534-5.453-.84-.67-1.743-1.422-2.647-2.004-2.348-1.5-5-2.412-7.594-3.36-2.607-.937-5.232-1.857-7.976-2.302l-11.622 8.098z"/><path d="M263.504 453.918c-1.685-2.47-2.538-5.28-3.2-8.16-.187-1.487-1.46-6.3.115-7.367.213-.146.505-.113.757-.17l-11.445 6.73c.25-.03.5-.12.75-.088 1.27.155 2.972 1.17 4.092 1.8 1.273.778 1.892 2.082 2.358 3.444.473 1.413.137 2.8-.16 4.202-.44.96-.8 1.96-.53 3 4.363-2.074 8.805-3.988 13.088-6.22.257-.134.2-.542.36-.8.456-.766 1.056-1.437 1.545-2.182.67-1.02 1.022-1.708 1.613-2.778 1.36-2.54 2.545-5.08 4.284-7.394 1.12-1.267 2.08-2.668 3.198-3.936.9-1.03 1.257-1.328 2.26-2.3 1.987-1.816 3.8-3.828 5.83-5.598 1.3-1.185 2.598-2.445 3.526-3.958.9-1.527 2.375-2.498 3.728-3.6 1.68-1.452 3.1-3.147 4.335-5 1.016-1.405 1.587-3.045 2.16-4.664.544-1.435 1.015-2.906 1.7-4.28.66-.98 1.343-1.924 1.95-2.94.28-.62.858-.93 1.312-1.385 1.027-1.03-.33.156.76-.765.613-.7 1.3-1.34 2.1-1.802-20.847 13.286-14.484 7.687-9.923 6 1.353-.497 2.724-.905 4.1-1.304-.02-.242 2.458-.444 2.676-.58.042-.026-.094-.078-.138-.055-.137.072-.255.186-.347.3-.168.23-.282.492-.422.738-.898 1.452-1.53 3.037-2.256 4.574-.626 1.382-1.487 2.523-2.65 3.5-5.28 2.68 11.1-11.453 11.244-6.237.002.055-.05-.1-.054-.154-.016-.216-.048-.438-.007-.65.065-.336.216-.65.323-.976 1.52-2.716 3.28-5.276 5.32-7.623 1.153-1.378 2.76-2.177 4.15-3.258 1.007-1.07 1.744-2.367 2.375-3.686.55-1.315 1.028-2.655 1.5-4 .523-1.33.513-2.367.05-3.704-.565-1.54-1.733-2.56-3.035-3.48-1.963-1.077-3.988-2.002-5.855-3.245-1.47-.932-2.53-2.27-3.448-3.717-.777-1.352-.982-2.906-1.25-4.417-.12-1.054-.365-2.146-.183-3.204.208-1.13.632-2.2 1.08-3.24-.035-.844.077-.373-.596-1.326l-12.08 7.548c-.112-.475-.026-.535-.193-.246-.4 1.175-.742 2.378-.885 3.615.007 1.175.2 2.333.435 3.482.344 1.672.63 3.372 1.536 4.855 1 1.627 2.188 3.126 3.83 4.167l1.912 1.286c1.25.727 2.638 1.208 3.85 2.005 1.057.704 2.07 1.432 2.468 2.7.23 1.013-.058 1.932-.415 2.892-.467 1.296-.94 2.596-1.586 3.817-.686 1.184-1.452 2.342-2.625 3.097-1.443.992-2.78 2.128-3.853 3.525-1.927 2.555-3.724 5.257-5.034 8.182-.08.475-.222.944-.24 1.426-.014.375.04.755.143 1.116.014.05.743 1.88 1.167 1.675 4.336-2.108 8.403-4.732 12.562-7.17.176-.103.28-.295.422-.443a15.28 15.28 0 0 0 2.426-3.942 100.93 100.93 0 0 1 2.193-4.554c.378-1.025.8-2.2-.13-3.103-.23-.224-.543-.398-.863-.433-.27-.03-2.47.512-2.588.54-1.333.36-2.685.674-4.003 1.088-.3.094-.6.223-.893.3-.258.072-.554.032-.788.163-4.246 2.382-8.4 4.906-12.617 7.358-.702.627-1.344 1.315-2.015 1.974-.72.783-1.477 1.514-1.942 2.496-.623 1.016-1.394 1.948-1.82 3.076-.567 1.43-1.056 2.886-1.596 4.325-.604 1.52-1.3 3.006-2.272 4.325-1.28 1.72-2.75 3.288-4.44 4.614-1.425 1.157-2.73 2.38-3.67 3.98-1.097 1.33-2.336 2.528-3.6 3.687l-5.55 5.528c-1.982 2.026-3.835 4.168-5.456 6.497-1.576 2.393-2.818 4.96-4.174 7.48-1.03 1.7-2.123 3.447-3.472 4.92-.205.224-.455.402-.683.603l12.703-5.884c.26-.798.465-1.63.634-2.453.244-1.635.372-3.292-.188-4.884-.68-1.624-1.443-3.238-2.982-4.217-1.4-.764-2.838-1.474-4.282-2.155-.356-.168-.717-.662-1.073-.493-4.4 2.092-8.546 4.722-12.82 7.083-.143.26-.325.5-.428.778-.465 1.26-.22 2.623-.03 3.903.2 1.422.437 2.627.7 4.05.67 3.004 1.483 5.97 2.84 8.744l12.332-7.022zM373.7 302.4c-2.12-1.6-3.845-3.652-5.43-5.774-1.4-2.207-2.994-4.506-4.024-6.9l-.6-1.57c-.874-2.807-.774-5.75-.947-8.646a74.97 74.97 0 0 0-1.08-7.731c-.293-2.3-.945-3.952-2.12-5.914-1.007-1.507-2.374-2.662-3.876-3.646-2.322-1.465-4.9-2.45-7.463-3.398l-9.886-3.406-10.716-3.528c-2.572-.995-5.223-1.703-7.927-2.224-1.68-.353-3.23-.383-4.878.064-4.56 2.162-9.9 5.726-13.233 7.773-.164.1-.218.316-.336.468-.133.17-.26.35-.417.5-.175.168-.382.3-.574.45-.797.485-1.512 1.086-2.22 1.7l13.106-5.28c.722-.57 1.47-1.108 2.142-1.74l1.026-1.06c.14-.126.615-.44.45-.347l-11 6.376c1.387-1.042 2.853-1.112 4.53-.873 2.727.334 5.378.955 7.95 1.933 3.585 1.145 7.223 2.13 10.748 3.457l9.772 3.48c2.453.886 4.94 1.774 7.145 3.194 1.3.92 2.594 1.856 3.523 3.168 1.04 1.658 1.747 3.427 2.045 5.376.464 2.5.675 5.053.966 7.588.164 3.012.328 6.054 1.285 8.94.212.56.404 1.126.637 1.676 1.078 2.54 2.622 4.84 4.145 7.127a51.16 51.16 0 0 0 5.149 6.202l12.106-7.42zm-204.06 4.246l.165.278.616.84 1.007 1.4c.186.235.6.77.82.954.815.655 2.12 1.148 3.083 1.573 1.065.526 2.17.94 3.3 1.264.524.15 1 .394 1.496.634l4.05-2.645c-.485-.288-.965-.595-1.508-.764-1.154-.3-2.285-.64-3.37-1.14l-1.532-.65c-.463-.212-1-.453-1.387-.786-.214-.18-.603-.7-.776-.92l-1-1.387-.506-.815c-.046-.092-.076-.192-.113-.287l-4.365 2.46z"/></svg>