<svg xmlns="http://www.w3.org/2000/svg" viewBox="0 0 45 45" width="100%" height="100%" fill="none" fill-rule="evenodd" stroke="#000" xmlns:v="https://vecta.io/nano"><g stroke-linejoin="miter"><g stroke-linecap="round" stroke-width="1.5"><path d="M22.5 11.63V6"/><path d="M20 8h5"/></g><path d="M22.5 25s4.5-7.5 3-10.5c0 0-1-2.5-3-2.5s-3 2.5-3 2.5c-1.5 3 3 10.5 3 10.5" stroke-linecap="butt" stroke-width="1.5" fill="#fff"/></g><g stroke-linejoin="round"><path d="M11.5 37c5.5 3.5 15.5 3.5 21 0v-7s9-4.5 6-10.5c-4-6.5-13.5-3.5-16 4V27v-3.5c-3.5-7.5-13-10.5-16-4-3 6 5 10 5 10V37z" fill="#fff" stroke-width="1.5"/><path d="M11.5 30c5.5-3 15.5-3 21 0m-21 3.5c5.5-3 15.5-3 21 0m-21 3.5c5.5-3 15.5-3 21 0" stroke-width="1.5" stroke-linecap="round"/></g></svg>