<?xml version="1.0" encoding="UTF-8" standalone="no"?>
<svg
   xmlns:dc="http://purl.org/dc/elements/1.1/"
   xmlns:cc="http://creativecommons.org/ns#"
   xmlns:rdf="http://www.w3.org/1999/02/22-rdf-syntax-ns#"
   xmlns:svg="http://www.w3.org/2000/svg"
   xmlns="http://www.w3.org/2000/svg"
   xmlns:sodipodi="http://sodipodi.sourceforge.net/DTD/sodipodi-0.dtd"
   xmlns:inkscape="http://www.inkscape.org/namespaces/inkscape"
   inkscape:version="1.0 (4035a4fb49, 2020-05-01)"
   sodipodi:docname="M.svg"
   xml:space="preserve"
   style="enable-background:new 0 0 512 512;"
   viewBox="0 0 512 512"
   y="0px"
   x="0px"
   id="Layer_1"
   version="1.1"><metadata
   id="metadata3552"><rdf:RDF><cc:Work
       rdf:about=""><dc:format>image/svg+xml</dc:format><dc:type
         rdf:resource="http://purl.org/dc/dcmitype/StillImage" /></cc:Work></rdf:RDF></metadata><defs
   id="defs3550" /><sodipodi:namedview
   inkscape:current-layer="Layer_1"
   inkscape:window-maximized="0"
   inkscape:window-y="24"
   inkscape:window-x="0"
   inkscape:cy="181.47331"
   inkscape:cx="133.86962"
   inkscape:zoom="0.8125"
   showgrid="false"
   id="namedview3548"
   inkscape:window-height="1056"
   inkscape:window-width="1920"
   inkscape:pageshadow="2"
   inkscape:pageopacity="0"
   guidetolerance="10"
   gridtolerance="10"
   objecttolerance="10"
   borderopacity="1"
   bordercolor="#666666"
   pagecolor="#ffffff" />
<g
   id="g3429">
	<g
   id="g3427">
		<path
   id="path3425"
   d="M107.259,141.792c-4.986,0-9.018,4.031-9.018,9.018c0,4.976,4.031,9.007,9.018,9.007c4.976,0,9.007-4.032,9.007-9.007    C116.266,145.823,112.235,141.792,107.259,141.792z" />
	</g>
</g>
<g
   id="g3435">
	<g
   id="g3433">
		<path
   id="path3431"
   d="M142.619,186.817l-3.299-3.299c-3.734-3.734-9.771-3.734-13.505,0c-3.724,3.724-3.724,9.771,0,13.505l3.31,3.299    c1.857,1.867,4.307,2.801,6.747,2.801s4.891-0.934,6.747-2.801C146.354,196.599,146.354,190.552,142.619,186.817z" />
	</g>
</g>
<g
   id="g3441">
	<g
   id="g3439">
		<path
   id="path3437"
   d="M169.599,183.518c-3.724-3.734-9.771-3.734-13.506,0l-3.299,3.31c-3.734,3.724-3.734,9.771,0,13.495    c1.867,1.867,4.307,2.801,6.747,2.801c2.451,0,4.891-0.934,6.758-2.801l3.299-3.299    C173.333,193.289,173.333,187.242,169.599,183.518z" />
	</g>
</g>
<g
   id="g3447">
	<g
   id="g3445">
		<path
   id="path3443"
   d="M188.165,141.792c-4.986,0-9.018,4.031-9.018,9.018c0,4.976,4.031,9.007,9.018,9.007c4.976,0,9.007-4.032,9.007-9.007    C197.172,145.823,193.141,141.792,188.165,141.792z" />
	</g>
</g>
<g
   id="g3457">
	<g
   id="g3455">
		<g
   id="g3453">
			<path
   id="path3449"
   d="M353.965,241.487c-3.069-2.867-6.241-5.67-9.51-8.404c-1.635-1.367-3.294-2.717-4.976-4.049     c-8.413-6.659-17.415-12.873-26.91-18.569c-1.571-0.942-3.288-1.429-4.997-1.502c-1.367-0.058-2.731,0.15-4.011,0.604     c-0.64,0.227-1.26,0.515-1.849,0.863c-0.589,0.347-1.148,0.754-1.667,1.217c-0.778,0.695-1.466,1.517-2.031,2.457     c-0.377,0.629-0.681,1.28-0.915,1.946c-1.639,4.657,0.154,9.974,4.554,12.61c13.919,8.349,26.65,17.876,37.832,28.327     c13.622,12.731,24.666,26.64,31.912,40.219c0.955,1.788,2.35,3.191,3.98,4.147c1.63,0.956,3.494,1.465,5.388,1.465     c1.687,0,3.395-0.403,4.986-1.252c5.177-2.758,7.129-9.188,4.36-14.354c-5.813-10.89-13.376-21.564-22.583-31.884     C363.343,250.637,358.819,246.019,353.965,241.487z" />
			<path
   id="path3451"
   d="M441.078,25.897c-39.116,0-70.933,31.817-70.933,70.923v92.905c-10.015-7.914-20.699-15.277-31.934-22.014     c-15.797-9.474-32.135-17.378-48.728-23.584c3.872-7.787,5.931-16.412,5.931-25.271c0-31.276-25.451-56.727-56.727-56.727     c-1.443,0-2.833,0.064-4.212,0.17c-18.396-30.247-50.988-48.739-86.773-48.739c-35.806,0-68.387,18.492-86.783,48.728     c-1.369-0.096-2.748-0.159-4.191-0.159C25.451,62.127,0,87.579,0,118.855c0,31.287,25.451,56.727,56.727,56.727     c3.024,0,5.984-0.233,8.859-0.69c0.032,0.042,0.053,0.096,0.085,0.138c0.965,26.173,14.556,50.532,36.241,65.151     c4.52,21.749,15.394,44.474,31.658,66.191v121.634c0,11.416,4.445,22.141,12.519,30.226c4.827,4.817,10.758,8.402,17.198,10.471     c5.517,17.229,21.685,29.738,40.718,29.738c23.563,0,42.744-19.181,42.744-42.745v-61.639c7.044,3.098,14.131,5.888,21.229,8.349     c-6.726,7.066-10.874,16.603-10.874,27.107s4.085,20.37,11.522,27.807c5.326,5.315,11.904,8.912,19.065,10.524     c1.613,7.172,5.209,13.76,10.535,19.075c7.426,7.426,17.304,11.511,27.807,11.511h68.811c30.671,0,55.624-24.942,55.624-55.507     l1.209-264.222c5.814,3.193,12.466,5.018,19.553,5.018c22.481,0,40.771-18.29,40.771-40.771V96.82     C512,57.714,480.183,25.897,441.078,25.897z M21.218,118.855c0-17.643,12.943-32.326,29.833-35.053     c-3.268,10.1-4.965,20.72-4.965,31.361c0,13.495,2.695,26.767,7.861,39.084C35.668,152.825,21.218,137.495,21.218,118.855z      M244.34,83.802c16.9,2.716,29.854,17.399,29.854,35.053c0,8.774-3.215,17.198-9.05,23.712     c-6.111,6.811-14.63,10.981-23.712,11.681c1.422-3.384,2.674-6.843,3.713-10.386c2.758-9.283,4.148-18.937,4.148-28.698     C249.295,104.522,247.598,93.902,244.34,83.802z M147.701,34.777c28.698,0,54.797,15.033,69.236,39.54     c-14.906,23.818-40.952,38.395-69.225,38.395c-28.327,0-54.383-14.577-69.278-38.373     C92.884,49.821,118.982,34.777,147.701,34.777z M86.836,172.283c0.021-0.286,0.032-0.573,0.032-0.859     c0-2.387-0.806-4.7-2.281-6.578c-1.888-2.387-3.671-4.933-5.294-7.564c-7.84-12.646-11.988-27.213-11.988-42.119     c0-5.994,0.647-11.861,1.92-17.569c19.319,22.799,47.847,36.336,78.487,36.336c30.597,0,59.104-13.548,78.444-36.368     c1.273,5.718,1.92,11.596,1.92,17.601c0,7.724-1.093,15.352-3.268,22.682l-0.011,0.011c-2.886,9.803-7.596,18.884-14.004,26.99     c-1.475,1.878-2.281,4.191-2.281,6.578c0,0.318,0.021,0.626,0.042,0.944c-0.17,33.419-27.404,60.557-60.854,60.557     c-10.874,0-21.537-2.896-30.841-8.381C98.411,213.669,86.921,193.671,86.836,172.283z M161.26,443.369     c-0.053-0.053-0.106-0.095-0.159-0.149c-4.074-4.063-6.313-9.463-6.313-15.214v-96.989c2.111,2.154,4.265,4.286,6.472,6.387     V443.369z M288.942,445.979c-1.952-0.881-3.766-2.111-5.326-3.671c-3.416-3.416-5.294-7.957-5.294-12.795     c0-9.973,8.116-18.089,18.089-18.089h4.106c8.477,1.75,25.802,3.809,26.12,3.809h0.17c1.326,1.581,2.727,3.119,4.191,4.583     h-4.965C308.834,419.817,294.31,430.649,288.942,445.979z M429.248,442.817c0,18.969-15.436,34.395-34.406,34.395h-68.811     c-4.838,0-9.379-1.878-12.805-5.305c-3.416-3.406-5.294-7.946-5.294-12.784c0-0.191,0-0.382,0.011-0.583     c0.308-9.814,8.254-17.505,18.089-17.505c0,0,55.539-0.021,55.974-0.021c5.856,0,10.609-4.753,10.609-10.609     c0-5.867-4.753-10.609-10.609-10.609c-28.061,0-50.892-22.831-50.892-50.892c0-5.856-4.753-10.609-10.609-10.609     c-5.867,0-10.609,4.753-10.609,10.609c0,7.416,1.125,14.566,3.215,21.303h-10.397c-18.524-4.01-37.461-10.588-55.964-19.489     v-41.768c0-5.867-4.753-10.609-10.609-10.609c-5.867,0-10.609,4.742-10.609,10.609v126.748c0,11.861-9.665,21.526-21.526,21.526     c-11.872,0-21.526-9.665-21.526-21.526V309.46c0-5.867-4.753-10.609-10.609-10.609c-5.071,0-9.294,3.543-10.355,8.286     c-3.14-3.554-6.122-7.161-8.944-10.811c-11.458-14.789-20.051-29.992-25.409-44.803c6.673,1.719,13.569,2.62,20.539,2.62     c44.262,0,80.46-35.233,82.02-79.123c0.032-0.042,0.053-0.085,0.085-0.127c2.886,0.456,5.846,0.69,8.88,0.69     c13.696,0,26.873-4.976,37.122-13.834c17.516,6.047,34.809,14.153,51.497,24.157c16.922,10.153,32.464,21.802,46.214,34.639     c34.544,32.273,55.56,70.403,56.876,102.835L429.248,442.817z M490.782,142.948c0,10.779-8.774,19.553-19.553,19.553     c-10.779,0-19.542-8.774-19.542-19.553l-0.011,0.011V96.82c0-5.856-4.742-10.609-10.609-10.609     c-5.856,0-10.609,4.753-10.609,10.609v160.199c-9.888-16.763-23.054-33.281-39.095-48.781V96.82     c0-27.404,22.301-49.704,49.715-49.704c27.404,0,49.704,22.301,49.704,49.704V142.948z" />
		</g>
	</g>
</g>
<g
   id="g3463">
	<g
   id="g3461">
		<path
   id="path3459"
   d="M107.259,141.792c-4.986,0-9.018,4.031-9.018,9.018c0,4.976,4.031,9.007,9.018,9.007c4.976,0,9.007-4.032,9.007-9.007    C116.266,145.823,112.235,141.792,107.259,141.792z" />
	</g>
</g>
<g
   id="g3469">
	<g
   id="g3467">
		<path
   id="path3465"
   d="M142.619,186.817l-3.299-3.299c-3.734-3.734-9.771-3.734-13.505,0c-3.724,3.724-3.724,9.771,0,13.505l3.31,3.299    c1.857,1.867,4.307,2.801,6.747,2.801s4.891-0.934,6.747-2.801C146.354,196.599,146.354,190.552,142.619,186.817z" />
	</g>
</g>
<g
   id="g3475">
	<g
   id="g3473">
		<path
   id="path3471"
   d="M169.599,183.518c-3.724-3.734-9.771-3.734-13.506,0l-3.299,3.31c-3.734,3.724-3.734,9.771,0,13.495    c1.867,1.867,4.307,2.801,6.747,2.801c2.451,0,4.891-0.934,6.758-2.801l3.299-3.299    C173.333,193.289,173.333,187.242,169.599,183.518z" />
	</g>
</g>
<g
   id="SVGCleanerId_1">
	<g
   id="g3479">
		<path
   id="path3477"
   d="M188.165,141.792c-4.986,0-9.018,4.031-9.018,9.018c0,4.976,4.031,9.007,9.018,9.007c4.976,0,9.007-4.032,9.007-9.007    C197.172,145.823,193.141,141.792,188.165,141.792z" />
	</g>
</g>
<g
   id="SVGCleanerId_2">
	<g
   id="g3484">
		<path
   id="path3482"
   d="M390.111,287.212c-8.456-15.84-20.614-31.223-36.146-45.726c-12.275-11.469-26.205-21.908-41.397-31.021    c-5.029-3.013-11.543-1.379-14.556,3.639c-3.013,5.029-1.39,11.543,3.639,14.556c13.919,8.349,26.65,17.876,37.832,28.327    c13.622,12.731,24.666,26.64,31.912,40.219c1.91,3.575,5.58,5.612,9.368,5.612c1.687,0,3.395-0.403,4.986-1.252    C390.928,298.808,392.88,292.379,390.111,287.212z" />
	</g>
</g>
<g
   id="g3491">
	<g
   id="g3489">
		<path
   id="path3487"
   d="M107.259,141.792c-4.986,0-9.018,4.031-9.018,9.018c0,4.976,4.031,9.007,9.018,9.007c4.976,0,9.007-4.032,9.007-9.007    C116.266,145.823,112.235,141.792,107.259,141.792z" />
	</g>
</g>
<g
   id="g3497">
	<g
   id="g3495">
		<path
   id="path3493"
   d="M188.165,141.792c-4.986,0-9.018,4.031-9.018,9.018c0,4.976,4.031,9.007,9.018,9.007c4.976,0,9.007-4.032,9.007-9.007    C197.172,145.823,193.141,141.792,188.165,141.792z" />
	</g>
</g>
<g
   id="g3503">
	<g
   id="g3501">
		<path
   id="path3499"
   d="M142.619,186.817l-3.299-3.299c-3.734-3.734-9.771-3.734-13.505,0c-3.724,3.724-3.724,9.771,0,13.505l3.31,3.299    c1.857,1.867,4.307,2.801,6.747,2.801s4.891-0.934,6.747-2.801C146.354,196.599,146.354,190.552,142.619,186.817z" />
	</g>
</g>
<g
   id="g3509">
	<g
   id="g3507">
		<path
   id="path3505"
   d="M169.599,183.518c-3.724-3.734-9.771-3.734-13.506,0l-3.299,3.31c-3.734,3.724-3.734,9.771,0,13.495    c1.867,1.867,4.307,2.801,6.747,2.801c2.451,0,4.891-0.934,6.758-2.801l3.299-3.299    C173.333,193.289,173.333,187.242,169.599,183.518z" />
	</g>
</g>
<g
   id="g3515">
	<g
   id="g3513">
		<path
   id="path3511"
   d="M390.111,287.212c-8.456-15.84-20.614-31.223-36.146-45.726c-12.275-11.469-26.205-21.908-41.397-31.021    c-5.029-3.013-11.543-1.379-14.556,3.639c-3.013,5.029-1.39,11.543,3.639,14.556c13.919,8.349,26.65,17.876,37.832,28.327    c13.622,12.731,24.666,26.64,31.912,40.219c1.91,3.575,5.58,5.612,9.368,5.612c1.687,0,3.395-0.403,4.986-1.252    C390.928,298.808,392.88,292.379,390.111,287.212z" />
	</g>
</g>
<g
   id="g3517">
</g>
<g
   id="g3519">
</g>
<g
   id="g3521">
</g>
<g
   id="g3523">
</g>
<g
   id="g3525">
</g>
<g
   id="g3527">
</g>
<g
   id="g3529">
</g>
<g
   id="g3531">
</g>
<g
   id="g3533">
</g>
<g
   id="g3535">
</g>
<g
   id="g3537">
</g>
<g
   id="g3539">
</g>
<g
   id="g3541">
</g>
<g
   id="g3543">
</g>
<g
   id="g3545">
</g>
<path
   id="path4115"
   d="m 323.67933,476.64434 c -11.45649,-1.76336 -18.44509,-14.03721 -13.88102,-24.37879 1.58529,-3.59204 4.93567,-7.2357 8.35554,-9.08692 2.41265,-1.30601 3.1032,-1.33859 34.76923,-1.64017 31.18994,-0.29704 32.38213,-0.35142 34.45944,-1.57173 3.95676,-2.32439 6.13055,-7.09038 5.28637,-11.59027 -1.00859,-5.37624 -5.91815,-8.99184 -12.20984,-8.99184 -8.29654,0 -18.69191,-3.39651 -26.61556,-8.69617 -13.39663,-8.96022 -22.42967,-25.60067 -22.45423,-41.36468 -0.0183,-11.7745 -15.24026,-15.60335 -20.67497,-5.20048 -1.27521,2.44096 -1.09337,11.94556 0.36263,18.95363 0.66803,3.21539 1.21824,6.05385 1.22269,6.3077 0.004,0.25384 -2.22635,0.46153 -4.95732,0.46153 -9.48393,0 -31.31961,-6.5778 -52.30668,-15.75693 l -7.95869,-3.48089 -0.0135,-21.91955 c -0.0123,-20.00646 -0.113,-22.13861 -1.15345,-24.42946 -3.7271,-8.20625 -15.13027,-8.25617 -19.59664,-0.0858 -1.0091,1.84595 -1.10342,6.57305 -1.39024,69.67261 l -0.30769,67.69231 -1.7233,3.5093 c -2.15774,4.39398 -6.78715,8.63303 -11.25263,10.30378 -4.5579,1.70533 -10.76152,1.69017 -15.37933,-0.0376 -4.75739,-1.77997 -10.10182,-7.1244 -11.88178,-11.88179 -1.29823,-3.46981 -1.30149,-3.6623 -1.32822,-78.37834 -0.0147,-41.195 -0.25996,-76.10687 -0.54493,-77.58194 -1.88988,-9.7825 -14.89796,-12.06086 -20.05683,-3.51295 l -1.3792,2.28524 -5.35828,-6.66056 c -6.64413,-8.25892 -15.01762,-20.69098 -19.40763,-28.81437 -2.92083,-5.40476 -8.7511,-18.23538 -8.42328,-18.53702 0.066,-0.0608 2.19697,0.32173 4.73543,0.84997 3.07151,0.63916 8.11485,0.97296 15.07693,0.99789 11.37899,0.0407 18.52677,-1.08734 27.64232,-4.36256 24.75268,-8.89364 44.20093,-29.63172 51.53069,-54.94828 1.33726,-4.61883 2.9743,-14.08657 2.97933,-17.23077 l 0.004,-2.15384 9.38365,-0.013 c 7.91271,-0.0109 10.15362,-0.23382 14.29555,-1.42188 6.49234,-1.86224 13.87937,-5.40673 18.63677,-8.9424 l 3.85635,-2.86602 5.9898,2.23418 c 46.37545,17.29793 90.44406,49.50719 117.9208,86.187 16.40431,21.89877 26.92828,45.19534 29.41651,65.11832 0.51051,4.08762 0.52718,22.25044 0.0633,68.93452 -0.54817,55.16432 -0.75818,63.82296 -1.61937,66.76458 -3.48857,11.91623 -12.40678,20.84227 -24.41146,24.43291 -2.94384,0.88051 -8.10454,1.03007 -39.99535,1.15901 -20.13846,0.0814 -38.00584,-0.066 -39.70529,-0.32754 z m 61.04984,-174.22195 c 2.35748,-0.89072 5.09121,-3.54633 6.11585,-5.94109 2.04373,-4.7765 0.58376,-8.95 -7.32722,-20.94574 -13.92063,-21.10843 -34.61803,-41.39722 -58.92635,-57.76302 -12.29163,-8.27545 -13.4052,-8.84946 -17.1679,-8.84946 -6.44596,0 -10.55972,3.65534 -10.97556,9.75247 -0.40832,5.98685 0.8879,7.53888 12.90405,15.45072 25.78144,16.97536 45.34928,36.41803 58.86567,58.48911 4.08952,6.67783 5.07255,7.87492 7.45386,9.07693 2.96804,1.49818 6.3114,1.76767 9.0576,0.73008 z"
   style="fill:#ffffff;stroke-width:0.615385" /><path
   id="path4117"
   d="M 142.15385,232.2288 C 126.94536,230.92084 111.2799,222.70773 101.49606,210.91268 92.732625,200.34779 88.319653,188.9289 87.171238,173.84615 l -0.491988,-6.46153 -4.113398,-6.02439 c -6.512919,-9.53866 -9.803409,-16.61073 -12.427178,-26.70907 -2.159737,-8.31238 -2.923009,-17.7186 -2.124703,-26.18392 1.03867,-11.014174 0.439121,-10.684811 7.293507,-4.0067 9.095985,8.86207 15.672097,13.55189 26.665812,19.017 14.4917,7.20399 28.74238,10.46637 45.71902,10.46637 17.02859,0 31.36685,-3.29324 45.73866,-10.50535 11.12686,-5.58372 17.45094,-10.08842 26.65047,-18.98337 6.85878,-6.631698 6.2537,-6.968532 7.29375,4.06028 1.74241,18.47666 -3.10725,36.08066 -14.55799,52.84476 l -4.11496,6.02439 -0.53583,6.96583 c -1.81962,23.65527 -13.6794,41.72602 -34.14283,52.02343 -5.50516,2.77026 -13.65768,5.17516 -19.11551,5.63887 -2.27636,0.1934 -4.83115,0.42831 -5.6773,0.52201 -0.84615,0.0937 -4.03077,-0.044 -7.07692,-0.30596 z m -1.29483,-30.23892 c 3.40744,-1.95352 4.81128,-4.81147 4.52456,-9.2112 -0.1824,-2.79889 -0.61171,-4.00066 -2.07504,-5.80866 -3.4161,-4.2207 -6.05874,-5.91859 -9.67912,-6.21882 -7.30767,-0.60601 -11.9519,4.62116 -10.58403,11.91253 0.49285,2.6271 5.69361,8.55675 8.64692,9.85879 2.80083,1.23482 6.45406,1.02254 9.16671,-0.53264 z m 22.69921,0.55757 c 3.03106,-1.28143 8.27437,-7.18319 8.78099,-9.88372 1.36073,-7.25331 -3.27974,-12.51826 -10.50533,-11.91905 -3.59719,0.2983 -6.76573,2.36437 -9.87233,6.43734 -2.30155,3.01748 -2.75672,8.09087 -1.01197,11.27952 2.27348,4.15493 8.03162,6.0209 12.60864,4.08591 z m -51.28856,-43.98721 c 2.92325,-2.13886 4.03802,-4.28972 4.03802,-7.79101 0,-5.34759 -3.52799,-9.03672 -8.70218,-9.09963 -5.82452,-0.0708 -9.447063,3.41851 -9.447063,9.09963 0,4.00036 1.691315,6.78059 5.085033,8.35892 3.01528,1.40233 6.64558,1.17392 9.02619,-0.56791 z m 79.87146,0.53895 c 3.3931,-1.54029 5.08504,-4.31191 5.08504,-8.32996 0,-6.30831 -3.87111,-9.42318 -11.20475,-9.01588 -2.31981,0.12884 -5.86528,3.42886 -6.70882,6.24436 -1.78707,5.9647 2.6663,12.02507 8.99509,12.24097 0.67693,0.0231 2.40197,-0.48968 3.83344,-1.13949 z"
   style="fill:#ffffff;stroke-width:0.615385" /><path
   id="path4119"
   d="m 135.38462,111.40986 c -6.5321,-1.02971 -11.69119,-2.50593 -18.76924,-5.37064 C 102.6015,100.36737 89.140447,89.517447 81.044972,77.368659 l -2.16349,-3.246725 3.001839,-4.393344 c 6.210422,-9.089269 16.915282,-18.895189 26.445639,-24.224869 24.38765,-13.638347 54.33905,-13.638347 78.7267,0 9.53035,5.32968 20.23521,15.1356 26.44563,24.224869 l 3.00184,4.393344 -2.16349,3.246725 c -8.09083,12.14182 -21.52939,22.976601 -35.57041,28.678501 -14.1393,5.7418 -29.1833,7.60136 -43.38461,5.3627 z"
   style="fill:#ffffff;stroke-width:0.615385" /><path
   id="path4121"
   d="m 45.846154,152.13796 c -5.801038,-1.98501 -9.624792,-4.41738 -14.159195,-9.00695 -2.745447,-2.77886 -4.707313,-5.50588 -6.236964,-8.66947 -2.884592,-5.96586 -3.672856,-9.42452 -3.662293,-16.06906 0.01795,-11.28989 5.475658,-21.587159 14.978717,-28.260897 3.97319,-2.790263 12.267023,-6.226347 13.076044,-5.417325 0.182647,0.182647 -0.35127,3.212042 -1.186483,6.731991 -4.36965,18.415611 -3.552398,37.426261 2.397756,55.775821 l 2.048197,6.31639 -1.627889,-0.0159 c -0.89534,-0.009 -3.42789,-0.63182 -5.62789,-1.38462 z"
   style="fill:#ffffff;stroke-width:0.615385" /><path
   id="path4123"
   d="m 242.3694,152.76923 c 0.17497,-0.42308 1.1923,-3.4 2.26073,-6.61538 5.63756,-16.9659 6.39497,-36.59917 2.10886,-54.664649 -0.82952,-3.496324 -1.50822,-6.504066 -1.50822,-6.683871 0,-0.712345 4.82233,0.623762 8.4185,2.332485 17.91093,8.510392 25.30075,30.729955 16.02384,48.180225 -2.55163,4.79972 -7.97389,10.56541 -12.49866,13.29029 -5.98603,3.60487 -15.70469,6.33626 -14.80505,4.1609 z"
   style="fill:#ffffff;stroke-width:0.615385" /><path
   id="path4125"
   d="m 425.89976,249.20185 c -7.91888,-12.20493 -16.85323,-23.34838 -27.9201,-34.8236 l -6.32803,-6.56153 0.19946,-59.90836 c 0.22323,-67.044476 -0.0986,-62.183575 4.78114,-72.216052 4.99488,-10.269238 12.48423,-17.881662 22.44469,-22.813547 8.49976,-4.208621 14.19768,-5.404888 23.97334,-5.033155 6.80027,0.258589 8.84445,0.585636 13.37899,2.140494 7.8285,2.684328 13.52628,6.299462 19.57075,12.417267 8.45435,8.556928 13.00165,18.214581 14.15404,30.060707 0.76426,7.856266 0.77726,48.041246 0.017,52.683286 -1.12144,6.84774 -4.71195,11.8594 -10.78647,15.05589 -2.57031,1.35253 -3.88749,1.62107 -8,1.63101 -4.15247,0.01 -5.46834,-0.25587 -8.40648,-1.69874 -4.01143,-1.96993 -7.46728,-5.51574 -9.35516,-9.59866 -1.26372,-2.73304 -1.32735,-3.90603 -1.62298,-29.92148 -0.32902,-28.953426 -0.32936,-28.956571 -3.49798,-31.824132 -1.68417,-1.524153 -5.38602,-2.945094 -7.67258,-2.945094 -2.78138,0 -7.02834,2.211004 -8.6713,4.514356 l -1.38891,1.947182 -0.30769,81.725368 -0.30769,81.72536 z"
   style="fill:#ffffff;stroke-width:0.615385" /><path
   id="path4127"
   d="m 284.85425,442.64009 c -4.203,-3.87419 -6.00931,-7.81728 -6.00178,-13.10163 0.0101,-7.1146 3.78891,-12.96769 10.3783,-16.07532 3.47483,-1.63878 10.23349,-1.97543 16.47922,-0.82085 1.91096,0.35327 7.43105,1.16982 12.26686,1.81457 8.24151,1.09883 8.87884,1.28029 10.17234,2.89617 l 1.37995,1.72389 -5.37995,0.44948 c -14.81184,1.23748 -26.95723,8.99144 -33.2329,21.2168 -1.2655,2.46526 -2.51478,4.48348 -2.77619,4.48493 -0.26141,10e-4 -1.74004,-1.16317 -3.28585,-2.58804 z"
   style="fill:#ffffff;stroke-width:0.615385" /><path
   id="path4129"
   d="m 154.83191,364.92405 v -33.80819 l 1.83576,1.8388 c 1.00967,1.01134 2.4538,2.43649 3.20918,3.167 l 1.37342,1.3282 v 30.64119 30.64118 h -3.20918 -3.20918 z"
   style="fill:#ffffff;stroke-width:0.0543928" /><path
   id="path4131"
   d="m 134.03463,230.67847 c -26.00836,-6.58633 -46.239684,-31.0938 -46.304253,-56.09127 -0.01169,-4.53274 -1.02942,-7.22016 -5.126953,-13.53846 -6.718004,-10.35901 -10.750634,-19.60131 -12.83732,-29.42158 -1.743956,-8.20733 -2.124183,-24.23483 -0.695333,-29.30997 0.801805,-2.847943 0.802574,-2.847764 4.492701,1.05157 10.366474,10.9542 27.075048,21.1058 43.690758,26.54512 9.56162,3.13009 12.10257,3.43048 29.53846,3.49206 16.28935,0.0575 20.47956,-0.33915 28.67592,-2.7147 16.68312,-4.83526 30.96907,-13.04319 42.96952,-24.68797 7.60021,-7.374937 7.81729,-7.319214 8.72374,2.23927 1.55269,16.37313 -4.0455,37.38874 -13.74491,51.59838 -3.36689,4.93249 -5.09303,8.80734 -5.10717,11.46463 -0.0721,13.5457 -6.91134,30.76846 -16.30142,41.05079 -14.61525,16.00402 -37.97482,23.38662 -57.97374,18.32213 z m 5.47411,-27.6667 c 0.62156,0 2.2378,-1.10769 3.59164,-2.46154 6.43646,-6.43645 -0.64902,-19.93846 -10.46314,-19.93846 -3.70863,0 -5.49261,0.76241 -7.64837,3.26863 -3.46045,4.02301 -3.548,7.18771 -0.34236,12.37455 2.62165,4.24192 9.3597,8.33673 12.093,7.34909 0.90152,-0.32575 2.14767,-0.59227 2.76923,-0.59227 z m 29.13011,-4.4069 c 6.31022,-6.5821 5.24369,-14.98372 -2.23296,-17.5901 -5.16364,-1.80005 -11.37101,0.83839 -14.65857,6.23063 -3.00284,4.92525 -3.14209,8.13824 -0.51524,11.88859 4.31803,6.16485 11.18954,5.95597 17.40677,-0.52912 z m -54.40614,-41.19278 c 3.30679,-3.65397 3.01528,-10.73994 -0.56098,-13.63581 -4.24394,-3.43653 -10.4551,-3.00596 -13.55894,0.93993 -3.236394,4.11441 -3.236394,7.86133 0,11.97574 3.27451,4.16285 10.66327,4.5397 14.11992,0.72014 z m 80.55998,0.0612 c 1.52382,-1.52381 2.46154,-4.10256 2.46154,-6.76923 0,-8.4184 -9.41968,-12.373 -15.61298,-6.55469 -6.1939,5.81887 -2.16431,15.78546 6.38221,15.78546 2.66667,0 5.24542,-0.93773 6.76923,-2.46154 z"
   style="fill:#ffffff;stroke-width:1.23077" /></svg>
