<svg xmlns="http://www.w3.org/2000/svg" viewBox="0 0 512 512" xmlns:v="https://vecta.io/nano"><path d="M353.965 241.487a231.36 231.36 0 0 0-9.51-8.404l-4.976-4.05c-8.413-6.66-17.415-12.873-26.9-18.57a10.57 10.57 0 0 0-4.997-1.502 10.66 10.66 0 0 0-4.011.604 10.6 10.6 0 0 0-1.849.863 10.5 10.5 0 0 0-1.667 1.217c-.778.695-1.466 1.517-2.03 2.457-.377.63-.68 1.28-.915 1.946-1.64 4.657.154 9.974 4.554 12.6 13.92 8.35 26.65 17.876 37.832 28.327 13.622 12.73 24.666 26.64 31.912 40.22a10.56 10.56 0 0 0 3.98 4.147c1.63.957 3.494 1.465 5.388 1.465a10.56 10.56 0 0 0 4.986-1.252c5.177-2.758 7.13-9.188 4.36-14.354-5.813-10.9-13.376-21.564-22.583-31.884-4.185-4.7-8.7-9.3-13.563-13.84zm87.113-215.6c-39.116 0-70.933 31.817-70.933 70.923v92.905c-10.015-7.914-20.7-15.277-31.934-22.014-15.797-9.474-32.135-17.378-48.728-23.584a56.7 56.7 0 0 0 5.931-25.271c0-31.276-25.45-56.727-56.727-56.727a54.61 54.61 0 0 0-4.212.17c-18.396-30.247-50.988-48.74-86.773-48.74-35.806 0-68.387 18.492-86.783 48.728a59.4 59.4 0 0 0-4.19-.16C25.45 62.127 0 87.58 0 118.855c0 31.287 25.45 56.727 56.727 56.727a55.26 55.26 0 0 0 8.86-.7c.032.042.053.096.085.138.965 26.173 14.556 50.532 36.24 65.15 4.52 21.75 15.394 44.474 31.658 66.2v121.634c0 11.416 4.445 22.14 12.52 30.226a43 43 0 0 0 17.198 10.47c5.517 17.23 21.685 29.738 40.718 29.738 23.563 0 42.744-19.18 42.744-42.745v-61.64c7.044 3.098 14.13 5.888 21.23 8.35-6.726 7.066-10.874 16.603-10.874 27.107s4.085 20.37 11.522 27.807c5.326 5.315 11.904 8.912 19.065 10.524 1.613 7.172 5.2 13.76 10.535 19.075 7.426 7.426 17.304 11.5 27.807 11.5h68.8c30.67 0 55.624-24.942 55.624-55.507l1.2-264.222a40.47 40.47 0 0 0 19.553 5.018c22.48 0 40.77-18.3 40.77-40.77V96.82C512 57.714 480.184 25.897 441.08 25.897zm-419.86 92.958c0-17.643 12.943-32.326 29.833-35.053-3.268 10.1-4.965 20.72-4.965 31.36a101.01 101.01 0 0 0 7.861 39.084c-18.28-1.422-32.73-16.752-32.73-35.392zM244.34 83.802c16.9 2.716 29.854 17.4 29.854 35.053 0 8.774-3.215 17.198-9.05 23.712a35.55 35.55 0 0 1-23.712 11.681c1.422-3.384 2.674-6.843 3.713-10.386 2.758-9.283 4.148-18.937 4.148-28.698.002-10.642-1.695-21.262-4.953-31.362zM147.7 34.777c28.698 0 54.797 15.033 69.236 39.54-14.906 23.818-40.952 38.395-69.225 38.395-28.327 0-54.383-14.577-69.278-38.373C92.883 49.82 118.98 34.777 147.7 34.777zM86.836 172.283a11.74 11.74 0 0 0 .032-.859c0-2.387-.806-4.7-2.28-6.578a79.65 79.65 0 0 1-5.294-7.564c-7.84-12.646-11.988-27.213-11.988-42.12 0-5.994.647-11.86 1.92-17.57a102.76 102.76 0 0 0 78.487 36.336c30.597 0 59.104-13.548 78.444-36.368a80.83 80.83 0 0 1 1.92 17.601c0 7.724-1.093 15.352-3.268 22.682l-.01.01c-2.886 9.803-7.596 18.884-14.004 27-1.475 1.878-2.28 4.2-2.28 6.578 0 .318.02.626.042.944-.17 33.42-27.404 60.557-60.854 60.557-10.874 0-21.537-2.896-30.84-8.38-18.448-10.875-29.938-30.873-30.023-52.26zM161.26 443.37c-.053-.053-.106-.095-.16-.15-4.074-4.063-6.313-9.463-6.313-15.214v-97a260.37 260.37 0 0 0 6.472 6.387V443.37zm127.682 2.6a17.97 17.97 0 0 1-5.326-3.67c-3.416-3.416-5.294-7.957-5.294-12.795 0-9.973 8.116-18.1 18.1-18.1h4.106c8.477 1.75 25.802 3.8 26.12 3.8h.17c1.326 1.58 2.727 3.12 4.2 4.583h-4.965c-17.2.001-31.723 10.833-37.1 26.163zm140.306-3.162c0 18.97-15.436 34.395-34.406 34.395h-68.8a17.97 17.97 0 0 1-12.805-5.305c-3.416-3.406-5.294-7.946-5.294-12.784 0-.2 0-.382.01-.583.308-9.814 8.254-17.505 18.1-17.505l55.974-.02c5.856 0 10.6-4.753 10.6-10.6a10.61 10.61 0 0 0-10.609-10.609c-28.06 0-50.892-22.83-50.892-50.892 0-5.856-4.753-10.6-10.6-10.6a10.61 10.61 0 0 0-10.609 10.609c0 7.416 1.125 14.566 3.215 21.303h-10.397c-18.524-4-37.46-10.588-55.964-19.5V328.95a10.61 10.61 0 0 0-10.609-10.609 10.6 10.6 0 0 0-10.609 10.609v126.748c0 11.86-9.665 21.526-21.526 21.526-11.872 0-21.526-9.665-21.526-21.526V309.46a10.61 10.61 0 0 0-10.609-10.609c-5.07 0-9.294 3.543-10.355 8.286-3.14-3.554-6.122-7.16-8.944-10.8-11.458-14.8-20.05-29.992-25.4-44.803 6.673 1.72 13.57 2.62 20.54 2.62 44.262 0 80.46-35.233 82.02-79.123.032-.042.053-.085.085-.127a56.81 56.81 0 0 0 8.88.7c13.696 0 26.873-4.976 37.122-13.834 17.516 6.047 34.8 14.153 51.497 24.157 16.922 10.153 32.464 21.802 46.214 34.64 34.544 32.273 55.56 70.403 56.876 102.835L429.25 442.83zm61.534-299.87c0 10.78-8.774 19.553-19.553 19.553s-19.542-8.774-19.542-19.553l-.01.01V96.82a10.61 10.61 0 0 0-10.609-10.609c-5.856 0-10.6 4.753-10.6 10.6v160.2c-9.888-16.763-23.054-33.28-39.095-48.78V96.82c0-27.404 22.3-49.704 49.715-49.704 27.404 0 49.704 22.3 49.704 49.704v46.128zm-383.522-1.146a9.013 9.013 0 1 0 0 18.025 9.013 9.013 0 1 0 0-18.025zm80.905 0a9.013 9.013 0 1 0 0 18.025 9.013 9.013 0 0 0 0-18.025z"/><path d="M142.62 186.817l-3.3-3.3c-3.734-3.734-9.77-3.734-13.505 0-3.724 3.724-3.724 9.77 0 13.505l3.3 3.3c1.857 1.867 4.307 2.8 6.747 2.8s4.9-.934 6.747-2.8c3.735-3.723 3.735-9.77 0-13.505zm26.98-3.3c-3.724-3.734-9.77-3.734-13.506 0l-3.3 3.3a9.53 9.53 0 0 0 0 13.495 9.51 9.51 0 0 0 6.747 2.801 9.52 9.52 0 0 0 6.758-2.801l3.3-3.3c3.735-3.735 3.735-9.782.001-13.506zm220.5 103.694c-8.456-15.84-20.614-31.223-36.146-45.726-12.275-11.47-26.205-21.908-41.397-31.02a10.62 10.62 0 0 0-14.556 3.639c-3.013 5.03-1.4 11.543 3.64 14.556 13.92 8.35 26.65 17.876 37.832 28.327 13.622 12.73 24.666 26.64 31.912 40.22 1.9 3.575 5.58 5.612 9.368 5.612a10.56 10.56 0 0 0 4.986-1.252c5.18-2.758 7.13-9.187 4.362-14.354z"/><g fill="#fff"><path d="M323.68 476.644c-11.456-1.763-18.445-14.037-13.88-24.38 1.585-3.592 4.936-7.236 8.356-9.087 2.413-1.306 3.103-1.34 34.77-1.64 31.2-.297 32.382-.35 34.46-1.572 3.957-2.324 6.13-7.1 5.286-11.6-1-5.376-5.918-8.992-12.2-8.992-8.297 0-18.692-3.397-26.616-8.696-13.397-8.96-22.43-25.6-22.454-41.365-.018-11.774-15.24-15.603-20.675-5.2-1.275 2.44-1.093 11.946.363 18.954l1.223 6.308c.004.254-2.226.462-4.957.462-9.484 0-31.32-6.578-52.307-15.757l-7.96-3.48-.013-21.92c-.012-20.006-.113-22.14-1.153-24.43-3.727-8.206-15.13-8.256-19.597-.086-1 1.846-1.103 6.573-1.4 69.673l-.308 67.692-1.723 3.5c-2.158 4.394-6.787 8.633-11.253 10.304-4.558 1.705-10.762 1.7-15.38-.038-4.757-1.78-10.102-7.124-11.882-11.882-1.298-3.47-1.3-3.662-1.328-78.378l-.545-77.582c-1.9-9.783-14.898-12.06-20.057-3.513l-1.38 2.285-5.358-6.66c-6.644-8.26-15.018-20.7-19.408-28.814-2.92-5.405-8.75-18.235-8.423-18.537.066-.06 2.197.322 4.735.85 3.072.64 8.115.973 15.077.998 11.38.04 18.527-1.087 27.642-4.363 24.753-8.894 44.2-29.632 51.53-54.948 1.337-4.62 2.974-14.087 2.98-17.23l.004-2.154 9.384-.013c7.913-.01 10.154-.234 14.296-1.422 6.492-1.862 13.88-5.407 18.637-8.942l3.856-2.866 6 2.234c46.375 17.298 90.444 49.507 117.92 86.187 16.404 21.9 26.928 45.195 29.417 65.118.5 4.088.527 22.25.063 68.935l-1.62 66.765c-3.5 11.916-12.407 20.842-24.4 24.433-2.944.88-8.105 1.03-39.995 1.16-20.138.08-38.006-.066-39.705-.328zm61.05-174.222c2.357-.9 5.1-3.546 6.116-5.94 2.044-4.776.584-8.95-7.327-20.946-13.92-21.108-34.618-41.397-58.926-57.763-12.292-8.275-13.405-8.85-17.168-8.85-6.446 0-10.56 3.655-10.976 9.752-.408 5.987.888 7.54 12.904 15.45 25.78 16.975 45.35 36.418 58.866 58.5 4.1 6.678 5.073 7.875 7.454 9.077 2.968 1.498 6.3 1.768 9.058.73zM142.154 232.23c-15.208-1.308-30.874-9.52-40.658-21.316-8.763-10.565-13.176-21.984-14.325-37.067l-.492-6.462-4.113-6.024c-6.513-9.54-9.803-16.6-12.427-26.7-2.16-8.312-2.923-17.72-2.125-26.184 1.04-11.014.44-10.685 7.294-4.007 9.096 8.862 15.672 13.552 26.666 19.017 14.492 7.204 28.742 10.466 45.72 10.466 17.03 0 31.367-3.293 45.74-10.505 11.127-5.584 17.45-10.088 26.65-18.983 6.86-6.632 6.254-6.97 7.294 4.06 1.742 18.477-3.107 36.08-14.558 52.845l-4.115 6.024-.536 6.966c-1.82 23.655-13.68 41.726-34.143 52.023-5.505 2.77-13.658 5.175-19.116 5.64l-5.677.522c-.846.094-4.03-.044-7.077-.306zM140.86 202c3.407-1.954 4.8-4.8 4.525-9.2-.182-2.8-.612-4-2.075-5.8-3.416-4.22-6.06-5.92-9.68-6.22-7.308-.606-11.952 4.62-10.584 11.913.493 2.627 5.694 8.557 8.647 9.86 2.8 1.235 6.454 1.023 9.167-.533zm22.7.558c3.03-1.28 8.274-7.183 8.78-9.884 1.36-7.253-3.28-12.518-10.505-11.92-3.597.298-6.766 2.364-9.872 6.437-2.302 3.017-2.757 8.1-1.012 11.28 2.273 4.155 8.032 6.02 12.6 4.086zm-51.3-43.987c2.923-2.14 4.038-4.3 4.038-7.8 0-5.348-3.528-9.037-8.702-9.1-5.825-.07-9.447 3.42-9.447 9.1 0 4 1.7 6.78 5.085 8.36 3.015 1.402 6.646 1.174 9.026-.568zm79.87.54c3.393-1.54 5.085-4.312 5.085-8.33 0-6.308-3.87-9.423-11.205-9.016-2.32.13-5.865 3.43-6.7 6.244-1.787 5.965 2.666 12.025 8.995 12.24.677.023 2.402-.5 3.833-1.14zm-56.755-47.71c-6.532-1.03-11.7-2.506-18.77-5.37-14.014-5.672-27.475-16.522-35.57-28.67l-2.163-3.247 3.002-4.393c6.2-9.1 16.915-18.895 26.446-24.225 24.388-13.638 54.34-13.638 78.727 0 9.53 5.33 20.235 15.136 26.446 24.225l3.002 4.393-2.163 3.247c-8.1 12.142-21.53 22.977-35.57 28.68-14.14 5.742-29.183 7.6-43.385 5.363zm-89.54 40.738c-5.8-1.985-9.625-4.417-14.16-9.007-2.745-2.78-4.707-5.506-6.237-8.67-2.885-5.966-3.673-9.425-3.662-16.07.018-11.3 5.476-21.587 14.98-28.26 3.973-2.8 12.267-6.226 13.076-5.417.183.183-.35 3.212-1.186 6.732-4.37 18.416-3.552 37.426 2.398 55.776l2.048 6.316-1.628-.016c-.895-.01-3.428-.632-5.628-1.385zm196.524.632c.175-.423 1.192-3.4 2.26-6.615 5.638-16.966 6.395-36.6 2.1-54.665l-1.508-6.684c0-.712 4.822.624 8.418 2.332 17.9 8.5 25.3 30.73 16.024 48.18-2.552 4.8-7.974 10.565-12.5 13.3-5.986 3.605-15.705 6.336-14.805 4.16zm183.53 96.432c-7.92-12.205-16.853-23.348-27.92-34.824l-6.328-6.562.2-59.908c.223-67.044-.1-62.184 4.78-72.216 4.995-10.27 12.484-17.882 22.445-22.814 8.5-4.2 14.198-5.405 23.973-5.033 6.8.26 8.844.586 13.38 2.14 7.83 2.684 13.526 6.3 19.57 12.417 8.454 8.557 13.002 18.215 14.154 30.06.764 7.856.777 48.04.017 52.683-1.12 6.848-4.712 11.86-10.786 15.056-2.57 1.353-3.887 1.62-8 1.63-4.152.01-5.468-.256-8.406-1.7-4-1.97-7.467-5.516-9.355-9.6-1.264-2.733-1.327-3.906-1.623-29.92-.33-28.953-.33-28.957-3.498-31.824-1.684-1.524-5.386-2.945-7.673-2.945-2.78 0-7.028 2.2-8.67 4.514l-1.4 1.947-.615 163.45zM284.854 442.64c-4.203-3.874-6-7.817-6.002-13.102.01-7.115 3.8-12.968 10.378-16.075 3.475-1.64 10.233-1.975 16.48-.82 1.9.353 7.43 1.17 12.267 1.815 8.242 1.1 8.88 1.28 10.172 2.896l1.38 1.724-5.38.45c-14.812 1.237-26.957 9-33.233 21.217-1.265 2.465-2.515 4.483-2.776 4.485s-1.74-1.163-3.286-2.588zm-130.022-77.716v-33.808l1.836 1.84 3.2 3.167 1.373 1.328v61.282h-6.418z"/><path d="M134.035 230.678c-26.008-6.586-46.24-31.094-46.304-56.09-.012-4.533-1.03-7.22-5.127-13.538-6.718-10.36-10.75-19.6-12.837-29.422-1.744-8.207-2.124-24.235-.695-29.3.802-2.848.803-2.848 4.493 1.052 10.366 10.954 27.075 21.106 43.69 26.545 9.562 3.13 12.103 3.43 29.538 3.492 16.29.058 20.48-.34 28.676-2.715 16.683-4.835 30.97-13.043 42.97-24.688 7.6-7.375 7.817-7.32 8.724 2.24 1.553 16.373-4.046 37.39-13.745 51.598-3.367 4.932-5.093 8.807-5.107 11.465-.072 13.546-6.91 30.768-16.3 41.05-14.615 16.004-37.975 23.387-57.974 18.322zm5.474-27.667c.622 0 2.238-1.108 3.592-2.462 6.436-6.436-.65-19.938-10.463-19.938-3.71 0-5.493.762-7.648 3.27-3.46 4.023-3.548 7.188-.342 12.375 2.622 4.242 9.36 8.337 12.093 7.35.902-.326 2.148-.592 2.77-.592zm29.13-4.407c6.3-6.582 5.244-14.984-2.233-17.6-5.164-1.8-11.37.838-14.66 6.23-3.003 4.925-3.142 8.138-.515 11.89 4.318 6.165 11.2 5.956 17.407-.53zm-54.406-41.193c3.307-3.654 3.015-10.74-.56-13.636-4.244-3.437-10.455-3.006-13.56.94-3.236 4.114-3.236 7.86 0 11.976 3.275 4.163 10.663 4.54 14.12.72zm80.56.06c1.524-1.524 2.462-4.103 2.462-6.77 0-8.418-9.42-12.373-15.613-6.555s-2.164 15.785 6.382 15.785c2.667 0 5.245-.938 6.77-2.462z"/></g></svg>