<?xml version="1.0" encoding="UTF-8" standalone="no"?>
<svg
   xmlns:dc="http://purl.org/dc/elements/1.1/"
   xmlns:cc="http://creativecommons.org/ns#"
   xmlns:rdf="http://www.w3.org/1999/02/22-rdf-syntax-ns#"
   xmlns:svg="http://www.w3.org/2000/svg"
   xmlns="http://www.w3.org/2000/svg"
   xmlns:sodipodi="http://sodipodi.sourceforge.net/DTD/sodipodi-0.dtd"
   xmlns:inkscape="http://www.inkscape.org/namespaces/inkscape"
   inkscape:version="1.0 (4035a4fb49, 2020-05-01)"
   sodipodi:docname="O.svg"
   version="1.1"
   viewBox="-60 -60 628 628"
   enable-background="new 0 0 512 512"
   id="Capa_1">
  <metadata
     id="metadata914">
    <rdf:RDF>
      <cc:Work
         rdf:about="">
        <dc:format>image/svg+xml</dc:format>
        <dc:type
           rdf:resource="http://purl.org/dc/dcmitype/StillImage" />
      </cc:Work>
    </rdf:RDF>
  </metadata>
  <defs
     id="defs912" />
  <sodipodi:namedview
     inkscape:current-layer="Capa_1"
     inkscape:window-maximized="0"
     inkscape:window-y="46"
     inkscape:window-x="0"
     inkscape:cy="359.46115"
     inkscape:cx="320.64886"
     inkscape:zoom="0.93567792"
     showgrid="false"
     id="namedview910"
     inkscape:window-height="1034"
     inkscape:window-width="1920"
     inkscape:pageshadow="2"
     inkscape:pageopacity="0"
     guidetolerance="10"
     gridtolerance="10"
     objecttolerance="10"
     borderopacity="1"
     bordercolor="#666666"
     pagecolor="#ffffff" />
  <g
     id="g907">
    <path
       id="path905"
       d="m388.947 67.395c-30.064-40.841-78.459-67.395-132.947-67.395-55.417 0-104.54 27.462-134.477 69.491-75.03 48.428-121.523 133.872-121.523 223.73v203.779c0 8.284 6.716 15 15 15 46.349 0 89.05-23.37 113.846-60.941l22.657 22.657c3.252 21.639 21.966 38.284 44.497 38.284 19.332 0 36.198-12.164 42.457-30.074.847.048 1.695.074 2.543.074 0 0 31.697-.026 32.544-.074 6.258 17.91 23.123 30.074 42.456 30.074 22.531 0 41.245-16.645 44.497-38.284l22.657-22.656c24.796 37.57 67.497 60.94 113.846 60.94 8.284 0 15-6.716 15-15v-212c0-90.792-48.652-172.071-123.053-217.605zm-358.947 413.555v-187.729c0-60.668 23.864-119.06 64.578-162.44-2.338 11.044-3.578 22.489-3.578 34.219v242c0 3.979 1.581 7.793 4.394 10.606l11.679 11.678c-16.188 28.051-44.761 47.116-77.073 51.666zm226-450.95c72.806 0 132.326 57.935 134.903 130.124-18.491-26.229-43.884-46.379-73.573-58.305-4.692-1.885-10.018-1.279-14.167 1.612-20.14 14.033-32.163 37.05-32.163 61.569 0 5.548.63 11.029 1.829 16.355-5.481-.887-11.101-1.355-16.829-1.355s-11.348.468-16.829 1.355c1.199-5.326 1.829-10.807 1.829-16.355 0-24.52-12.023-47.536-32.162-61.569-4.149-2.891-9.475-3.498-14.167-1.612-29.689 11.927-55.083 32.077-73.573 58.305 2.576-72.189 62.096-130.124 134.902-130.124zm-105 255v145.787l-30-30v-145.787c0-31.477 10.749-60.937 29.468-84.318l4.925 4.925c5.857 5.857 15.354 5.858 21.213 0 5.858-5.858 5.858-15.355 0-21.213l-4.885-4.885c7.947-6.323 16.671-11.825 26.098-16.325 8.361 8.372 13.181 19.794 13.181 31.816 0 14.312-6.911 27.907-18.488 36.366-24.013 17.555-41.512 48.952-41.512 83.634zm92.957 167 12.043-73.828 12.043 73.828zm12.043-182c-8.185 0-14.86-6.59-14.998-14.743 2.83-.341 7.537-.304 10.914-.278 2.673.021 5.495.021 8.168 0 3.374-.025 8.084-.063 10.914.278-.138 8.153-6.813 14.743-14.998 14.743zm75 197c0 8.271-6.729 15-15 15-6.79 0-12.668-4.489-14.458-10.976l-28.449-174.406c16.359-6.743 27.907-22.854 27.907-41.618 0-8.942-2.681-16.137-7.969-21.383-8.895-8.826-21.237-8.68-33.182-8.587-2.519.02-5.181.02-7.699 0-11.942-.097-24.286-.24-33.182 8.587-5.287 5.246-7.968 12.441-7.968 21.383 0 18.764 11.548 34.875 27.907 41.618l-28.449 174.406c-1.79 6.487-7.668 10.976-14.458 10.976-8.271 0-15-6.729-15-15v-182c0-41.355 33.645-75 75-75s75 33.645 75 75zm60-66.213-30 30v-145.787c0-34.523-17.37-65.985-41.512-83.634-11.576-8.459-18.488-22.054-18.488-36.366 0-12.022 4.82-23.443 13.18-31.817 9.427 4.5 18.152 10.003 26.098 16.325l-4.885 4.885c-5.858 5.858-5.858 15.355 0 21.213 5.857 5.857 15.355 5.858 21.213 0l4.925-4.925c18.72 23.382 29.469 52.842 29.469 84.319zm91 80.163c-32.313-4.55-60.885-23.615-77.072-51.665l11.679-11.678c2.812-2.814 4.393-6.628 4.393-10.607v-242c0-12.929-1.499-25.515-4.325-37.595 41.182 41.793 65.325 98.446 65.325 157.595z" />
  </g>
  <path
     transform="translate(-60,-60)"
     id="path916"
     d="m 90.877815,435.01014 c 0.235014,-104.6191 0.251223,-105.60489 1.902838,-115.72308 7.445037,-45.61001 25.829997,-85.81156 54.884647,-120.0137 2.93482,-3.45477 5.43712,-5.97814 5.56067,-5.6075 0.12354,0.37065 -0.36184,4.04746 -1.07863,8.17069 -1.19141,6.85338 -1.3273,18.52276 -1.58337,135.9685 -0.21226,97.35359 -0.0624,129.47849 0.61872,132.62816 0.81797,3.78251 1.54548,4.81551 8.08655,11.48219 l 7.18771,7.32574 -1.64703,2.79149 c -5.73244,9.71578 -17.83561,22.52956 -28.07187,29.72006 -13.02416,9.14887 -27.51066,15.30306 -42.703509,18.14139 l -3.393759,0.63402 z"
     style="fill:#ffffff;stroke-width:0.755716" />
  <path
     transform="translate(-60,-60)"
     id="path918"
     d="m 195.91937,474.77912 -14.54753,-14.56225 0.006,-76.32023 c 0.004,-47.2423 0.30172,-78.8999 0.78184,-83.09105 2.69776,-23.54988 10.63859,-44.50802 24.15313,-63.74711 l 3.882,-5.52635 3.26132,3.00618 c 4.70087,4.33311 7.48254,5.55266 12.66505,5.55266 8.70156,0 14.95203,-6.30445 14.95203,-15.08118 0,-4.9998 -1.36774,-8.06788 -5.31485,-11.92213 -1.64892,-1.61012 -2.99803,-3.17918 -2.99803,-3.4868 0,-0.81482 15.30104,-10.91642 20.54467,-13.5634 l 4.4777,-2.26033 1.50922,1.73237 c 12.00892,13.78457 14.52982,33.58934 6.33714,49.78622 -2.7368,5.41064 -7.50528,10.74284 -15.59447,17.43802 -19.46274,16.1087 -31.37707,35.57264 -37.39497,61.09057 -1.21912,5.16947 -1.37343,12.69606 -1.75478,85.59246 l -0.41813,79.92459 z"
     style="fill:#ffffff;stroke-width:0.755716" />
  <path
     transform="translate(-60,-60)"
     id="path920"
     d="m 300.5701,235.78339 c 1.81377,-14.11322 -0.49329,-30.08411 -6.09815,-42.21509 -5.3537,-11.58738 -15.33088,-23.6973 -24.61581,-29.87772 -3.73466,-2.48594 -4.55728,-2.72307 -9.44645,-2.72307 -4.76888,0 -6.20563,0.38749 -13.11588,3.53737 -23.83496,10.86462 -47.19392,29.51085 -62.53388,49.91751 l -3.47543,4.62334 0.47139,-4.10049 c 1.82579,-15.882 4.18584,-26.40822 8.32233,-37.11895 10.56211,-27.34879 28.04714,-49.09458 52.7174,-65.56361 7.11773,-4.75155 22.13563,-12.07345 30.39572,-14.819269 51.66809,-17.1755 108.03278,-1.906775 143.79344,38.952439 18.82296,21.50665 30.66869,49.00339 33.04963,76.71606 l 0.4545,5.29002 -1.74097,-2.26715 c -16.69646,-21.74275 -36.02236,-37.67836 -60.30991,-49.72993 -10.69128,-5.30505 -11.09736,-5.43734 -16.69037,-5.43734 -6.6595,0 -8.65445,1.06655 -17.46553,9.33753 -9.58451,8.99699 -16.80017,20.80089 -20.72482,33.90315 -1.62015,5.40879 -2.05478,8.66381 -2.34932,17.59446 -0.19878,6.02683 -0.0478,12.65824 0.33546,14.73646 l 0.69686,3.77858 h -16.12647 -16.12647 z"
     style="fill:#ffffff;stroke-width:0.755716" />
  <path
     transform="translate(-60,-60)"
     id="path922"
     d="m 249.31621,539.71387 c -3.72614,-1.96524 -6.34697,-5.34502 -7.51849,-9.69573 -0.52793,-1.96056 -0.70773,-34.31287 -0.5506,-99.07358 l 0.23331,-96.16237 2.06353,-7.53941 c 14.29886,-52.243 74.52457,-73.79574 116.9497,-41.85235 13.71323,10.32517 23.12046,24.27384 27.76968,41.17577 l 2.0521,7.46027 0.21679,96.94733 c 0.14827,66.30423 -0.0353,97.88347 -0.58072,99.90908 -3.8474,14.28814 -24.39808,13.73752 -27.92131,-0.7481 -0.45492,-1.8704 -6.93686,-40.9787 -14.40431,-86.90734 -7.46746,-45.92864 -13.71971,-84.09914 -13.8939,-84.82333 -0.23482,-0.97627 0.88578,-1.95219 4.33426,-3.77466 6.78874,-3.58777 14.73188,-11.80251 18.12879,-18.7487 4.05837,-8.29877 5.28932,-14.04014 4.87133,-22.72063 -0.29226,-6.06927 -0.72555,-8.05879 -2.63353,-12.09198 -4.2912,-9.07104 -11.8514,-14.21429 -23.13855,-15.74131 -7.35199,-0.99464 -31.65449,-1.02023 -38.428,-0.0405 -8.2992,1.20044 -13.30419,3.4855 -18.06754,8.24885 -5.08604,5.08604 -7.36802,10.48426 -7.98101,18.87978 -1.19815,16.40993 7.96264,33.38831 22.61074,41.90617 4.50583,2.62013 4.97267,3.11432 4.64038,4.91215 -0.2032,1.09942 -6.47073,39.57692 -13.92784,85.50556 -7.45711,45.92864 -13.91568,84.76656 -14.35238,86.30649 -2.42911,8.56573 -12.54558,12.84928 -20.47243,8.66851 z"
     style="fill:#ffffff;stroke-width:0.755716" />
  <path
     transform="translate(-60,-60)"
     id="path924"
     d="m 421.47398,411.43498 c -0.26628,-68.12772 -0.46221,-78.94051 -1.52595,-84.20995 -2.04135,-10.11223 -4.91338,-19.03183 -8.7406,-27.14555 -7.23594,-15.34018 -16.5445,-27.06278 -30.39907,-38.2826 -4.01592,-3.25221 -8.53146,-7.5884 -10.03452,-9.63598 -5.56531,-7.58148 -9.51535,-18.92901 -9.51535,-27.33539 0,-8.82444 4.52378,-21.16758 10.17351,-27.75848 l 2.74109,-3.19771 5.10025,2.56845 c 5.43746,2.73826 18.6107,11.29422 19.42981,12.61958 0.27018,0.43715 -0.89263,2.20841 -2.58403,3.93612 -1.69139,1.72772 -3.60146,4.40566 -4.2446,5.95097 -3.59365,8.63469 1.6905,18.94497 10.69979,20.87711 5.99479,1.28565 10.52034,-0.2365 15.79758,-5.31346 l 3.10595,-2.98806 2.27572,2.8874 c 10.80385,13.70771 20.26044,34.96729 24.51982,55.12357 l 1.73727,8.22111 0.21749,81.61732 0.2175,81.61733 -14.33309,14.30622 -14.33307,14.30622 z"
     style="fill:#ffffff;stroke-width:0.755716" />
  <path
     transform="translate(-60,-60)"
     id="path926"
     d="m 535.04693,539.18965 c -17.48424,-3.56056 -34.53562,-12.18214 -48.99377,-24.77241 -5.49478,-4.78489 -13.81694,-14.46242 -17.73813,-20.627 l -2.68847,-4.22661 6.02258,-5.97556 c 3.48804,-3.4608 6.81465,-7.58825 7.9047,-9.80766 l 1.88213,-3.8321 -0.26841,-131.44107 c -0.28027,-137.25587 -0.20071,-133.59077 -3.20035,-147.42737 -0.42234,-1.94812 -0.10269,-1.75907 3.39106,2.00557 30.42169,32.78051 51.20853,75.86953 57.85274,119.92288 2.41701,16.02557 2.70695,31.15438 2.48272,129.54382 l -0.22321,97.94564 z"
     style="fill:#ffffff;stroke-width:0.755716" />
  <path
     transform="translate(-60,-60)"
     id="path928"
     d="m 304.55355,511.30876 c 0,-1.73818 10.70242,-66.35092 11.19185,-67.56754 0.45728,-1.1367 11.5908,64.00538 11.50433,67.31173 -0.0297,1.13507 -22.69618,1.39055 -22.69618,0.25581 z"
     style="fill:#ffffff;stroke-width:0.755716" />
  <path
     transform="translate(-60,-60)"
     id="path930"
     d="m 313.14622,329.45383 c -6.0225,-1.35675 -10.62963,-6.06409 -11.64784,-11.90118 -0.25108,-1.43938 -0.22939,-2.06009 0.0761,-2.17732 0.23502,-0.0902 6.88815,-0.11938 14.78473,-0.0649 l 14.35741,0.0991 -0.1106,1.41518 c -0.62595,8.00957 -9.49357,14.42373 -17.4598,12.6291 z"
     style="fill:#ffffff;stroke-width:0.377858" />
</svg>
