<svg xmlns="http://www.w3.org/2000/svg" viewBox="-60 -60 628 628" xmlns:v="https://vecta.io/nano"><path d="M388.947 67.395C358.883 26.554 310.488 0 256 0c-55.417 0-104.54 27.462-134.477 69.49C46.493 117.92 0 203.363 0 293.22V497c0 8.284 6.716 15 15 15 46.35 0 89.05-23.37 113.846-60.94l22.657 22.657C154.755 495.355 173.47 512 196 512c19.332 0 36.198-12.164 42.457-30.074.847.048 1.695.074 2.543.074l32.544-.074C279.802 499.836 296.667 512 316 512c22.53 0 41.245-16.645 44.497-38.284l22.657-22.656C407.95 488.63 450.65 512 497 512c8.284 0 15-6.716 15-15V285c0-90.792-48.652-172.07-123.053-217.605zM30 480.95V293.22c0-60.668 23.864-119.06 64.578-162.44A165.07 165.07 0 0 0 91 165v242a15 15 0 0 0 4.394 10.606l11.68 11.678C90.885 457.335 62.312 476.4 30 480.95zM256 30c72.806 0 132.326 57.935 134.903 130.124-18.49-26.23-43.884-46.38-73.573-58.305a15 15 0 0 0-14.167 1.612C283.023 117.464 271 140.48 271 165c0 5.548.63 11.03 1.83 16.355-5.48-.887-11.1-1.355-16.83-1.355s-11.348.468-16.83 1.355c1.2-5.326 1.83-10.807 1.83-16.355 0-24.52-12.023-47.536-32.162-61.57-4.15-2.89-9.475-3.498-14.167-1.612-29.69 11.927-55.083 32.077-73.573 58.305C123.674 87.935 183.194 30 256 30zM151 285v145.787l-30-30V255c0-31.477 10.75-60.937 29.468-84.318l4.925 4.925c5.857 5.857 15.354 5.858 21.213 0s5.858-15.355 0-21.213l-4.885-4.885c7.947-6.323 16.67-11.825 26.098-16.325C206.18 141.556 211 152.978 211 165c0 14.312-6.91 27.907-18.488 36.366C168.5 218.92 151 250.318 151 285zm92.957 167L256 378.172 268.043 452zM256 270c-8.185 0-14.86-6.6-14.998-14.743 2.83-.34 7.537-.304 10.914-.278h8.168c3.374-.025 8.084-.063 10.914.278C270.86 263.4 264.185 270 256 270zm75 197a15.02 15.02 0 0 1-15 15c-6.8 0-12.668-4.49-14.458-10.976l-28.45-174.406C289.452 289.875 301 273.764 301 255c0-8.942-2.68-16.137-7.97-21.383-8.895-8.826-21.237-8.68-33.182-8.587h-7.7c-11.942-.097-24.286-.24-33.182 8.587C213.68 238.863 211 246.058 211 255c0 18.764 11.548 34.875 27.907 41.618l-28.45 174.406C208.668 477.51 202.8 482 196 482a15.02 15.02 0 0 1-15-15V285c0-41.355 33.645-75 75-75s75 33.645 75 75zm60-66.213l-30 30V285c0-34.523-17.37-65.985-41.512-83.634C307.912 192.907 301 179.312 301 165c0-12.022 4.82-23.443 13.18-31.817a135.99 135.99 0 0 1 26.098 16.325l-4.885 4.885c-5.858 5.858-5.858 15.355 0 21.213s15.355 5.858 21.213 0l4.925-4.925C380.25 194.063 391 223.523 391 255zm91 80.163c-32.313-4.55-60.885-23.615-77.072-51.665l11.68-11.678C419.42 414.793 421 410.98 421 407V165a164.88 164.88 0 0 0-4.325-37.595C457.857 169.198 482 225.85 482 285z"/><path d="M30.878 375l1.903-115.723c7.445-45.6 25.83-85.812 54.885-120.014 2.935-3.455 5.437-5.978 5.56-5.607s-.362 4.047-1.08 8.17c-1.2 6.853-1.327 18.523-1.583 135.97l.62 132.628c.818 3.783 1.545 4.816 8.087 11.482l7.188 7.326-1.647 2.8c-5.732 9.716-17.836 22.53-28.072 29.72-13.024 9.15-27.5 15.303-42.704 18.14l-3.394.634zm105.042 39.78l-14.548-14.562.006-76.32.782-83.1c2.698-23.55 10.64-44.508 24.153-63.747l3.882-5.526 3.26 3.006c4.7 4.333 7.483 5.553 12.665 5.553 8.702 0 14.952-6.304 14.952-15.08 0-5-1.368-8.068-5.315-11.922-1.65-1.6-2.998-3.18-2.998-3.487 0-.815 15.3-10.916 20.545-13.563l4.478-2.26 1.5 1.732c12 13.785 14.53 33.6 6.337 49.786-2.737 5.4-7.505 10.743-15.594 17.438-19.463 16.1-31.377 35.573-37.395 61.1-1.22 5.17-1.373 12.696-1.755 85.592l-.418 79.925zm104.65-238.997c1.814-14.113-.493-30.084-6.098-42.215-5.354-11.587-15.33-23.697-24.616-29.878-3.735-2.486-4.557-2.723-9.446-2.723-4.77 0-6.206.387-13.116 3.537-23.835 10.865-47.194 29.5-62.534 49.918l-3.475 4.623.47-4.1c1.826-15.882 4.186-26.408 8.322-37.12 10.562-27.35 28.047-49.095 52.717-65.564 7.118-4.752 22.136-12.073 30.396-14.82 51.668-17.175 108.033-1.907 143.793 38.952 18.823 21.507 30.67 49.003 33.05 76.716l.454 5.3-1.74-2.267c-16.696-21.743-36.022-37.678-60.3-49.73-10.7-5.305-11.097-5.437-16.7-5.437-6.66 0-8.654 1.067-17.466 9.338-9.585 8.997-16.8 20.8-20.725 33.903-1.62 5.4-2.055 8.664-2.35 17.594-.2 6.027-.048 12.658.335 14.736l.697 3.78h-32.253zm-51.254 303.93c-3.726-1.965-6.347-5.345-7.518-9.696-.528-1.96-.708-34.313-.55-99.074l.233-96.162 2.064-7.54c14.3-52.243 74.525-73.796 116.95-41.852 13.713 10.325 23.12 24.274 27.77 41.176l2.052 7.46.217 96.947-.58 99.9c-3.847 14.288-24.398 13.738-27.92-.748-.455-1.87-6.937-40.98-14.404-86.907l-13.894-84.823c-.235-.976.886-1.952 4.334-3.775 6.8-3.588 14.732-11.803 18.13-18.75 4.058-8.3 5.3-14.04 4.87-22.72-.292-6.07-.726-8.06-2.634-12.092-4.3-9.07-11.85-14.214-23.14-15.74-7.352-.995-31.654-1.02-38.428-.04-8.3 1.2-13.304 3.486-18.068 8.25-5.086 5.086-7.368 10.484-7.98 18.88-1.198 16.4 7.963 33.388 22.6 41.906 4.506 2.62 4.973 3.114 4.64 4.912-.203 1.1-6.47 39.577-13.928 85.506L209.8 471.048c-2.43 8.566-12.546 12.85-20.472 8.67zm172.158-128.28l-1.526-84.2c-2.04-10.112-4.913-19.032-8.74-27.146-7.236-15.34-16.544-27.063-30.4-38.283-4.016-3.252-8.53-7.588-10.035-9.636-5.565-7.58-9.515-18.93-9.515-27.335 0-8.824 4.524-21.168 10.174-27.758l2.74-3.198 5.1 2.568c5.437 2.738 18.6 11.294 19.43 12.62.27.437-.893 2.208-2.584 3.936s-3.6 4.406-4.245 5.95c-3.594 8.635 1.7 18.945 10.7 20.877 5.995 1.286 10.52-.237 15.798-5.313l3.106-2.988 2.276 2.887c10.804 13.708 20.26 34.967 24.52 55.124l1.737 8.22.435 163.235L361.78 429.6zM475.047 479.2c-17.484-3.56-34.536-12.182-48.994-24.772-5.495-4.785-13.817-14.462-17.738-20.627l-2.688-4.227 6.023-5.976c3.488-3.46 6.815-7.588 7.905-9.808l1.882-3.832-.268-131.44c-.28-137.256-.2-133.6-3.2-147.427-.422-1.948-.103-1.76 3.4 2.006 30.422 32.78 51.2 75.87 57.853 119.923 2.417 16.026 2.707 31.154 2.483 129.544l-.223 97.946zm-230.493-27.9c0-1.738 10.702-66.35 11.192-67.568.457-1.137 11.6 64.005 11.504 67.312-.03 1.135-22.696 1.4-22.696.256zm8.592-181.856c-6.022-1.357-10.63-6.064-11.648-11.9-.25-1.44-.23-2.06.076-2.177.235-.1 6.888-.12 14.785-.065l14.357.1-.1 1.415c-.626 8-9.494 14.424-17.46 12.63z" fill="#fff"/></svg>