<svg xmlns="http://www.w3.org/2000/svg" height="512" width="512" xmlns:v="https://vecta.io/nano"><path d="M248.672 23.266l-64 32 61.566 15.4V87h19.524V23.266h-17.1zM146.334 105c13.692 21.145 20.243 47.388 20.164 73.742-.08 26.744-6.98 53.7-20.805 75.793h234.23c16.93-18.827 26.4-46.276 26.677-74.15.267-27.947-8.674-55.727-26.647-75.385h-233.62zM416 155.244L441 231h62v-14h-39v-18h39v-1.438l-32-16v-15.076l-55-11.242zm-371.492 6.6c-6.67.12-13.668 2.495-18.922 7.833-9.12 9.27-9.382 21.518-7.256 29.637s6.344 13.905 6.344 13.905l14.652-10.46s-2.4-3.5-3.584-8.006-1.444-8.27 2.672-12.452c1.932-1.962 4.236-2.685 7.53-2.43s7.228 1.863 10.148 4.263 4.68 5.353 5.068 8.025-.034 5.552-3.86 9.822l-.06.065-.054.064c-19.097 22.143-25.463 40.5-25.323 78.704s.465 69.313 40.77 97.133l-56.87 48.746 11.714 13.666 61.35-52.585c2.307 1.25 4.674 2.5 7.173 3.75l22.164 2.2-38.45 32.958 11.714 13.666 51.55-44.186 32.77 3.06-32.035 27.46 11.715 13.665L201 401.297c12.314.895 23.462 1.514 34.158 1.87L207.713 426.7l11.715 13.666 43.027-36.882c12.13-.13 24.454-.622 38.07-1.482L271.713 426.7l11.715 13.666 47.427-40.653 43.473-4.053-37.316 30.943 11.5 13.858 57.848-47.967 9.65-.963c50.065-50.065 60.964-100.13 63.338-142.535H441.68c-13.08 22.76-22.973 42.718-48.78 57.828 3.594 6.1 5.67 13.167 5.67 20.707 0 22.537-18.463 41-41 41-12.906 0-24.468-6.062-32-15.47-7.53 9.408-19.094 15.47-32 15.47s-24.468-6.062-32-15.47c-7.53 9.408-19.094 15.47-32 15.47-14.623 0-27.523-7.777-34.785-19.392-7.262 11.615-20.162 19.392-34.785 19.392-22.537 0-41-18.463-41-41 0-.17.012-.338.014-.508-29.774-3.4-49.577-21.213-64.58-42.46-5.57-7.888-4.7-17.596-4.704-25.907-.005-11.62 3.798-24.738 21.084-44.78l-.113.128c6.645-7.412 9.443-16.4 8.275-24.428s-5.742-14.646-11.455-19.342-12.713-7.72-20.18-8.3a29.26 29.26 0 0 0-2.832-.084zm201.73 110.68v17.6a41.43 41.43 0 0 1 15.332 11.88 41.79 41.79 0 0 1 4.192-4.49v-24.98h-19.524zm-86.238 32c-12.8 0-23 10.192-23 23a22.86 22.86 0 0 0 23 23 22.86 22.86 0 0 0 23-23c0-12.808-10.2-23-23-23zm69.57 0c-12.8 0-23 10.192-23 23a22.86 22.86 0 0 0 23 23 22.86 22.86 0 0 0 23-23c0-12.808-10.2-23-23-23zm64 0c-12.8 0-23 10.192-23 23a22.86 22.86 0 1 0 46 0c0-12.808-10.2-23-23-23zm64 0c-12.8 0-23 10.192-23 23a22.86 22.86 0 1 0 46 0c0-12.808-10.2-23-23-23z" fill="#fff" fill-rule="evenodd" stroke="#000" stroke-width="8" stroke-linejoin="round"/></svg>