<svg xmlns="http://www.w3.org/2000/svg" viewBox="0 0 11.906 11.906" xmlns:v="https://vecta.io/nano"><style><![CDATA[.B{stroke:#303042}.C{stroke-width:1.5}.D{stroke-linejoin:round}.E{stroke-linecap:round}]]></style><g transform="matrix(.299863 0 0 .299863 -.648236 -.94396)"><g fill="#fff" fill-rule="evenodd" class="B C E"><path d="M22 10c10.5 1 16.5 8 16 29H15c0-9 10-6.5 8-21"/><path d="M24 18c.384 2.91-5.553 7.37-8 9-3 2-2.82 4.343-5 4-1.042-.944 1.413-3.038 0-3-1 0 .187 1.232-1 2-1 0-4.003 1-4-4 0-2 6-12 6-12s1.886-1.902 2-3.5c-.726-.994-.5-2-.5-3 1-1 3 2.5 3 2.5h2s.782-1.992 2.5-3c1 0 1 3 1 3" class="D"/></g><g fill="#2b2b3c" class="B C D"><circle cx="9" cy="25.5" r=".5"/><ellipse transform="rotate(30 14.5 15.5)" cx="14.5" cy="15.5" rx=".5" ry="1.5"/></g><path d="M37 39c1-20-5.5-27.5-12-28.5" fill="none" class="B E"/><path d="M13.57 17.5c-.903-.34-.85-1.578.127-3.02.26-.382.64-.75.93-.9.27-.14.8-.126 1.036.027.597.37.53 1.445-.164 2.606-.56.938-1.388 1.5-1.928 1.288zM8.6 26.65c-.825-.294-1.094-1.3-.523-1.95.248-.283.512-.396.92-.396.695 0 1.186.492 1.186 1.187 0 .568-.28.97-.806 1.154-.33.116-.464.117-.78.005h0zm5.65 12.514c.006-2.175.467-3.805 1.526-5.4.517-.774 1.07-1.386 2.88-3.2 1.578-1.573 2.242-2.445 2.84-3.73.474-1.02.805-2.285.936-3.58l.04-.645c-.013-.013-.144.1-.293.27-.378.4-1.895 1.776-2.68 2.412l-2.666 2c-1.483 1.043-1.86 1.4-2.96 2.868-.863 1.145-1.394 1.5-2.32 1.55-.328.017-.628-.001-.765-.046-.26-.086-.64-.5-.697-.758l-.04-.178-.886.038c-.714.03-.965.017-1.292-.066-1.217-.3-2.018-1.172-2.37-2.547-.16-.628-.277-1.862-.224-2.364.1-.842.575-2.044 1.816-4.502l3.342-6.1c.63-1.088 1.004-1.654 1.486-2.25.64-.792 1.262-1.864 1.262-2.18 0-.073-.067-.284-.148-.47-.23-.52-.3-.92-.3-1.935 0-1.097.052-1.28.44-1.535s.927-.28 1.402-.062c.552.253 1.412 1.136 2.063 2.118l.238.36h.585c.322 0 .585-.024.585-.053s.195-.348.434-.7c.487-.737 1.2-1.494 1.816-1.902.34-.228.455-.273.706-.273.84 0 1.346.714 1.578 2.227l.124.75c.01.04.184.1.384.114 1.1.134 2.784.532 3.958.942a18.67 18.67 0 0 1 3.125 1.532c2.83 1.843 4.892 4.613 6.323 8.492 1.24 3.365 1.95 7.616 2.177 13.07.068 1.624.082 5.7.022 6.078l-.04.234h-24.42l.002-.578zm22.342-2.75a67.31 67.31 0 0 0-.187-6.457c-.55-6.5-2.183-11.575-4.792-14.85-1.744-2.2-4.67-3.64-8.552-4.238l-1.076-.15c-.485-.043-.736-.38-.737-1 0-.43-.165-1.515-.255-1.683-.067-.124-.1-.1-.473.267-.467.462-.912 1.084-1.233 1.725-.334.665-.346.67-1.724.7-1.47.023-1.426.042-2.063-.9-.484-.723-1.146-1.515-1.265-1.515-.046 0-.057.174-.034.54.03.462.067.606.267 1 .218.43.23.488.202.882-.063.84-.63 1.942-1.628 3.172-1.263 1.554-5.3 8.993-6.077 11.22l-.23.654.035.813c.064 1.474.447 2.317 1.194 2.63.306.128 1.6.146 1.754.025.064-.053.1-.208.1-.52 0-.593.095-.903.35-1.142.34-.32 1.017-.4 1.463-.175a1.06 1.06 0 0 1 .533 1.079c-.023.127-.18.545-.35.93-.328.744-.374.933-.2.87a.6.6 0 0 1 .158-.038c.112 0 .622-.52.976-.994 1.018-1.363 1.687-2.034 2.824-2.83 3.5-2.45 5.783-4.507 6.94-6.23.466-.694.706-1.287.736-1.82.032-.57.105-.778.334-.94.374-.266.84-.128 1.078.32.22.414.048 1.43-.398 2.35-.24.5-.247.53-.247 1.188-.001 2.5-.42 4.632-1.25 6.36-.668 1.4-1.326 2.228-3.442 4.377-.948.963-1.892 1.978-2.098 2.256-.727.983-1.2 2.092-1.37 3.276l-.1.64c0 .026 4.68.047 10.4.047h10.4l.045-1.828z"/><path d="M29.125 38.5c4.416-3.86 4.73-1.256 8.75-2.375l-.25-1.5c-5.398.236-8.685 1.264-12.375 4.125zm-8.875.125c5.095-5.317 8.412-6.6 17.25-7.25l-.125-1.25C32.618 30.248 22.48 31.9 17.5 39zM23.5 24.25c4.512-.034 7.8-1.723 12.5-2.25-.375-1.17-.375-2.317-.75-1.875-2.716 2.057-6.746 1.938-11.875 3-.383-.498.206.112.125 1.125zM24 20c3.75-1.875 8.083-1.667 9.5-3.25l-1.125-1.375c-.95 2.434-5.73 2.432-8 3.875zm6.625-6.75L27 14.625l2-2.75zm-5.375-2.875l-1.375 2.75-.75-3 2.125.25zm11.5 14.875c-4.37 1.215-8.595 2.57-14.25 2.5l-4.375 4.75c4.074-2.615 8.928-4.983 19.25-5.625z" stroke="#000"/></g></svg>