<svg xmlns="http://www.w3.org/2000/svg" xmlns:xlink="http://www.w3.org/1999/xlink" xml:space="preserve" version="1.1" style="shape-rendering:geometricPrecision;text-rendering:geometricPrecision;image-rendering:optimizeQuality;" viewBox="-20 -25 390 290" x="0px" y="0px" fill-rule="evenodd" clip-rule="evenodd"><defs><style type="text/css">
   
    .fil0 {
    stroke:#000000;stroke-width:0.8em;stroke-linecap:butt;stroke-linejoin:miter;stroke-opacity:1;
    fill:white
    }
   
  </style></defs><g><path class="fil0" d="M42 112c-11,6 -20,2 -25,-2 -12,-7 -13,26 4,34 28,13 30,-8 48,27 19,35 73,89 136,89 32,1 64,-10 87,-28 -6,-3 -11,-6 -13,-14 8,3 19,7 27,0 14,-17 21,-39 18,-64 -8,-64 -71,-98 -127,-72 -56,26 -93,86 -105,67 -13,-19 0,-16 4,-43 4,-21 -18,-30 -19,-20 0,9 -10,14 -19,16 3,14 -2,23 -16,10zm250 77c3,0 6,3 6,6 0,3 -3,5 -6,5 -3,0 -5,-2 -5,-5 0,-3 2,-6 5,-6z"/></g><text x="0" y="348" fill="#000000" font-size="5px" font-weight="bold" font-family="'Helvetica Neue', Helvetica, Arial-Unicode, Arial, Sans-serif">Created by Rfourtytwo</text><text x="0" y="353" fill="#000000" font-size="5px" font-weight="bold" font-family="'Helvetica Neue', Helvetica, Arial-Unicode, Arial, Sans-serif">from the Noun Project</text></svg>