<svg xmlns="http://www.w3.org/2000/svg" viewBox="0 0 512 512" xmlns:v="https://vecta.io/nano"><path d="M385.302 388.773c11.28-8.678 18.224-22.563 18.224-37.315 0-15.62-6.942-28.637-19.092-38.183 0-19.1-6.075-38.183-18.224-50.332 26.034-28.637 40.786-65.953 40.786-105.87 0-10.414-.868-20.827-2.603-30.373 20.827-10.414 33.844-31.24 33.844-54.67 0-33.844-26.902-61.614-59.878-61.614-14.753 0-28.637 5.207-39.05 15.62C315 9.546 286.373 0 256 0s-59 9.546-83.308 26.034c-11.28-9.546-25.166-15.62-39.05-15.62-32.976 0-59.878 27.77-59.878 61.614 0 23.43 13.017 44.258 33.844 54.67-1.736 9.546-2.603 19.96-2.603 30.373 0 39.92 14.753 77.234 39.92 105.87-12.15 12.15-19.092 32.108-19.092 51.2-10.414 8.678-17.356 21.695-17.356 37.315s6.942 28.637 18.224 37.315c-20.827 11.28-35.58 32.976-35.58 58.142 0 35.58 29.505 65.085 65.085 65.085 17.356 0 33.844-6.942 45.125-18.224 17.356 6.075 36.447 9.546 54.67 9.546s37.315-3.47 54.67-9.546C322.82 505.058 338.44 512 355.797 512c35.58 0 65.085-29.505 65.085-65.085-.001-25.166-14.753-46.86-35.58-58.142zM378.36 28.637c23.43 0 42.522 19.96 42.522 44.258 0 13.885-7.8 27.77-19.96 36.447-8.678-27.77-25.166-52.936-47.73-72.027 6.943-5.207 15.62-8.678 25.166-8.678zM325.424 86.78c19.092 0 34.712 15.62 34.712 34.712 0 5.207-3.47 8.678-8.678 8.678s-8.678-3.47-8.678-8.678c0-9.546-7.8-17.356-17.356-17.356s-17.356 7.8-17.356 17.356c0 5.207-3.47 8.678-8.678 8.678s-8.678-3.47-8.678-8.678c0-19.092 15.62-34.712 34.712-34.712zm-96.326 59.878c4.34-5.207 10.414-7.8 16.488-7.8h19.96c6.942 0 13.017 2.603 16.488 7.8 4.34 5.207 5.207 12.15 3.47 18.224l-2.603 9.546c-2.603 8.678-10.414 15.62-19.092 15.62v8.678c0 5.207 3.47 8.678 8.678 8.678s8.678-3.47 8.678-8.678 3.47-8.678 8.678-8.678 8.678 3.47 8.678 8.678c0 14.753-11.28 26.034-26.034 26.034-6.942 0-13.017-2.603-17.356-6.942-4.34 4.34-10.414 6.942-17.356 6.942-14.753 0-26.034-11.28-26.034-26.034 0-5.207 3.47-8.678 8.678-8.678s8.678 3.47 8.678 8.678 3.47 8.678 8.678 8.678 8.678-3.47 8.678-8.678v-8.678c-9.546-.868-17.356-6.942-19.092-15.62l-1.736-9.546c-1.733-6.075.002-13.018 3.473-18.224zM186.576 86.78c19.1 0 34.712 15.62 34.712 34.712 0 5.207-3.47 8.678-8.678 8.678s-8.678-3.47-8.678-8.678c0-9.546-7.8-17.356-17.356-17.356s-17.356 7.8-17.356 17.356c0 5.207-3.47 8.678-8.678 8.678s-8.678-3.47-8.678-8.678c0-19.092 15.62-34.712 34.712-34.712zm-75.498 21.695c-12.15-7.8-19.96-21.695-19.96-36.447 0-24.298 19.1-44.258 42.522-44.258 9.546 0 17.356 2.603 25.166 8.678-22.563 19.1-39.05 44.257-47.73 72.027zm45.125 321.084c-6.942 0-13.017 6.075-13.017 13.017 0 5.207-3.47 8.678-8.678 8.678s-8.678-3.47-8.678-8.678c0-16.488 13.885-30.373 30.373-30.373 5.207 0 8.678 3.47 8.678 8.678s-3.47 8.678-8.678 8.678zm29.505-82.44v11.28c0 1.736-.868 3.47-1.736 4.34v.868c-.868 1.736-1.736 3.47-2.603 4.34s-.868 1.736-1.736 2.603c0 .868-.868.868-.868 1.736-.868.868-1.736 1.736-3.47 2.603-.868.868-2.603 1.736-4.34 2.603-4.34 2.603-9.546 4.34-14.753 4.34-16.488 0-30.373-13.885-30.373-30.373 0-10.414 5.207-19.96 13.885-25.166l5.207-2.603c.868 0 .868 0 1.736-.868 1.736-.868 2.603-.868 4.34-.868h8.677c.867 0 2.603 0 3.47.868a29.95 29.95 0 0 1 22.563 22.563l.001 1.735zM212.6 479.024c2.603-5.207 5.207-9.546 6.075-14.753 0-.868 0-.868.868-1.736.868-1.736.868-4.34.868-6.075v-1.736c0-2.603.868-5.207.868-7.8v-1.736c3.47 4.34 7.8 7.8 10.414 11.28l4.34 4.34c5.207 5.207 12.15 7.8 19.1 7.8s13.885-2.603 19.092-7.8l16.488-16.488v2.603c0 2.603 0 5.207.868 7.8v1.736c0 1.736.868 4.34.868 6.075 0 .868 0 .868.868 1.736 1.736 5.207 3.47 10.414 6.075 14.753-28.64 8.68-58.145 8.68-86.782.001zm96.326-117.153c0 1.736.868 3.47 1.736 4.34 0 .868.868 1.736.868 2.603s.868 1.736.868 2.603.868 1.736 1.736 2.603c0 .868.868 1.736.868 1.736.868 1.736 1.736 2.603 2.603 4.34s2.603 3.47 4.34 4.34c-.868.868-2.603 2.603-3.47 4.34l-7.8 7.8c-.868.868-1.736 2.603-3.47 3.47l-32.977 32.977c-5.207 5.207-9.546 9.546-13.017 13.885-3.47 3.47-9.546 3.47-13.017 0-2.603-2.603-5.207-6.075-8.678-8.678l-52.068-53.803c7.8-6.942 13.017-16.488 14.753-26.902 0-1.736.868-3.47.868-6.075v-1.736c0-3.47 0-6.942-.868-10.414v-.868c0-.868 0-.868-.868-1.736 0-.868 0-.868-.868-1.736-1.736-5.207-4.34-10.414-8.678-15.62-3.47-4.34-8.678-8.678-13.885-11.28-2.603-.868-4.34-2.603-6.942-3.47-.868 0-.868 0-1.736-.868h-2.604c-.868 0-2.603-.868-3.47-.868h-14.754c-1.736 0-2.603.868-4.34.868h-.868c1.736-12.15 6.075-23.43 13.017-30.373l5.207-5.207c.868-.868 1.736-1.736 2.603-1.736l2.603-2.603c.867-.867 1.736-.868 2.603-1.736s1.736-1.736 2.603-1.736c.868-.868 1.736-.868 2.603-1.736s1.736-.868 3.47-1.736c.868 0 1.736-.868 1.736-.868.868-.868 2.603-.868 3.47-1.736.868 0 1.736-.868 1.736-.868.868 0 2.603-.868 3.47-.868s.868 0 1.736-.868c.868 0 2.603-.868 3.47-.868h6.943c8.678 0 16.488 2.603 22.563 6.942 11.28 7.8 19.092 19.092 22.563 30.373.868 3.47 4.34 5.207 7.8 5.207s6.942-2.603 7.8-5.207c6.075-15.62 19.092-32.976 36.447-36.448 2.603-.868 5.207-.868 7.8-.868h6.943c.868 0 2.603 0 3.47.868.868 0 1.736 0 1.736.868.868 0 2.603.868 3.47.868s1.736.868 2.603.868 1.736.868 2.603 1.736c.868 0 1.736.868 2.603.868.868.868 1.736.868 2.603 1.736s1.736.868 2.603 1.736 1.736.868 2.603 1.736 1.736.868 2.603 1.736l2.603 2.603c.867.867 1.736 1.736 2.603 1.736l5.207 5.207c6.942 6.942 11.28 18.224 13.017 30.373.868.868-3.47 0-6.942 0h-1.736c-1.736 0-3.47 0-5.207.868h-.868c-3.47.868-7.8 1.736-11.28 3.47-.868 0-.868.868-1.736.868-.868.868-1.736.868-3.47 1.736-.868 0-.868.868-1.736.868-1.736.868-2.603 1.736-4.34 2.603-.868 0-.868.868-1.736.868l-4.34 4.34c-.868.868-.868 1.736-1.736 2.603s-.868 1.736-1.736 2.603c0 .868-.868.868-.868 1.736l-2.603 5.207s0 .868-.868.868c-.868.868-.868 1.736-.868 3.47 0 .868-.868 1.736-.868 1.736 0 .868 0 .868-.868 1.736v.868c0 1.736-.868 3.47-.868 5.207v13.884c0 .867.008 1.737.876 2.605zm46.86 72.027c-6.942 0-13.017 6.075-13.017 13.017 0 5.207-3.47 8.678-8.678 8.678s-8.678-3.47-8.678-8.678c0-16.488 13.885-30.373 30.373-30.373 5.207 0 8.678 3.47 8.678 8.678s-3.472 8.678-8.678 8.678zm0-52.067c-5.207 0-10.414-1.736-15.62-4.34-1.736-.868-2.603-1.736-3.47-2.603h-.868l-2.603-2.603s-.868-.868-.868-1.736c-.868-.868-1.736-1.736-1.736-2.603-.868-.868-.868-1.736-1.736-3.47 0-.868-.868-1.736-.868-2.603-.868-1.736-.868-2.603-.868-4.34V350.6c0-1.736 0-2.603.868-4.34v-.868c1.736-7.8 6.075-14.753 13.017-19.092l5.207-2.603h.868c1.736-.868 2.603-.868 4.34-1.736h.868c1.736 0 3.47-.868 5.207-.868h.868c1.736 0 3.47 0 5.207.868h1.736c.868 0 2.603.868 3.47.868s1.736.868 2.603.868.868.868.868.868.868 0 .868.868c8.678 5.207 14.753 14.753 14.753 26.034-1.738 16.487-15.622 30.372-32.1 30.372zm-130.16-90.25c-7.8-18.224-19.092-22.563-27.77-22.563-3.47 0-7.8 2.603-12.15 5.207s-6.075 8.678-2.603 12.15c2.603 3.47 7.8 4.34 11.28 1.736 1.736-.868 2.603-1.736 3.47-1.736 4.34 0 7.8 4.34 11.28 12.15 1.736 3.47 4.34 5.207 7.8 5.207.868 0 1.736 0 3.47-.868 4.34-1.736 6.944-6.942 5.208-11.28zm43.4-133.64c-.868-.868-1.736-1.736-2.603-1.736h-19.96c-1.736 0-2.603.868-2.603 1.736s-.868 1.736-.868 3.47l2.603 9.546c-.868 1.736.868 2.603 2.603 2.603h15.62c1.736 0 3.47-.868 3.47-2.603l2.603-9.546c.001-1.735.001-2.603-.867-3.47z"/><g fill="#fff"><path d="M250.274 447.957c-1.578-1.12-17.083-16.833-45.744-46.358l-16.565-17.064 3.506-3.826c6.944-7.578 12-21.014 12-31.858 0-4.35-1.15-11.495-2.144-13.32-.45-.825-1.63-3.35-2.626-5.6-5.4-12.24-17.93-22.977-30.643-26.232-4.937-1.264-19.045-1.65-22.638-.62-1.912.548-1.92.54-1.588-1.35 1.033-5.88 3.085-12.23 5.74-17.762 2.67-5.565 3.643-6.898 8.793-12.06 8.024-8.043 12.1-10.977 21.697-15.66 7.6-3.708 13.214-5.342 18.24-5.318 5.3.026 12.2 1.245 16.714 2.957 11.78 4.46 24.55 18.333 29.298 31.835 1.545 4.392 2.496 5.725 5.022 7.03 2.287 1.183 7.113.735 9.25-.857.955-.7 3.188-4.358 5.507-8.994 8.043-16.074 17.678-25.596 30.318-29.96 4.24-1.465 5.7-1.66 12.6-1.695 6.096-.03 8.263.18 9.904.96 1.155.55 3.18 1.334 4.502 1.743 10.197 3.162 28.43 17.96 33.667 27.326 2.664 4.763 4.78 10.35 6 15.842l1.17 5.26c.297 1.333.22 1.35-5.936 1.35-8.8 0-15.6 1.825-25.015 6.705-8.792 4.562-12.7 8.333-16.773 16.142-1.45 2.785-3 5.42-3.426 5.857s-.792 1.463-.792 2.28-.47 2.352-1.046 3.408c-.887 1.63-1.047 3.608-1.05 13.025l-.004 11.104 2.02 4.802c2.288 5.437 2.157 5.182 5.48 10.655 1.353 2.23 3.164 4.706 4.026 5.505l1.566 1.452-1.66 1.998c-.913 1.1-15.068 15.486-31.455 31.972l-29.8 29.97-3.3.22c-2.48.165-3.68-.05-4.826-.863zm-28.112-145.702c5-3.4 5.342-8.78 1.068-16.317-5.897-10.4-13.962-16.32-23.026-16.9-4.2-.27-4.77-.15-9.054 1.884-2.515 1.194-5.365 2.736-6.334 3.426-5.186 3.693-4.758 11.578.783 14.422 2.988 1.534 5.33 1.44 8.877-.357 1.63-.825 3.645-1.5 4.482-1.5 2.245 0 5.782 3.88 8.765 9.613 3.018 5.8 4.807 7.188 9.273 7.192 2.206.002 3.588-.4 5.166-1.462zm-70.902 78.843c-5.235-.875-11.76-4.4-16.062-8.705-14.903-14.873-10.748-38.45 8.385-47.583 5.062-2.416 5.375-2.484 11.393-2.482 4.933.002 7 .286 10.183 1.4 8.005 2.803 14.686 8.655 18.093 15.848 1.795 3.8 1.935 4.557 2.118 11.662.2 7.36.14 7.727-1.573 11.404-2.193 4.708-5.616 9.93-7.264 11.086-8.65 6.058-17.563 8.657-25.273 7.368zm200.477.042c-3.308-.573-10.586-3.284-12.544-4.673a59.02 59.02 0 0 0-3.001-1.963c-2.048-1.236-5.55-6.576-7.17-10.935-1.575-4.233-1.778-13.857-.4-19.03 2.657-9.986 9.296-17.206 19.158-20.835 5.15-1.896 10.593-2.613 14.45-1.906 8.76 1.6 9.564 2.043 16.5 8.93 4.564 4.533 6.92 8.938 8.238 15.397.82 4.02.814 4.865-.054 8.7-1.54 6.817-4.205 11.6-9.407 16.848-5.3 5.355-10.934 8.418-17.363 9.436-4.32.685-4.553.685-8.403.018zm-221.834 68.504c-2.888-1.76-4.078-4.896-3.607-9.498 1.33-12.988 10.975-23.833 23.906-26.882 5.038-1.188 6.814-1.13 9.815.323 7.663 3.7 4.83 15.58-3.717 15.58-6.8 0-13.444 6.645-13.444 13.444 0 2.654-1.6 5.665-3.715 6.948-2.55 1.554-6.764 1.592-9.238.084z"/><path d="M237.82 484.06c-7.064-.908-13.4-2.155-20.062-3.947l-4.63-1.246 1.87-3.692c2.75-5.43 5.9-15.685 5.896-19.25a65.34 65.34 0 0 1 .394-6.3l.4-3.24 8.46 8.76c7.597 7.867 8.933 8.984 13.1 10.96 3.825 1.8 5.535 2.256 9.628 2.5 10.965.684 15.113-1.375 27.796-13.802l9.663-9.467.365 5.56c.2 3.058.67 7.046 1.042 8.862.748 3.653 4.155 13.234 5.973 16.797l1.168 2.3-4.633 1.244c-13.1 3.514-24.372 4.902-39.13 4.812-6.117-.037-13.902-.425-17.3-.86zm94.4-29.1c-4.314-.924-6.302-3.804-6.302-9.127 0-12.03 10.222-24.7 22.637-28.033 3.72-1 9.3-.923 11.394.16 3.66 1.892 5.125 6.32 3.466 10.465-1.056 2.64-3.93 4.935-6.177 4.935-3.36 0-7.322 1.395-9.667 3.4-3.048 2.6-4.552 5.485-5.1 9.748-.7 5.473-2.292 7.496-6.638 8.442-.998.217-2.625.22-3.616.01zm19.507-73.83c-3.308-.573-10.586-3.284-12.544-4.673a59.02 59.02 0 0 0-3.001-1.963c-2.048-1.236-5.55-6.576-7.17-10.935-1.547-4.16-1.78-13.847-.453-18.832 2.784-10.456 9.212-17.4 19.57-21.103 6.153-2.207 9.983-2.608 15.306-1.605 7.798 1.47 8.284 1.747 15.284 8.7 4.564 4.533 6.92 8.938 8.238 15.397.82 4.02.814 4.865-.054 8.7-1.54 6.817-4.205 11.6-9.407 16.848-5.3 5.355-10.934 8.418-17.363 9.436-4.32.685-4.553.685-8.403.018zM398.82 102.2c-3.357-9.423-10.782-23.935-16.972-33.174-6.333-9.452-15.406-20.207-22.603-26.794-5.938-5.435-5.946-5.373 1.097-8.85 6.33-3.124 11.098-4.233 18.106-4.2 12.474.04 23.168 5.075 31.358 14.764 14.76 17.462 14.13 41.16-1.55 58.17-2.093 2.27-4.558 4.665-5.477 5.32l-1.672 1.2zm-103.926 26.274c-1.057-.644-2.34-1.98-2.85-2.97-3.017-5.835 1.25-19.814 8.312-27.22 10.9-11.446 26.56-14.286 40.43-7.338 11.048 5.534 18.755 17.53 18.755 29.2 0 7.005-2.853 9.97-9.022 9.378-2.696-.26-3.514-.64-5.116-2.4-1.617-1.764-1.97-2.714-2.325-6.23-.727-7.24-3.928-12.108-10.114-15.388-3.515-1.864-10.924-1.904-14.893-.082-5.692 2.614-9.245 7.726-10.1 14.53-.62 4.945-1.887 7.573-4.233 8.786-2.453 1.27-6.528 1.146-8.844-.266zM231.24 223.6c-7.1-2.002-13.253-6.896-16.292-12.977-2.35-4.706-3.498-11.135-2.55-14.3 1.42-4.74 6.346-7.03 11.166-5.2 3.282 1.254 4.492 3.068 5.15 7.724.592 4.2 1.886 6.277 4.82 7.772 4.303 2.194 9.5.766 11.965-3.295.97-1.6 1.193-3.028 1.195-7.676l.002-5.72-4.144-1.068c-5.944-1.53-10.862-5.32-13.44-10.35-.52-1.017-1.66-5.585-2.532-10.15-1.347-7.058-1.493-8.82-.975-11.764 1.335-7.578 5.116-12.6 11.837-15.7 2.83-1.305 3.604-1.362 18.56-1.362h15.606l3.493 1.715c2.5 1.223 4.253 2.684 6.144 5.092 5.038 6.42 5.7 12.195 2.618 23.204-2.252 8.07-4.125 11.63-7.9 15.033-2.917 2.623-8.218 5.075-10.97 5.075-1.464 0-1.478.052-1.477 5.552.001 8.36 2.275 11.76 8.208 12.272 5.5.473 8.9-2.544 9.77-8.618.65-4.592 1.5-5.927 4.72-7.494 4.48-2.174 8.892-.597 11.17 3.992 1.03 2.073 1.085 2.803.517 6.746-1.65 11.452-10.004 19.974-21.513 21.945-6.678 1.144-14.442-.9-19.185-5.075l-1.934-1.698-2.628 2.096c-5.383 4.294-14.62 6.1-21.385 4.206zm34.6-50.3c1.14-.584 1.738-1.822 2.823-5.843 1.787-6.625 1.792-8.456.03-10.113-1.36-1.277-1.77-1.313-12.995-1.155l-11.592.163-.808 2.336c-.712 2.058-.67 2.88.365 6.903l1.5 6.173c.18.884.798 1.73 1.376 1.88 2.478.648 17.904.372 19.303-.345zm-109.865-44.625c-2.62-1.686-3.525-3.875-3.525-8.54 0-14.973 11.707-28.75 27.4-32.24 11.658-2.594 25.598 2.336 33.005 11.673 6.52 8.217 9.887 20.533 7.093 25.937-2.8 5.415-12.156 5.484-14.64.108-.423-.916-1.005-3.5-1.293-5.767-1.293-10.12-9.293-16.74-19.152-15.846-8.77.795-14.994 7.388-15.95 16.893-.355 3.53-.705 4.462-2.35 6.258-1.723 1.88-2.32 2.133-5.472 2.324-2.584.156-3.964-.06-5.115-.8zm-48.635-23.5c-17.877-14.944-21.046-40.183-7.44-59.25 9.952-13.946 27.695-20.644 43.787-16.528 4.448 1.138 9.886 3.644 12.874 5.933l1.412 1.082-6.736 6.554c-8.45 8.222-14.993 15.992-20.963 24.9-7.58 11.3-14.335 24.855-18.017 36.125-.728 2.228-1.37 4.045-1.425 4.036s-1.628-1.3-3.493-2.85z"/></g></svg>