<?xml version="1.0" encoding="UTF-8" standalone="no"?>
<svg
   xmlns:dc="http://purl.org/dc/elements/1.1/"
   xmlns:cc="http://creativecommons.org/ns#"
   xmlns:rdf="http://www.w3.org/1999/02/22-rdf-syntax-ns#"
   xmlns:svg="http://www.w3.org/2000/svg"
   xmlns="http://www.w3.org/2000/svg"
   xmlns:sodipodi="http://sodipodi.sourceforge.net/DTD/sodipodi-0.dtd"
   xmlns:inkscape="http://www.inkscape.org/namespaces/inkscape"
   inkscape:version="1.0 (4035a4fb49, 2020-05-01)"
   sodipodi:docname="c.svg"
   xml:space="preserve"
   style="enable-background:new 0 0 512 512;"
   viewBox="0 0 512 512"
   y="0px"
   x="0px"
   id="Layer_1"
   version="1.1"><metadata
   id="metadata979"><rdf:RDF><cc:Work
       rdf:about=""><dc:format>image/svg+xml</dc:format><dc:type
         rdf:resource="http://purl.org/dc/dcmitype/StillImage" /></cc:Work></rdf:RDF></metadata><defs
   id="defs977" /><sodipodi:namedview
   inkscape:current-layer="Layer_1"
   inkscape:window-maximized="0"
   inkscape:window-y="24"
   inkscape:window-x="0"
   inkscape:cy="256"
   inkscape:cx="256"
   inkscape:zoom="1.6660156"
   showgrid="false"
   id="namedview975"
   inkscape:window-height="1056"
   inkscape:window-width="1920"
   inkscape:pageshadow="2"
   inkscape:pageopacity="0"
   guidetolerance="10"
   gridtolerance="10"
   objecttolerance="10"
   borderopacity="1"
   bordercolor="#666666"
   pagecolor="#ffffff" />
<g
   id="g930">
	<g
   id="g928">
		<path
   id="path926"
   d="M385.302,388.773c11.281-8.678,18.224-22.563,18.224-37.315c0-15.62-6.942-28.637-19.092-38.183    c0-19.091-6.075-38.183-18.224-50.332c26.034-28.637,40.786-65.953,40.786-105.871c0-10.414-0.868-20.827-2.603-30.373    c20.827-10.414,33.844-31.241,33.844-54.671c0-33.844-26.902-61.614-59.878-61.614c-14.753,0-28.637,5.207-39.051,15.62    C315.01,9.546,286.373,0,256,0c-30.373,0-59.01,9.546-83.308,26.034c-11.281-9.546-25.166-15.62-39.051-15.62    c-32.976,0-59.878,27.769-59.878,61.614c0,23.431,13.017,44.258,33.844,54.671c-1.736,9.546-2.603,19.959-2.603,30.373    c0,39.919,14.753,77.234,39.919,105.871c-12.149,12.149-19.092,32.108-19.092,51.2c-10.414,8.678-17.356,21.695-17.356,37.315    c0,15.62,6.942,28.637,18.224,37.315c-20.827,11.281-35.58,32.976-35.58,58.142c0,35.58,29.505,65.085,65.085,65.085    c17.356,0,33.844-6.942,45.125-18.224c17.356,6.075,36.447,9.546,54.671,9.546s37.315-3.471,54.671-9.546    C322.82,505.058,338.441,512,355.797,512c35.58,0,65.085-29.505,65.085-65.085C420.881,421.749,406.129,400.054,385.302,388.773z     M378.359,28.637c23.431,0,42.522,19.959,42.522,44.258c0,13.885-7.81,27.77-19.959,36.447    c-8.678-27.769-25.166-52.936-47.729-72.027C360.136,32.108,368.814,28.637,378.359,28.637z M325.424,86.78    c19.092,0,34.712,15.62,34.712,34.712c0,5.207-3.471,8.678-8.678,8.678c-5.207,0-8.678-3.471-8.678-8.678    c0-9.546-7.81-17.356-17.356-17.356c-9.546,0-17.356,7.81-17.356,17.356c0,5.207-3.471,8.678-8.678,8.678    s-8.678-3.471-8.678-8.678C290.712,102.4,306.332,86.78,325.424,86.78z M229.098,146.658c4.339-5.207,10.414-7.81,16.488-7.81    h19.959c6.942,0,13.017,2.603,16.488,7.81c4.339,5.207,5.207,12.149,3.471,18.224l-2.603,9.546    c-2.603,8.678-10.414,15.62-19.092,15.62v8.678c0,5.207,3.471,8.678,8.678,8.678s8.678-3.471,8.678-8.678s3.471-8.678,8.678-8.678    s8.678,3.471,8.678,8.678c0,14.753-11.281,26.034-26.034,26.034c-6.942,0-13.017-2.603-17.356-6.942    c-4.339,4.339-10.414,6.942-17.356,6.942c-14.753,0-26.034-11.281-26.034-26.034c0-5.207,3.471-8.678,8.678-8.678    c5.207,0,8.678,3.471,8.678,8.678s3.471,8.678,8.678,8.678s8.678-3.471,8.678-8.678v-8.678    c-9.546-0.868-17.356-6.942-19.092-15.62l-1.736-9.546C223.892,158.807,225.627,151.864,229.098,146.658z M186.576,86.78    c19.091,0,34.712,15.62,34.712,34.712c0,5.207-3.471,8.678-8.678,8.678s-8.678-3.471-8.678-8.678    c0-9.546-7.81-17.356-17.356-17.356c-9.546,0-17.356,7.81-17.356,17.356c0,5.207-3.471,8.678-8.678,8.678    s-8.678-3.471-8.678-8.678C151.864,102.4,167.485,86.78,186.576,86.78z M111.078,108.475    c-12.149-7.81-19.959-21.695-19.959-36.447c0-24.298,19.091-44.258,42.522-44.258c9.546,0,17.356,2.603,25.166,8.678    C136.244,55.539,119.756,80.705,111.078,108.475z M156.203,429.559c-6.942,0-13.017,6.075-13.017,13.017    c0,5.207-3.471,8.678-8.678,8.678s-8.678-3.471-8.678-8.678c0-16.488,13.885-30.373,30.373-30.373    c5.207,0,8.678,3.471,8.678,8.678S161.41,429.559,156.203,429.559z M185.708,347.119c0,1.736,0,2.603,0,4.339    c0,0.868,0,1.736,0,1.736c0,0.868,0,2.603,0,3.471s0,0.868,0,1.736c0,1.736-0.868,3.471-1.736,4.339c0,0,0,0,0,0.868    c-0.868,1.736-1.736,3.471-2.603,4.339c-0.868,0.868-0.868,1.736-1.736,2.603c0,0.868-0.868,0.868-0.868,1.736    c-0.868,0.868-1.736,1.736-3.471,2.603c-0.868,0.868-2.603,1.736-4.339,2.603c-4.339,2.603-9.546,4.339-14.753,4.339    c-16.488,0-30.373-13.885-30.373-30.373c0-10.414,5.207-19.959,13.885-25.166c1.736-0.868,3.471-1.736,5.207-2.603    c0.868,0,0.868,0,1.736-0.868c1.736-0.868,2.603-0.868,4.339-0.868c0.868,0,1.736,0,2.603,0s2.603,0,3.471,0s1.736,0,2.603,0    s2.603,0,3.471,0.868c11.281,2.603,19.959,11.281,22.563,22.563C185.708,346.251,185.708,346.251,185.708,347.119z     M212.61,479.024c2.603-5.207,5.207-9.546,6.075-14.753c0-0.868,0-0.868,0.868-1.736c0.868-1.736,0.868-4.339,0.868-6.075    c0-0.868,0-0.868,0-1.736c0-2.603,0.868-5.207,0.868-7.81c0-0.868,0-0.868,0-1.736c3.471,4.339,7.81,7.81,10.414,11.281    c1.736,1.736,3.471,3.471,4.339,4.339c5.207,5.207,12.149,7.81,19.091,7.81c6.942,0,13.885-2.603,19.092-7.81    c4.339-4.339,10.414-10.414,16.488-16.488c0,0.868,0,1.736,0,2.603c0,2.603,0,5.207,0.868,7.81c0,0.868,0,1.736,0,1.736    c0,1.736,0.868,4.339,0.868,6.075c0,0.868,0,0.868,0.868,1.736c1.736,5.207,3.471,10.414,6.075,14.753    C270.753,487.702,241.247,487.702,212.61,479.024z M308.936,361.871c0,1.736,0.868,3.471,1.736,4.339    c0,0.868,0.868,1.736,0.868,2.603s0.868,1.736,0.868,2.603c0,0.868,0.868,1.736,1.736,2.603c0,0.868,0.868,1.736,0.868,1.736    c0.868,1.736,1.736,2.603,2.603,4.339s2.603,3.471,4.339,4.339c-0.868,0.868-2.603,2.603-3.471,4.339    c-0.868,0.868-1.736,1.736-2.603,2.603c-1.736,1.736-3.471,3.471-5.207,5.207c-0.868,0.868-1.736,2.603-3.471,3.471    c-1.736,1.736-2.603,2.603-4.339,4.339s-2.603,2.603-4.339,4.339c-0.868,0.868-1.736,1.736-2.603,2.603    c-4.339,4.339-9.546,9.546-13.885,13.885c-1.736,1.736-4.339,4.339-6.075,6.075c-0.868,0.868-0.868,0.868-1.736,1.736    c-5.207,5.207-9.546,9.546-13.017,13.885c-3.471,3.471-9.546,3.471-13.017,0c-2.603-2.603-5.207-6.075-8.678-8.678    c-14.753-15.62-35.58-36.448-52.068-53.803c7.81-6.942,13.017-16.488,14.753-26.902c0-1.736,0.868-3.471,0.868-6.075    c0,0,0,0,0-0.868v-0.868c0-3.471,0-6.942-0.868-10.414v-0.868c0-0.868,0-0.868-0.868-1.736c0-0.868,0-0.868-0.868-1.736    c-1.736-5.207-4.339-10.414-8.678-15.62c-3.471-4.339-8.678-8.678-13.885-11.281c-2.603-0.868-4.339-2.603-6.942-3.471    c-0.868,0-0.868,0-1.736-0.868h-0.868c-0.868,0-0.868,0-1.736,0s-2.603-0.868-3.471-0.868s-0.868,0-1.736,0    c-1.736,0-3.471,0-5.207,0h-0.868c-1.736,0-3.471,0-5.207,0c-0.868,0-0.868,0-1.736,0c-1.736,0-2.603,0.868-4.339,0.868h-0.868    c1.736-12.149,6.075-23.43,13.017-30.373c1.736-1.736,3.471-3.471,5.207-5.207c0.868-0.868,1.736-1.736,2.603-1.736    c0.868-0.868,1.736-1.736,2.603-2.603s1.736-0.868,2.603-1.736s1.736-1.736,2.603-1.736c0.868-0.868,1.736-0.868,2.603-1.736    s1.736-0.868,3.471-1.736c0.868,0,1.736-0.868,1.736-0.868c0.868-0.868,2.603-0.868,3.471-1.736c0.868,0,1.736-0.868,1.736-0.868    c0.868,0,2.603-0.868,3.471-0.868s0.868,0,1.736-0.868c0.868,0,2.603-0.868,3.471-0.868s0.868,0,1.736,0c1.736,0,3.471,0,5.207,0    c8.678,0,16.488,2.603,22.563,6.942c11.281,7.81,19.092,19.092,22.563,30.373c0.868,3.471,4.339,5.207,7.81,5.207    c3.471,0,6.942-2.603,7.81-5.207c6.075-15.62,19.092-32.976,36.447-36.448c2.603-0.868,5.207-0.868,7.81-0.868    c1.736,0,3.471,0,5.207,0c0.868,0,0.868,0,1.736,0s2.603,0,3.471,0.868c0.868,0,1.736,0,1.736,0.868    c0.868,0,2.603,0.868,3.471,0.868s1.736,0.868,2.603,0.868s1.736,0.868,2.603,1.736c0.868,0,1.736,0.868,2.603,0.868    c0.868,0.868,1.736,0.868,2.603,1.736s1.736,0.868,2.603,1.736s1.736,0.868,2.603,1.736s1.736,0.868,2.603,1.736    s1.736,1.736,2.603,2.603s1.736,1.736,2.603,1.736c1.736,1.736,3.471,3.471,5.207,5.207c6.942,6.942,11.281,18.224,13.017,30.373    c0.868,0.868-3.471,0-6.942,0h-0.868h-0.868c-1.736,0-3.471,0-5.207,0.868h-0.868c-3.471,0.868-7.81,1.736-11.281,3.471    c-0.868,0-0.868,0.868-1.736,0.868c-0.868,0.868-1.736,0.868-3.471,1.736c-0.868,0-0.868,0.868-1.736,0.868    c-1.736,0.868-2.603,1.736-4.339,2.603c-0.868,0-0.868,0.868-1.736,0.868c-0.868,0.868-1.736,1.736-2.603,2.603    c-0.868,0.868-0.868,0.868-1.736,1.736s-0.868,1.736-1.736,2.603c-0.868,0.868-0.868,1.736-1.736,2.603    c0,0.868-0.868,0.868-0.868,1.736c-0.868,1.736-1.736,3.471-2.603,5.207c0,0,0,0.868-0.868,0.868    c-0.868,0.868-0.868,1.736-0.868,3.471c0,0.868-0.868,1.736-0.868,1.736c0,0.868,0,0.868-0.868,1.736v0.868    c0,1.736-0.868,3.471-0.868,5.207v0.868c0,0.868,0,2.603,0,3.471v0.868c0,0.868,0,1.736,0,2.603s0,1.736,0,3.471    c0,0.868,0,1.736,0,2.603S308.068,361.003,308.936,361.871z M355.797,433.898c-6.942,0-13.017,6.075-13.017,13.017    c0,5.207-3.471,8.678-8.678,8.678s-8.678-3.471-8.678-8.678c0-16.488,13.885-30.373,30.373-30.373    c5.207,0,8.678,3.471,8.678,8.678S361.003,433.898,355.797,433.898z M355.797,381.831c-5.207,0-10.414-1.736-15.62-4.339    c-1.736-0.868-2.603-1.736-3.471-2.603c0,0,0,0-0.868,0c-0.868-0.868-1.736-1.736-2.603-2.603c0,0-0.868-0.868-0.868-1.736    c-0.868-0.868-1.736-1.736-1.736-2.603c-0.868-0.868-0.868-1.736-1.736-3.471c0-0.868-0.868-1.736-0.868-2.603    c-0.868-1.736-0.868-2.603-0.868-4.339c0-0.868,0-1.736,0-1.736c0-0.868,0-2.603,0-3.471s0-1.736,0-1.736    c0-1.736,0-2.603,0.868-4.339v-0.868c1.736-7.81,6.075-14.753,13.017-19.092c1.736-0.868,3.471-1.736,5.207-2.603h0.868    c1.736-0.868,2.603-0.868,4.339-1.736h0.868c1.736,0,3.471-0.868,5.207-0.868h0.868c1.736,0,3.471,0,5.207,0.868    c0.868,0,0.868,0,1.736,0c0.868,0,2.603,0.868,3.471,0.868c0.868,0,1.736,0.868,2.603,0.868c0.868,0,0.868,0.868,0.868,0.868    s0.868,0,0.868,0.868c8.678,5.207,14.753,14.753,14.753,26.034C386.169,367.946,372.285,381.831,355.797,381.831z" />
	</g>
</g>
<g
   id="g936">
	<g
   id="g934">
		<path
   id="path932"
   d="M225.627,291.58c-7.81-18.224-19.092-22.563-27.77-22.563c-3.471,0-7.81,2.603-12.149,5.207    c-4.339,2.603-6.075,8.678-2.603,12.149c2.603,3.471,7.81,4.339,11.281,1.736c1.736-0.868,2.603-1.736,3.471-1.736    c4.339,0,7.81,4.339,11.281,12.149c1.736,3.471,4.339,5.207,7.81,5.207c0.868,0,1.736,0,3.471-0.868    C224.759,301.125,227.363,295.919,225.627,291.58z" />
	</g>
</g>
<g
   id="g942">
	<g
   id="g940">
		<path
   id="path938"
   d="M269.017,157.939c-0.868-0.868-1.736-1.736-2.603-1.736h-19.959c-1.736,0-2.603,0.868-2.603,1.736    s-0.868,1.736-0.868,3.471l2.603,9.546c-0.868,1.736,0.868,2.603,2.603,2.603H256h7.81c1.736,0,3.471-0.868,3.471-2.603    l2.603-9.546C269.885,159.675,269.885,158.807,269.017,157.939z" />
	</g>
</g>
<g
   id="g944">
</g>
<g
   id="g946">
</g>
<g
   id="g948">
</g>
<g
   id="g950">
</g>
<g
   id="g952">
</g>
<g
   id="g954">
</g>
<g
   id="g956">
</g>
<g
   id="g958">
</g>
<g
   id="g960">
</g>
<g
   id="g962">
</g>
<g
   id="g964">
</g>
<g
   id="g966">
</g>
<g
   id="g968">
</g>
<g
   id="g970">
</g>
<g
   id="g972">
</g>
<path
   id="path981"
   d="m 250.27351,447.957 c -1.57754,-1.11983 -17.08274,-16.83326 -45.74362,-46.35792 l -16.56523,-17.06446 3.50551,-3.82565 c 6.94414,-7.5783 12.00886,-21.01388 12.00921,-31.85777 1.4e-4,-4.35018 -1.14991,-11.49515 -2.144,-13.32013 -0.44956,-0.82533 -1.63149,-3.34982 -2.6265,-5.60999 -5.38909,-12.24129 -17.93038,-22.97717 -30.64323,-26.23193 -4.93743,-1.26409 -19.04471,-1.6503 -22.638,-0.61976 -1.91156,0.54823 -1.92018,0.5409 -1.58792,-1.35053 1.03278,-5.8792 3.08488,-12.229 5.74024,-17.762 2.67074,-5.56503 3.64259,-6.89803 8.79337,-12.06109 8.0237,-8.04281 12.08918,-10.97694 21.697,-15.65913 7.60974,-3.70846 13.21425,-5.34235 18.24056,-5.31769 5.30141,0.026 12.18898,1.24471 16.71442,2.95748 11.78061,4.4587 24.54953,18.33346 29.29786,31.83518 1.54475,4.39246 2.49649,5.72488 5.02216,7.03096 2.28677,1.18253 7.11303,0.7354 9.25037,-0.85701 0.95466,-0.71126 3.18816,-4.35848 5.50746,-8.99351 8.04323,-16.07407 17.6785,-25.59584 30.3176,-29.96048 4.24127,-1.46463 5.69881,-1.6607 12.59916,-1.69484 6.09574,-0.0302 8.26271,0.1799 9.90387,0.96004 1.15545,0.54925 3.18124,1.3337 4.50176,1.74322 10.19689,3.16226 28.42949,17.9608 33.66655,27.32554 2.66358,4.76293 4.7796,10.34919 6.00079,15.842 0.47813,2.15053 1.00483,4.51779 1.17045,5.26058 0.29728,1.33322 0.2212,1.35053 -5.93579,1.35053 -8.80148,0 -15.60946,1.82484 -25.01508,6.70515 -8.79204,4.56195 -12.71082,8.33342 -16.77263,16.1422 -1.44861,2.78495 -2.99043,5.42048 -3.42624,5.85672 -0.43582,0.43624 -0.79239,1.46255 -0.79239,2.28069 0,0.81814 -0.47072,2.35194 -1.04605,3.40847 -0.88713,1.62912 -1.0467,3.60794 -1.05041,13.02529 l -0.004,11.10434 2.02076,4.80188 c 2.28786,5.43656 2.15719,5.18241 5.47864,10.65541 1.35276,2.22906 3.16431,4.70631 4.02566,5.505 l 1.56608,1.45216 -1.66077,1.99793 c -0.91342,1.09886 -15.06831,15.48633 -31.4553,31.97213 l -29.79469,29.9742 -3.30129,0.21961 c -2.47881,0.1649 -3.68119,-0.0501 -4.82614,-0.86282 z M 222.16175,302.25471 c 4.98978,-3.39064 5.34232,-8.77861 1.06764,-16.31674 -5.89707,-10.39911 -13.96207,-16.31859 -23.02575,-16.90026 -4.19973,-0.26952 -4.76915,-0.15105 -9.05375,1.88369 -2.51468,1.19422 -5.36513,2.73596 -6.33432,3.42609 -5.18614,3.69286 -4.75806,11.57757 0.78303,14.42241 2.98811,1.53412 5.331,1.43984 8.87737,-0.35724 1.62869,-0.82532 3.6455,-1.50058 4.4818,-1.50058 2.24471,0 5.78163,3.87923 8.76457,9.61282 3.01789,5.80076 4.8069,7.18817 9.27315,7.1915 2.20613,0.002 3.58824,-0.3894 5.16626,-1.46169 z"
   style="fill:#ffffff;stroke-width:0.600234" /><path
   id="path983"
   d="m 151.25909,381.09764 c -5.23487,-0.87509 -11.7601,-4.41137 -16.06236,-8.70482 -14.90302,-14.87254 -10.74821,-38.45082 8.38467,-47.58257 5.06206,-2.41602 5.37539,-2.48427 11.39338,-2.48173 4.93279,0.002 6.9985,0.28637 10.18252,1.40129 8.00515,2.8031 14.68629,8.655 18.09341,15.84772 1.79518,3.78978 1.93457,4.55709 2.11843,11.66167 0.19047,7.36023 0.13985,7.72724 -1.57305,11.40446 -2.19303,4.70795 -5.61553,9.93101 -7.26413,11.08573 -8.64925,6.05817 -17.56326,8.65703 -25.27287,7.36825 z"
   style="fill:#ffffff;stroke-width:0.600234" /><path
   id="path985"
   d="m 351.7374,381.14012 c -3.30776,-0.57288 -10.58552,-3.2837 -12.54432,-4.6725 -0.79199,-0.56153 -2.14252,-1.44503 -3.00118,-1.96335 -2.04776,-1.23609 -5.54958,-6.57556 -7.17143,-10.93476 -1.5748,-4.23276 -1.77756,-13.8571 -0.40092,-19.03039 2.65732,-9.98591 9.29566,-17.2055 19.15795,-20.83539 5.15034,-1.89562 10.59337,-2.61349 14.44883,-1.90563 8.76119,1.60856 9.56428,2.04326 16.49994,8.93109 4.56415,4.53269 6.92131,8.93801 8.23849,15.397 0.81965,4.01929 0.81438,4.86496 -0.0543,8.71147 -1.53944,6.81679 -4.20519,11.59128 -9.40682,16.84808 -5.29901,5.3552 -10.93421,8.41774 -17.363,9.43622 -4.32078,0.68451 -4.55292,0.68501 -8.40328,0.0181 z"
   style="fill:#ffffff;stroke-width:0.600234" /><path
   id="path987"
   d="m 129.90272,449.64424 c -2.88754,-1.76083 -4.07814,-4.89606 -3.60669,-9.49763 1.33067,-12.98815 10.97516,-23.83297 23.90648,-26.88184 5.03764,-1.18774 6.81426,-1.12922 9.81478,0.32331 7.66326,3.70972 4.83106,15.57956 -3.71735,15.57956 -6.79942,0 -13.44414,6.64472 -13.44414,13.44414 0,2.65396 -1.6099,5.66479 -3.71534,6.94845 -2.54871,1.5539 -6.76441,1.59224 -9.23774,0.084 z"
   style="fill:#ffffff;stroke-width:0.600234" /><path
   id="path989"
   d="m 237.81899,484.06056 c -7.06362,-0.90794 -13.4011,-2.15487 -20.06233,-3.94735 l -4.63021,-1.24596 1.86902,-3.69154 c 2.74879,-5.42922 5.88993,-15.68497 5.89603,-19.25043 0.003,-1.67661 0.18034,-4.50693 0.39439,-6.28961 l 0.38916,-3.24124 8.45908,8.7599 c 7.59672,7.86688 8.93324,8.98425 13.11036,10.96061 3.82541,1.80997 5.53492,2.25585 9.62786,2.5112 10.9651,0.68409 15.11281,-1.37536 27.79626,-13.80157 l 9.66275,-9.46677 0.36528,5.56025 c 0.20091,3.05815 0.66964,7.04584 1.04163,8.86155 0.74849,3.65344 4.15534,13.23381 5.97311,16.79693 l 1.16786,2.28919 -4.63306,1.24391 c -13.08935,3.5143 -24.37164,4.90188 -39.12861,4.81232 -6.11724,-0.0371 -13.9016,-0.42475 -17.29858,-0.86139 z"
   style="fill:#ffffff;stroke-width:0.600234" /><path
   id="path991"
   d="m 332.22978,454.96961 c -4.31371,-0.92401 -6.30246,-3.80414 -6.30246,-9.12723 0,-12.03106 10.22247,-24.69002 22.6375,-28.03304 3.71898,-1.00141 9.29983,-0.92301 11.39428,0.16007 3.65853,1.8919 5.12495,6.31901 3.46623,10.46454 -1.05578,2.63868 -3.93029,4.93533 -6.17707,4.93533 -3.35877,0 -7.32224,1.39457 -9.66658,3.40124 -3.0478,2.6088 -4.55236,5.48536 -5.0985,9.74773 -0.70127,5.47321 -2.29174,7.49597 -6.63787,8.44203 -0.99816,0.21728 -2.62515,0.22148 -3.61553,0.009 z"
   style="fill:#ffffff;stroke-width:0.600234" /><path
   id="path993"
   d="m 351.7374,381.14012 c -3.30776,-0.57288 -10.58552,-3.2837 -12.54432,-4.6725 -0.79199,-0.56153 -2.14252,-1.44503 -3.00118,-1.96335 -2.04776,-1.23609 -5.54958,-6.57556 -7.17143,-10.93476 -1.54734,-4.15894 -1.78056,-13.84688 -0.45335,-18.83164 2.78399,-10.45609 9.21246,-17.3885 19.56887,-21.1029 6.15321,-2.20689 9.98263,-2.60833 15.30598,-1.60455 7.79821,1.47045 8.28445,1.74719 15.2843,8.69877 4.56415,4.53269 6.92131,8.93801 8.23849,15.397 0.81965,4.01929 0.81438,4.86496 -0.0543,8.71147 -1.53944,6.81679 -4.20519,11.59128 -9.40682,16.84808 -5.29901,5.3552 -10.93421,8.41774 -17.363,9.43622 -4.32078,0.68451 -4.55292,0.68501 -8.40328,0.0181 z"
   style="fill:#ffffff;stroke-width:0.600234" /><path
   id="path995"
   d="m 398.82022,102.2007 c -3.35725,-9.423011 -10.78192,-23.935143 -16.9723,-33.173736 -6.33326,-9.451835 -15.40611,-20.206651 -22.60329,-26.793589 -5.93813,-5.434638 -5.94573,-5.373326 1.09731,-8.849919 6.32872,-3.123986 11.09802,-4.233064 18.10589,-4.210438 12.4737,0.04027 23.16824,5.075451 31.35819,14.763986 14.76068,17.461567 14.12909,41.158601 -1.55041,58.170716 -2.09294,2.27083 -4.55771,4.66451 -5.47727,5.31929 l -1.67193,1.19051 z"
   style="fill:#ffffff;stroke-width:0.600234" /><path
   id="path997"
   d="m 294.89432,128.47448 c -1.05689,-0.64443 -2.33989,-1.98053 -2.85111,-2.96913 -3.01728,-5.83476 1.25124,-19.8143 8.3118,-27.221398 10.9103,-11.445798 26.56002,-14.286128 40.43026,-7.337852 11.04774,5.534354 18.75518,17.52965 18.75518,29.18923 0,7.0047 -2.85325,9.97064 -9.02161,9.37794 -2.69605,-0.25906 -3.51356,-0.64093 -5.11649,-2.39003 -1.61678,-1.76422 -1.97132,-2.71435 -2.3246,-6.22967 -0.72748,-7.23886 -3.92773,-12.10781 -10.11437,-15.38829 -3.51478,-1.86372 -10.92392,-1.90427 -14.89277,-0.0815 -5.69157,2.61397 -9.24454,7.72589 -10.0989,14.53001 -0.62095,4.9453 -1.88701,7.57295 -4.23342,8.78633 -2.45334,1.26867 -6.52834,1.14627 -8.84397,-0.26565 z"
   style="fill:#ffffff;stroke-width:0.600234" /><path
   id="path999"
   d="m 231.24073,223.599 c -7.10883,-2.00168 -13.25348,-6.89606 -16.29227,-12.97721 -2.35142,-4.70559 -3.49817,-11.13493 -2.55033,-14.29854 1.42044,-4.74101 6.34616,-7.03005 11.16641,-5.18918 3.28244,1.25357 4.49214,3.06772 5.15025,7.72364 0.59218,4.18953 1.88627,6.2766 4.81909,7.77207 4.30288,2.1941 9.48938,0.76589 11.96526,-3.29487 0.96928,-1.58976 1.19316,-3.02774 1.19498,-7.67559 l 0.002,-5.71934 -4.1442,-1.06757 c -5.94401,-1.53121 -10.86208,-5.31868 -13.44122,-10.35126 -0.52126,-1.01711 -1.66085,-5.58505 -2.53243,-10.15097 -1.34724,-7.05781 -1.49329,-8.82047 -0.97476,-11.76424 1.33492,-7.57847 5.11574,-12.58987 11.83679,-15.68942 2.83018,-1.3052 3.60424,-1.36201 18.55945,-1.36201 h 15.6061 l 3.49334,1.71534 c 2.49149,1.2234 4.25349,2.68383 6.14381,5.0923 5.03825,6.41925 5.68997,12.19526 2.61818,23.20409 -2.25173,8.06984 -4.12461,11.62912 -7.91013,15.03263 -2.91702,2.62264 -8.21836,5.07522 -10.9703,5.07522 -1.46414,0 -1.47806,0.0523 -1.47714,5.55217 0.001,8.36083 2.27522,11.76059 8.20758,12.2718 5.49094,0.47318 8.91136,-2.54406 9.76995,-8.61832 0.64907,-4.59196 1.49003,-5.92737 4.71906,-7.49373 4.48114,-2.17374 8.89161,-0.59747 11.16896,3.99171 1.02881,2.07321 1.08475,2.80346 0.51678,6.746 -1.64979,11.45171 -10.00406,19.97406 -21.51258,21.94538 -6.67791,1.14388 -14.44159,-0.90967 -19.18523,-5.07465 l -1.93415,-1.69821 -2.62829,2.09649 c -5.38324,4.29401 -14.62083,6.11096 -21.38521,4.20627 z m 34.60944,-50.29015 c 1.14043,-0.5844 1.73838,-1.82207 2.8231,-5.84343 1.78713,-6.62538 1.79235,-8.45596 0.0289,-10.11266 -1.35889,-1.27661 -1.77079,-1.31322 -12.99518,-1.15504 l -11.59181,0.16336 -0.80824,2.33593 c -0.71219,2.05833 -0.66881,2.87866 0.36497,6.9027 0.64527,2.51172 1.31983,5.28978 1.49902,6.17347 0.1792,0.88369 0.79832,1.7302 1.37582,1.88114 2.4779,0.64761 17.90427,0.37153 19.30345,-0.34547 z"
   style="fill:#ffffff;stroke-width:0.600234" /><path
   id="path1001"
   d="m 155.98461,128.6753 c -2.62143,-1.68556 -3.52506,-3.87474 -3.52506,-8.53997 0,-14.97303 11.70743,-28.748898 27.39915,-32.239975 11.65842,-2.593753 25.59801,2.33606 33.00541,11.672552 6.51939,8.217203 9.88727,20.533313 7.09268,25.937443 -2.80023,5.41506 -12.15597,5.48437 -14.63965,0.10845 -0.42318,-0.91596 -1.0052,-3.51117 -1.29338,-5.76713 -1.29289,-10.12125 -9.29264,-16.74025 -19.15185,-15.84625 -8.76958,0.7952 -14.99445,7.3883 -15.94966,16.89315 -0.35473,3.52969 -0.70506,4.46244 -2.35044,6.25786 -1.72276,1.87985 -2.3194,2.13324 -5.47193,2.32387 -2.584,0.15626 -3.96365,-0.0595 -5.11527,-0.8 z"
   style="fill:#ffffff;stroke-width:0.600234" /><path
   id="path1003"
   d="M 107.35088,105.17585 C 89.474034,90.231627 86.305226,64.992679 99.911777,45.924807 109.86366,31.978494 127.60658,25.281124 143.69853,29.39675 c 4.44763,1.137512 9.88636,3.644116 12.87408,5.933413 l 1.412,1.081922 -6.73623,6.55363 c -8.45107,8.221973 -14.99257,15.992151 -20.96265,24.900019 -7.5792,11.308825 -14.33502,24.854783 -18.01668,36.124886 -0.72795,2.22837 -1.36905,4.04472 -1.42467,4.03634 -0.0556,-0.008 -1.62769,-1.29138 -3.4935,-2.85111 z"
   style="fill:#ffffff;stroke-width:0.600234" /></svg>
