<svg xmlns="http://www.w3.org/2000/svg" viewBox="0 0 45 45" xmlns:v="https://vecta.io/nano"><style><![CDATA[.B{stroke-linejoin:round}.C{stroke-width:1.5}.D{stroke-linecap:round}]]></style><g fill="none" fill-rule="evenodd" class="B C"><g stroke="#000"><g class="D"><path d="M17.6 4.8h3"/><path d="M19.2 9.9V2.2"/></g><path d="M39.5 40.1v-5.478c-6.243-2.46-4.46-20.018-8.92-24.118 1.06-1.094 4.46-2.46 1.784-3.28-5.352-1.64-3.568 0-7.135 1.64-3.568 0-10.703-3.28-12.487 6.56-1.784 3.28-5.352 3.28-7.135 6.56-1.127 2.066 1.784 6.56 7.135 1.64 5.352 0 8.92 0 10.703-3.28 1.784 3.28 4.568 4.36 4.568 20.757H39.5v-1z" fill="#000"/><g class="D"><path d="M21.1 5.9h3"/><path d="M22.7 11V3.3"/></g></g><path d="M16.374 14.574a.441 1.323 0 1 1-.866-.5.441 1.323 0 1 1 .866.5zM31.1 22.5a1.73 2.5 0 1 1-3.46 0 1.73 2.5 0 1 1 3.46 0zm2.2 8a1.73 2.5 0 1 1-3.46 0 1.73 2.5 0 1 1 3.46 0zm3.8 6a1.73 2.5 0 1 1-3.46 0 1.73 2.5 0 1 1 3.46 0z" fill="#fff" stroke="#fff"/></g></svg>