<?xml version="1.0" encoding="utf-8"?>
<!-- Generator: Adobe Illustrator 23.0.1, SVG Export Plug-In . SVG Version: 6.00 Build 0)  -->
<svg version="1.1"
	 id="Layer_1" inkscape:version="1.0 (4035a4fb49, 2020-05-01)" sodipodi:docname="M.svg" xmlns:cc="http://creativecommons.org/ns#" xmlns:dc="http://purl.org/dc/elements/1.1/" xmlns:inkscape="http://www.inkscape.org/namespaces/inkscape" xmlns:rdf="http://www.w3.org/1999/02/22-rdf-syntax-ns#" xmlns:sodipodi="http://sodipodi.sourceforge.net/DTD/sodipodi-0.dtd" xmlns:svg="http://www.w3.org/2000/svg"
	 xmlns="http://www.w3.org/2000/svg" xmlns:xlink="http://www.w3.org/1999/xlink" x="0px" y="0px" viewBox="0 0 512 512"
	 style="enable-background:new 0 0 512 512;" xml:space="preserve">
<style type="text/css">
	.st0{fill:#FFFFFF;}
</style>
<sodipodi:namedview  bordercolor="#666666" borderopacity="1" gridtolerance="10" guidetolerance="10" id="namedview3548" inkscape:current-layer="Layer_1" inkscape:cx="133.86962" inkscape:cy="181.47331" inkscape:pageopacity="0" inkscape:pageshadow="2" inkscape:window-height="1056" inkscape:window-maximized="0" inkscape:window-width="1920" inkscape:window-x="0" inkscape:window-y="24" inkscape:zoom="0.8125" objecttolerance="10" pagecolor="#ffffff" showgrid="false">
	</sodipodi:namedview>
<g id="g3429">
	<g id="g3427">
		<path id="path3425" class="st0" d="M107.3,141.8c-5,0-9,4-9,9c0,5,4,9,9,9c5,0,9-4,9-9C116.3,145.8,112.2,141.8,107.3,141.8z"/>
	</g>
</g>
<g id="g3435">
	<g id="g3433">
		<path id="path3431" class="st0" d="M142.6,186.8l-3.3-3.3c-3.7-3.7-9.8-3.7-13.5,0c-3.7,3.7-3.7,9.8,0,13.5l3.3,3.3
			c1.9,1.9,4.3,2.8,6.7,2.8s4.9-0.9,6.7-2.8C146.4,196.6,146.4,190.6,142.6,186.8z"/>
	</g>
</g>
<g id="g3441">
	<g id="g3439">
		<path id="path3437" class="st0" d="M169.6,183.5c-3.7-3.7-9.8-3.7-13.5,0l-3.3,3.3c-3.7,3.7-3.7,9.8,0,13.5
			c1.9,1.9,4.3,2.8,6.7,2.8c2.5,0,4.9-0.9,6.8-2.8l3.3-3.3C173.3,193.3,173.3,187.2,169.6,183.5z"/>
	</g>
</g>
<g id="g3447">
	<g id="g3445">
		<path id="path3443" class="st0" d="M188.2,141.8c-5,0-9,4-9,9c0,5,4,9,9,9c5,0,9-4,9-9C197.2,145.8,193.1,141.8,188.2,141.8z"/>
	</g>
</g>
<g id="g3457">
	<g id="g3455">
		<g id="g3453">
			<path id="path3449" class="st0" d="M354,241.5c-3.1-2.9-6.2-5.7-9.5-8.4c-1.6-1.4-3.3-2.7-5-4c-8.4-6.7-17.4-12.9-26.9-18.6
				c-1.6-0.9-3.3-1.4-5-1.5c-1.4-0.1-2.7,0.1-4,0.6c-0.6,0.2-1.3,0.5-1.8,0.9c-0.6,0.3-1.1,0.8-1.7,1.2c-0.8,0.7-1.5,1.5-2,2.5
				c-0.4,0.6-0.7,1.3-0.9,1.9c-1.6,4.7,0.2,10,4.6,12.6c13.9,8.3,26.6,17.9,37.8,28.3c13.6,12.7,24.7,26.6,31.9,40.2
				c1,1.8,2.4,3.2,4,4.1s3.5,1.5,5.4,1.5c1.7,0,3.4-0.4,5-1.3c5.2-2.8,7.1-9.2,4.4-14.4c-5.8-10.9-13.4-21.6-22.6-31.9
				C363.3,250.6,358.8,246,354,241.5z"/>
			<path id="path3451" class="st0" d="M441.1,25.9c-39.1,0-70.9,31.8-70.9,70.9v92.9c-10-7.9-20.7-15.3-31.9-22
				c-15.8-9.5-32.1-17.4-48.7-23.6c3.9-7.8,5.9-16.4,5.9-25.3c0-31.3-25.5-56.7-56.7-56.7c-1.4,0-2.8,0.1-4.2,0.2
				c-18.4-30.2-51-48.7-86.8-48.7c-35.8,0-68.4,18.5-86.8,48.7c-1.4-0.1-2.7-0.2-4.2-0.2C25.5,62.1,0,87.6,0,118.9
				c0,31.3,25.5,56.7,56.7,56.7c3,0,6-0.2,8.9-0.7c0,0,0.1,0.1,0.1,0.1c1,26.2,14.6,50.5,36.2,65.2c4.5,21.7,15.4,44.5,31.7,66.2
				V428c0,11.4,4.4,22.1,12.5,30.2c4.8,4.8,10.8,8.4,17.2,10.5c5.5,17.2,21.7,29.7,40.7,29.7c23.6,0,42.7-19.2,42.7-42.7v-61.6
				c7,3.1,14.1,5.9,21.2,8.3c-6.7,7.1-10.9,16.6-10.9,27.1s4.1,20.4,11.5,27.8c5.3,5.3,11.9,8.9,19.1,10.5
				c1.6,7.2,5.2,13.8,10.5,19.1c7.4,7.4,17.3,11.5,27.8,11.5h68.8c30.7,0,55.6-24.9,55.6-55.5l1.2-264.2c5.8,3.2,12.5,5,19.6,5
				c22.5,0,40.8-18.3,40.8-40.8V96.8C512,57.7,480.2,25.9,441.1,25.9z M21.2,118.9c0-17.6,12.9-32.3,29.8-35.1
				c-3.3,10.1-5,20.7-5,31.4c0,13.5,2.7,26.8,7.9,39.1C35.7,152.8,21.2,137.5,21.2,118.9z M244.3,83.8c16.9,2.7,29.9,17.4,29.9,35.1
				c0,8.8-3.2,17.2-9,23.7c-6.1,6.8-14.6,11-23.7,11.7c1.4-3.4,2.7-6.8,3.7-10.4c2.8-9.3,4.1-18.9,4.1-28.7
				C249.3,104.5,247.6,93.9,244.3,83.8z M147.7,34.8c28.7,0,54.8,15,69.2,39.5c-14.9,23.8-41,38.4-69.2,38.4
				c-28.3,0-54.4-14.6-69.3-38.4C92.9,49.8,119,34.8,147.7,34.8z M86.8,172.3c0-0.3,0-0.6,0-0.9c0-2.4-0.8-4.7-2.3-6.6
				c-1.9-2.4-3.7-4.9-5.3-7.6c-7.8-12.6-12-27.2-12-42.1c0-6,0.6-11.9,1.9-17.6c19.3,22.8,47.8,36.3,78.5,36.3
				c30.6,0,59.1-13.5,78.4-36.4c1.3,5.7,1.9,11.6,1.9,17.6c0,7.7-1.1,15.4-3.3,22.7l0,0c-2.9,9.8-7.6,18.9-14,27
				c-1.5,1.9-2.3,4.2-2.3,6.6c0,0.3,0,0.6,0,0.9c-0.2,33.4-27.4,60.6-60.9,60.6c-10.9,0-21.5-2.9-30.8-8.4
				C98.4,213.7,86.9,193.7,86.8,172.3z M161.3,443.4c-0.1-0.1-0.1-0.1-0.2-0.1c-4.1-4.1-6.3-9.5-6.3-15.2v-97
				c2.1,2.2,4.3,4.3,6.5,6.4V443.4z M288.9,446c-2-0.9-3.8-2.1-5.3-3.7c-3.4-3.4-5.3-8-5.3-12.8c0-10,8.1-18.1,18.1-18.1h4.1
				c8.5,1.8,25.8,3.8,26.1,3.8h0.2c1.3,1.6,2.7,3.1,4.2,4.6h-5C308.8,419.8,294.3,430.6,288.9,446z M429.2,442.8
				c0,19-15.4,34.4-34.4,34.4H326c-4.8,0-9.4-1.9-12.8-5.3c-3.4-3.4-5.3-7.9-5.3-12.8c0-0.2,0-0.4,0-0.6c0.3-9.8,8.3-17.5,18.1-17.5
				c0,0,55.5,0,56,0c5.9,0,10.6-4.8,10.6-10.6c0-5.9-4.8-10.6-10.6-10.6c-28.1,0-50.9-22.8-50.9-50.9c0-5.9-4.8-10.6-10.6-10.6
				c-5.9,0-10.6,4.8-10.6,10.6c0,7.4,1.1,14.6,3.2,21.3h-10.4c-18.5-4-37.5-10.6-56-19.5v-41.8c0-5.9-4.8-10.6-10.6-10.6
				c-5.9,0-10.6,4.7-10.6,10.6v126.7c0,11.9-9.7,21.5-21.5,21.5c-11.9,0-21.5-9.7-21.5-21.5V309.5c0-5.9-4.8-10.6-10.6-10.6
				c-5.1,0-9.3,3.5-10.4,8.3c-3.1-3.6-6.1-7.2-8.9-10.8c-11.5-14.8-20.1-30-25.4-44.8c6.7,1.7,13.6,2.6,20.5,2.6
				c44.3,0,80.5-35.2,82-79.1c0,0,0.1-0.1,0.1-0.1c2.9,0.5,5.8,0.7,8.9,0.7c13.7,0,26.9-5,37.1-13.8c17.5,6,34.8,14.2,51.5,24.2
				c16.9,10.2,32.5,21.8,46.2,34.6c34.5,32.3,55.6,70.4,56.9,102.8L429.2,442.8z M490.8,142.9c0,10.8-8.8,19.6-19.6,19.6
				c-10.8,0-19.5-8.8-19.5-19.6l0,0V96.8c0-5.9-4.7-10.6-10.6-10.6c-5.9,0-10.6,4.8-10.6,10.6V257c-9.9-16.8-23.1-33.3-39.1-48.8
				V96.8c0-27.4,22.3-49.7,49.7-49.7c27.4,0,49.7,22.3,49.7,49.7V142.9z"/>
		</g>
	</g>
</g>
<g id="g3463">
	<g id="g3461">
		<path id="path3459" class="st0" d="M107.3,141.8c-5,0-9,4-9,9c0,5,4,9,9,9c5,0,9-4,9-9C116.3,145.8,112.2,141.8,107.3,141.8z"/>
	</g>
</g>
<g id="g3469">
	<g id="g3467">
		<path id="path3465" class="st0" d="M142.6,186.8l-3.3-3.3c-3.7-3.7-9.8-3.7-13.5,0c-3.7,3.7-3.7,9.8,0,13.5l3.3,3.3
			c1.9,1.9,4.3,2.8,6.7,2.8s4.9-0.9,6.7-2.8C146.4,196.6,146.4,190.6,142.6,186.8z"/>
	</g>
</g>
<g id="g3475">
	<g id="g3473">
		<path id="path3471" class="st0" d="M169.6,183.5c-3.7-3.7-9.8-3.7-13.5,0l-3.3,3.3c-3.7,3.7-3.7,9.8,0,13.5
			c1.9,1.9,4.3,2.8,6.7,2.8c2.5,0,4.9-0.9,6.8-2.8l3.3-3.3C173.3,193.3,173.3,187.2,169.6,183.5z"/>
	</g>
</g>
<g id="SVGCleanerId_1">
	<g id="g3479">
		<path id="path3477" class="st0" d="M188.2,141.8c-5,0-9,4-9,9c0,5,4,9,9,9c5,0,9-4,9-9C197.2,145.8,193.1,141.8,188.2,141.8z"/>
	</g>
</g>
<g id="SVGCleanerId_2">
	<g id="g3484">
		<path id="path3482" class="st0" d="M390.1,287.2c-8.5-15.8-20.6-31.2-36.1-45.7c-12.3-11.5-26.2-21.9-41.4-31
			c-5-3-11.5-1.4-14.6,3.6c-3,5-1.4,11.5,3.6,14.6c13.9,8.3,26.6,17.9,37.8,28.3c13.6,12.7,24.7,26.6,31.9,40.2
			c1.9,3.6,5.6,5.6,9.4,5.6c1.7,0,3.4-0.4,5-1.3C390.9,298.8,392.9,292.4,390.1,287.2z"/>
	</g>
</g>
<g id="g3491">
	<g id="g3489">
		<path id="path3487" class="st0" d="M107.3,141.8c-5,0-9,4-9,9c0,5,4,9,9,9c5,0,9-4,9-9C116.3,145.8,112.2,141.8,107.3,141.8z"/>
	</g>
</g>
<g id="g3497">
	<g id="g3495">
		<path id="path3493" class="st0" d="M188.2,141.8c-5,0-9,4-9,9c0,5,4,9,9,9c5,0,9-4,9-9C197.2,145.8,193.1,141.8,188.2,141.8z"/>
	</g>
</g>
<g id="g3503">
	<g id="g3501">
		<path id="path3499" class="st0" d="M142.6,186.8l-3.3-3.3c-3.7-3.7-9.8-3.7-13.5,0c-3.7,3.7-3.7,9.8,0,13.5l3.3,3.3
			c1.9,1.9,4.3,2.8,6.7,2.8s4.9-0.9,6.7-2.8C146.4,196.6,146.4,190.6,142.6,186.8z"/>
	</g>
</g>
<g id="g3509">
	<g id="g3507">
		<path id="path3505" class="st0" d="M169.6,183.5c-3.7-3.7-9.8-3.7-13.5,0l-3.3,3.3c-3.7,3.7-3.7,9.8,0,13.5
			c1.9,1.9,4.3,2.8,6.7,2.8c2.5,0,4.9-0.9,6.8-2.8l3.3-3.3C173.3,193.3,173.3,187.2,169.6,183.5z"/>
	</g>
</g>
<g id="g3515">
	<g id="g3513">
		<path id="path3511" class="st0" d="M390.1,287.2c-8.5-15.8-20.6-31.2-36.1-45.7c-12.3-11.5-26.2-21.9-41.4-31
			c-5-3-11.5-1.4-14.6,3.6c-3,5-1.4,11.5,3.6,14.6c13.9,8.3,26.6,17.9,37.8,28.3c13.6,12.7,24.7,26.6,31.9,40.2
			c1.9,3.6,5.6,5.6,9.4,5.6c1.7,0,3.4-0.4,5-1.3C390.9,298.8,392.9,292.4,390.1,287.2z"/>
	</g>
</g>
<g id="g3517">
</g>
<g id="g3519">
</g>
<g id="g3521">
</g>
<g id="g3523">
</g>
<g id="g3525">
</g>
<g id="g3527">
</g>
<g id="g3529">
</g>
<g id="g3531">
</g>
<g id="g3533">
</g>
<g id="g3535">
</g>
<g id="g3537">
</g>
<g id="g3539">
</g>
<g id="g3541">
</g>
<g id="g3543">
</g>
<g id="g3545">
</g>
<path id="path4115" d="M323.7,476.6c-11.5-1.8-18.4-14-13.9-24.4c1.6-3.6,4.9-7.2,8.4-9.1c2.4-1.3,3.1-1.3,34.8-1.6
	c31.2-0.3,32.4-0.4,34.5-1.6c4-2.3,6.1-7.1,5.3-11.6c-1-5.4-5.9-9-12.2-9c-8.3,0-18.7-3.4-26.6-8.7c-13.4-9-22.4-25.6-22.5-41.4
	c0-11.8-15.2-15.6-20.7-5.2c-1.3,2.4-1.1,11.9,0.4,19c0.7,3.2,1.2,6.1,1.2,6.3c0,0.3-2.2,0.5-5,0.5c-9.5,0-31.3-6.6-52.3-15.8
	l-8-3.5l0-21.9c0-20-0.1-22.1-1.2-24.4c-3.7-8.2-15.1-8.3-19.6-0.1c-1,1.8-1.1,6.6-1.4,69.7l-0.3,67.7l-1.7,3.5
	c-2.2,4.4-6.8,8.6-11.3,10.3c-4.6,1.7-10.8,1.7-15.4,0c-4.8-1.8-10.1-7.1-11.9-11.9c-1.3-3.5-1.3-3.7-1.3-78.4
	c0-41.2-0.3-76.1-0.5-77.6c-1.9-9.8-14.9-12.1-20.1-3.5l-1.4,2.3l-5.4-6.7c-6.6-8.3-15-20.7-19.4-28.8c-2.9-5.4-8.8-18.2-8.4-18.5
	c0.1-0.1,2.2,0.3,4.7,0.8c3.1,0.6,8.1,1,15.1,1c11.4,0,18.5-1.1,27.6-4.4c24.8-8.9,44.2-29.6,51.5-54.9c1.3-4.6,3-14.1,3-17.2l0-2.2
	l9.4,0c7.9,0,10.2-0.2,14.3-1.4c6.5-1.9,13.9-5.4,18.6-8.9l3.9-2.9l6,2.2c46.4,17.3,90.4,49.5,117.9,86.2
	c16.4,21.9,26.9,45.2,29.4,65.1c0.5,4.1,0.5,22.3,0.1,68.9c-0.5,55.2-0.8,63.8-1.6,66.8c-3.5,11.9-12.4,20.8-24.4,24.4
	c-2.9,0.9-8.1,1-40,1.2C343.2,477.1,325.4,476.9,323.7,476.6L323.7,476.6z M384.7,302.4c2.4-0.9,5.1-3.5,6.1-5.9
	c2-4.8,0.6-9-7.3-20.9c-13.9-21.1-34.6-41.4-58.9-57.8c-12.3-8.3-13.4-8.8-17.2-8.8c-6.4,0-10.6,3.7-11,9.8
	c-0.4,6,0.9,7.5,12.9,15.5c25.8,17,45.3,36.4,58.9,58.5c4.1,6.7,5.1,7.9,7.5,9.1C378.6,303.2,382,303.5,384.7,302.4L384.7,302.4z"/>
<path id="path4117" d="M142.2,232.2c-15.2-1.3-30.9-9.5-40.7-21.3c-8.8-10.6-13.2-22-14.3-37.1l-0.5-6.5l-4.1-6
	c-6.5-9.5-9.8-16.6-12.4-26.7c-2.2-8.3-2.9-17.7-2.1-26.2c1-11,0.4-10.7,7.3-4c9.1,8.9,15.7,13.6,26.7,19
	c14.5,7.2,28.7,10.5,45.7,10.5c17,0,31.4-3.3,45.7-10.5c11.1-5.6,17.5-10.1,26.7-19c6.9-6.6,6.3-7,7.3,4.1
	c1.7,18.5-3.1,36.1-14.6,52.8l-4.1,6l-0.5,7c-1.8,23.7-13.7,41.7-34.1,52c-5.5,2.8-13.7,5.2-19.1,5.6c-2.3,0.2-4.8,0.4-5.7,0.5
	C148.4,232.6,145.2,232.5,142.2,232.2L142.2,232.2z M140.9,202c3.4-2,4.8-4.8,4.5-9.2c-0.2-2.8-0.6-4-2.1-5.8
	c-3.4-4.2-6.1-5.9-9.7-6.2c-7.3-0.6-12,4.6-10.6,11.9c0.5,2.6,5.7,8.6,8.6,9.9C134.5,203.8,138.1,203.5,140.9,202L140.9,202z
	 M163.6,202.5c3-1.3,8.3-7.2,8.8-9.9c1.4-7.3-3.3-12.5-10.5-11.9c-3.6,0.3-6.8,2.4-9.9,6.4c-2.3,3-2.8,8.1-1,11.3
	C153.2,202.6,159,204.5,163.6,202.5L163.6,202.5z M112.3,158.6c2.9-2.1,4-4.3,4-7.8c0-5.3-3.5-9-8.7-9.1c-5.8-0.1-9.4,3.4-9.4,9.1
	c0,4,1.7,6.8,5.1,8.4C106.3,160.5,109.9,160.3,112.3,158.6L112.3,158.6z M192.1,159.1c3.4-1.5,5.1-4.3,5.1-8.3c0-6.3-3.9-9.4-11.2-9
	c-2.3,0.1-5.9,3.4-6.7,6.2c-1.8,6,2.7,12,9,12.2C189,160.3,190.7,159.7,192.1,159.1L192.1,159.1z"/>
<path id="path4119" d="M135.4,111.4c-6.5-1-11.7-2.5-18.8-5.4c-14-5.7-27.5-16.5-35.6-28.7l-2.2-3.2l3-4.4
	c6.2-9.1,16.9-18.9,26.4-24.2c24.4-13.6,54.3-13.6,78.7,0c9.5,5.3,20.2,15.1,26.4,24.2l3,4.4l-2.2,3.2c-8.1,12.1-21.5,23-35.6,28.7
	C164.6,111.8,149.6,113.6,135.4,111.4L135.4,111.4z"/>
<path id="path4121" d="M45.8,152.1c-5.8-2-9.6-4.4-14.2-9c-2.7-2.8-4.7-5.5-6.2-8.7c-2.9-6-3.7-9.4-3.7-16.1
	c0-11.3,5.5-21.6,15-28.3c4-2.8,12.3-6.2,13.1-5.4c0.2,0.2-0.4,3.2-1.2,6.7c-4.4,18.4-3.6,37.4,2.4,55.8l2,6.3l-1.6,0
	C50.6,153.5,48,152.9,45.8,152.1z"/>
<path id="path4123" d="M242.4,152.8c0.2-0.4,1.2-3.4,2.3-6.6c5.6-17,6.4-36.6,2.1-54.7c-0.8-3.5-1.5-6.5-1.5-6.7
	c0-0.7,4.8,0.6,8.4,2.3c17.9,8.5,25.3,30.7,16,48.2c-2.6,4.8-8,10.6-12.5,13.3C251.2,152.2,241.5,154.9,242.4,152.8L242.4,152.8z"/>
<path id="path4125" d="M425.9,249.2C418,237,409,225.9,398,214.4l-6.3-6.6l0.2-59.9c0.2-67-0.1-62.2,4.8-72.2
	c5-10.3,12.5-17.9,22.4-22.8c8.5-4.2,14.2-5.4,24-5c6.8,0.3,8.8,0.6,13.4,2.1c7.8,2.7,13.5,6.3,19.6,12.4c8.5,8.6,13,18.2,14.2,30.1
	c0.8,7.9,0.8,48,0,52.7c-1.1,6.8-4.7,11.9-10.8,15.1c-2.6,1.4-3.9,1.6-8,1.6c-4.2,0-5.5-0.3-8.4-1.7c-4-2-7.5-5.5-9.4-9.6
	c-1.3-2.7-1.3-3.9-1.6-29.9c-0.3-29-0.3-29-3.5-31.8c-1.7-1.5-5.4-2.9-7.7-2.9c-2.8,0-7,2.2-8.7,4.5l-1.4,1.9l-0.3,81.7l-0.3,81.7
	L425.9,249.2z"/>
<path id="path4127" d="M284.9,442.6c-4.2-3.9-6-7.8-6-13.1c0-7.1,3.8-13,10.4-16.1c3.5-1.6,10.2-2,16.5-0.8
	c1.9,0.4,7.4,1.2,12.3,1.8c8.2,1.1,8.9,1.3,10.2,2.9l1.4,1.7l-5.4,0.4c-14.8,1.2-27,9-33.2,21.2c-1.3,2.5-2.5,4.5-2.8,4.5
	C287.9,445.2,286.4,444.1,284.9,442.6L284.9,442.6z"/>
<path id="path4129" d="M154.8,364.9v-33.8l1.8,1.8c1,1,2.5,2.4,3.2,3.2l1.4,1.3v30.6v30.6H158h-3.2L154.8,364.9z"/>
<path id="path4131" d="M134,230.7c-26-6.6-46.2-31.1-46.3-56.1c0-4.5-1-7.2-5.1-13.5c-6.7-10.4-10.8-19.6-12.8-29.4
	c-1.7-8.2-2.1-24.2-0.7-29.3c0.8-2.8,0.8-2.8,4.5,1.1c10.4,11,27.1,21.1,43.7,26.5c9.6,3.1,12.1,3.4,29.5,3.5
	c16.3,0.1,20.5-0.3,28.7-2.7c16.7-4.8,31-13,43-24.7c7.6-7.4,7.8-7.3,8.7,2.2c1.6,16.4-4,37.4-13.7,51.6c-3.4,4.9-5.1,8.8-5.1,11.5
	c-0.1,13.5-6.9,30.8-16.3,41.1C177.4,228.4,154,235.7,134,230.7L134,230.7z M139.5,203c0.6,0,2.2-1.1,3.6-2.5
	c6.4-6.4-0.6-19.9-10.5-19.9c-3.7,0-5.5,0.8-7.6,3.3c-3.5,4-3.5,7.2-0.3,12.4c2.6,4.2,9.4,8.3,12.1,7.3
	C137.6,203.3,138.9,203,139.5,203z M168.6,198.6c6.3-6.6,5.2-15-2.2-17.6c-5.2-1.8-11.4,0.8-14.7,6.2c-3,4.9-3.1,8.1-0.5,11.9
	C155.6,205.3,162.4,205.1,168.6,198.6L168.6,198.6z M114.2,157.4c3.3-3.7,3-10.7-0.6-13.6c-4.2-3.4-10.5-3-13.6,0.9
	c-3.2,4.1-3.2,7.9,0,12C103.4,160.9,110.8,161.2,114.2,157.4z M194.8,157.5c1.5-1.5,2.5-4.1,2.5-6.8c0-8.4-9.4-12.4-15.6-6.6
	c-6.2,5.8-2.2,15.8,6.4,15.8C190.7,159.9,193.3,159,194.8,157.5L194.8,157.5z"/>
</svg>
