<svg xmlns="http://www.w3.org/2000/svg" viewBox="0 0 512 512" xmlns:v="https://vecta.io/nano"><g fill="#fff"><path d="M354 241.5c-3.1-2.9-6.2-5.7-9.5-8.4-1.6-1.4-3.3-2.7-5-4-8.4-6.7-17.4-12.9-26.9-18.6-1.6-.9-3.3-1.4-5-1.5a9.08 9.08 0 0 0-4 .6c-.6.2-1.3.5-1.8.9-.6.3-1.1.8-1.7 1.2-.8.7-1.5 1.5-2 2.5-.4.6-.7 1.3-.9 1.9-1.6 4.7.2 10 4.6 12.6 13.9 8.3 26.6 17.9 37.8 28.3 13.6 12.7 24.7 26.6 31.9 40.2 1 1.8 2.4 3.2 4 4.1s3.5 1.5 5.4 1.5a10.09 10.09 0 0 0 5-1.3c5.2-2.8 7.1-9.2 4.4-14.4-5.8-10.9-13.4-21.6-22.6-31.9-4.4-4.6-8.9-9.2-13.7-13.7zm87.1-215.6c-39.1 0-70.9 31.8-70.9 70.9v92.9a300.18 300.18 0 0 0-31.9-22c-15.8-9.5-32.1-17.4-48.7-23.6 3.9-7.8 5.9-16.4 5.9-25.3 0-31.3-25.5-56.7-56.7-56.7-1.4 0-2.8.1-4.2.2-18.4-30.2-51-48.7-86.8-48.7S79.4 32.1 61 62.3c-1.4-.1-2.7-.2-4.2-.2C25.5 62.1 0 87.6 0 118.9s25.5 56.7 56.7 56.7c3 0 6-.2 8.9-.7l.1.1c1 26.2 14.6 50.5 36.2 65.2 4.5 21.7 15.4 44.5 31.7 66.2V428c0 11.4 4.4 22.1 12.5 30.2 4.8 4.8 10.8 8.4 17.2 10.5 5.5 17.2 21.7 29.7 40.7 29.7 23.6 0 42.7-19.2 42.7-42.7v-61.6c7 3.1 14.1 5.9 21.2 8.3-6.7 7.1-10.9 16.6-10.9 27.1s4.1 20.4 11.5 27.8c5.3 5.3 11.9 8.9 19.1 10.5 1.6 7.2 5.2 13.8 10.5 19.1 7.4 7.4 17.3 11.5 27.8 11.5h68.8c30.7 0 55.6-24.9 55.6-55.5l1.2-264.2c5.8 3.2 12.5 5 19.6 5 22.5 0 40.8-18.3 40.8-40.8V96.8c.1-39.1-31.7-70.9-70.8-70.9zm-419.9 93c0-17.6 12.9-32.3 29.8-35.1-3.3 10.1-5 20.7-5 31.4 0 13.5 2.7 26.8 7.9 39.1-18.2-1.5-32.7-16.8-32.7-35.4zm223.1-35.1c16.9 2.7 29.9 17.4 29.9 35.1 0 8.8-3.2 17.2-9 23.7a35.53 35.53 0 0 1-23.7 11.7c1.4-3.4 2.7-6.8 3.7-10.4 2.8-9.3 4.1-18.9 4.1-28.7 0-10.7-1.7-21.3-5-31.4zm-96.6-49c28.7 0 54.8 15 69.2 39.5-14.9 23.8-41 38.4-69.2 38.4-28.3 0-54.4-14.6-69.3-38.4 14.5-24.5 40.6-39.5 69.3-39.5zM86.8 172.3v-.9c0-2.4-.8-4.7-2.3-6.6-1.9-2.4-3.7-4.9-5.3-7.6-7.8-12.6-12-27.2-12-42.1 0-6 .6-11.9 1.9-17.6 19.3 22.8 47.8 36.3 78.5 36.3 30.6 0 59.1-13.5 78.4-36.4 1.3 5.7 1.9 11.6 1.9 17.6 0 7.7-1.1 15.4-3.3 22.7h0c-2.9 9.8-7.6 18.9-14 27-1.5 1.9-2.3 4.2-2.3 6.6v.9c-.2 33.4-27.4 60.6-60.9 60.6-10.9 0-21.5-2.9-30.8-8.4-18.2-10.7-29.7-30.7-29.8-52.1zm74.5 271.1c-.1-.1-.1-.1-.2-.1a21.33 21.33 0 0 1-6.3-15.2v-97c2.1 2.2 4.3 4.3 6.5 6.4v105.9zm127.6 2.6c-2-.9-3.8-2.1-5.3-3.7a18.09 18.09 0 0 1-5.3-12.8 18.1 18.1 0 0 1 18.1-18.1h4.1c8.5 1.8 25.8 3.8 26.1 3.8h.2c1.3 1.6 2.7 3.1 4.2 4.6h-5c-17.2 0-31.7 10.8-37.1 26.2zm140.3-3.2c0 19-15.4 34.4-34.4 34.4H326a18.09 18.09 0 0 1-12.8-5.3c-3.4-3.4-5.3-7.9-5.3-12.8v-.6c.3-9.8 8.3-17.5 18.1-17.5h56c5.9 0 10.6-4.8 10.6-10.6 0-5.9-4.8-10.6-10.6-10.6-28.1 0-50.9-22.8-50.9-50.9 0-5.9-4.8-10.6-10.6-10.6-5.9 0-10.6 4.8-10.6 10.6 0 7.4 1.1 14.6 3.2 21.3h-10.4c-18.5-4-37.5-10.6-56-19.5v-41.8c0-5.9-4.8-10.6-10.6-10.6a10.54 10.54 0 0 0-10.6 10.6v126.7c0 11.9-9.7 21.5-21.5 21.5-11.9 0-21.5-9.7-21.5-21.5V309.5c0-5.9-4.8-10.6-10.6-10.6-5.1 0-9.3 3.5-10.4 8.3-3.1-3.6-6.1-7.2-8.9-10.8-11.5-14.8-20.1-30-25.4-44.8 6.7 1.7 13.6 2.6 20.5 2.6 44.3 0 80.5-35.2 82-79.1l.1-.1c2.9.5 5.8.7 8.9.7a56.94 56.94 0 0 0 37.1-13.8c17.5 6 34.8 14.2 51.5 24.2 16.9 10.2 32.5 21.8 46.2 34.6 34.5 32.3 55.6 70.4 56.9 102.8l-1.2 119.3zm61.6-299.9c0 10.8-8.8 19.6-19.6 19.6s-19.5-8.8-19.5-19.6h0V96.8a10.54 10.54 0 0 0-10.6-10.6c-5.9 0-10.6 4.8-10.6 10.6V257c-9.9-16.8-23.1-33.3-39.1-48.8V96.8c0-27.4 22.3-49.7 49.7-49.7s49.7 22.3 49.7 49.7v46.1zm-383.5-1.1a9 9 0 1 0 0 18 8.96 8.96 0 0 0 9-9c0-5-4.1-9-9-9zm80.9 0a9 9 0 1 0 0 18 8.96 8.96 0 0 0 9-9c0-5-4.1-9-9-9z"/><path d="M142.6 186.8l-3.3-3.3c-3.7-3.7-9.8-3.7-13.5 0s-3.7 9.8 0 13.5l3.3 3.3a9.39 9.39 0 0 0 6.7 2.8c2.4 0 4.9-.9 6.7-2.8 3.9-3.7 3.9-9.7.1-13.5zm27-3.3c-3.7-3.7-9.8-3.7-13.5 0l-3.3 3.3c-3.7 3.7-3.7 9.8 0 13.5a9.39 9.39 0 0 0 6.7 2.8c2.5 0 4.9-.9 6.8-2.8l3.3-3.3c3.7-3.7 3.7-9.8 0-13.5zm220.5 103.7c-8.5-15.8-20.6-31.2-36.1-45.7-12.3-11.5-26.2-21.9-41.4-31-5-3-11.5-1.4-14.6 3.6-3 5-1.4 11.5 3.6 14.6 13.9 8.3 26.6 17.9 37.8 28.3 13.6 12.7 24.7 26.6 31.9 40.2 1.9 3.6 5.6 5.6 9.4 5.6a10.09 10.09 0 0 0 5-1.3c5.2-2.7 7.2-9.1 4.4-14.3z"/></g><path d="M323.7 476.6c-11.5-1.8-18.4-14-13.9-24.4 1.6-3.6 4.9-7.2 8.4-9.1 2.4-1.3 3.1-1.3 34.8-1.6 31.2-.3 32.4-.4 34.5-1.6 4-2.3 6.1-7.1 5.3-11.6-1-5.4-5.9-9-12.2-9-8.3 0-18.7-3.4-26.6-8.7-13.4-9-22.4-25.6-22.5-41.4 0-11.8-15.2-15.6-20.7-5.2-1.3 2.4-1.1 11.9.4 19 .7 3.2 1.2 6.1 1.2 6.3 0 .3-2.2.5-5 .5-9.5 0-31.3-6.6-52.3-15.8l-8-3.5v-21.9c0-20-.1-22.1-1.2-24.4-3.7-8.2-15.1-8.3-19.6-.1-1 1.8-1.1 6.6-1.4 69.7l-.3 67.7-1.7 3.5c-2.2 4.4-6.8 8.6-11.3 10.3-4.6 1.7-10.8 1.7-15.4 0-4.8-1.8-10.1-7.1-11.9-11.9-1.3-3.5-1.3-3.7-1.3-78.4l-.5-77.6c-1.9-9.8-14.9-12.1-20.1-3.5l-1.4 2.3-5.4-6.7c-6.6-8.3-15-20.7-19.4-28.8-2.9-5.4-8.8-18.2-8.4-18.5.1-.1 2.2.3 4.7.8 3.1.6 8.1 1 15.1 1 11.4 0 18.5-1.1 27.6-4.4 24.8-8.9 44.2-29.6 51.5-54.9 1.3-4.6 3-14.1 3-17.2v-2.2h9.4c7.9 0 10.2-.2 14.3-1.4 6.5-1.9 13.9-5.4 18.6-8.9l3.9-2.9 6 2.2c46.4 17.3 90.4 49.5 117.9 86.2 16.4 21.9 26.9 45.2 29.4 65.1.5 4.1.5 22.3.1 68.9l-1.6 66.8c-3.5 11.9-12.4 20.8-24.4 24.4-2.9.9-8.1 1-40 1.2-20.1.2-37.9 0-39.6-.3h0zm61-174.2c2.4-.9 5.1-3.5 6.1-5.9 2-4.8.6-9-7.3-20.9-13.9-21.1-34.6-41.4-58.9-57.8-12.3-8.3-13.4-8.8-17.2-8.8-6.4 0-10.6 3.7-11 9.8-.4 6 .9 7.5 12.9 15.5 25.8 17 45.3 36.4 58.9 58.5 4.1 6.7 5.1 7.9 7.5 9.1 2.9 1.3 6.3 1.6 9 .5h0zm-242.5-70.2c-15.2-1.3-30.9-9.5-40.7-21.3-8.8-10.6-13.2-22-14.3-37.1l-.5-6.5-4.1-6c-6.5-9.5-9.8-16.6-12.4-26.7-2.2-8.3-2.9-17.7-2.1-26.2 1-11 .4-10.7 7.3-4 9.1 8.9 15.7 13.6 26.7 19 14.5 7.2 28.7 10.5 45.7 10.5s31.4-3.3 45.7-10.5c11.1-5.6 17.5-10.1 26.7-19 6.9-6.6 6.3-7 7.3 4.1 1.7 18.5-3.1 36.1-14.6 52.8l-4.1 6-.5 7c-1.8 23.7-13.7 41.7-34.1 52-5.5 2.8-13.7 5.2-19.1 5.6l-5.7.5c-1 .2-4.2.1-7.2-.2h0zm-1.3-30.2c3.4-2 4.8-4.8 4.5-9.2-.2-2.8-.6-4-2.1-5.8-3.4-4.2-6.1-5.9-9.7-6.2-7.3-.6-12 4.6-10.6 11.9.5 2.6 5.7 8.6 8.6 9.9 2.9 1.2 6.5.9 9.3-.6h0zm22.7.5c3-1.3 8.3-7.2 8.8-9.9 1.4-7.3-3.3-12.5-10.5-11.9-3.6.3-6.8 2.4-9.9 6.4-2.3 3-2.8 8.1-1 11.3 2.2 4.2 8 6.1 12.6 4.1h0zm-51.3-43.9c2.9-2.1 4-4.3 4-7.8 0-5.3-3.5-9-8.7-9.1-5.8-.1-9.4 3.4-9.4 9.1 0 4 1.7 6.8 5.1 8.4 3 1.3 6.6 1.1 9-.6h0zm79.8.5c3.4-1.5 5.1-4.3 5.1-8.3 0-6.3-3.9-9.4-11.2-9-2.3.1-5.9 3.4-6.7 6.2-1.8 6 2.7 12 9 12.2.7.1 2.4-.5 3.8-1.1h0zm-56.7-47.7c-6.5-1-11.7-2.5-18.8-5.4-14-5.7-27.5-16.5-35.6-28.7l-2.2-3.2 3-4.4c6.2-9.1 16.9-18.9 26.4-24.2 24.4-13.6 54.3-13.6 78.7 0 9.5 5.3 20.2 15.1 26.4 24.2l3 4.4-2.2 3.2c-8.1 12.1-21.5 23-35.6 28.7-13.9 5.8-28.9 7.6-43.1 5.4h0zm-89.6 40.7c-5.8-2-9.6-4.4-14.2-9-2.7-2.8-4.7-5.5-6.2-8.7-2.9-6-3.7-9.4-3.7-16.1 0-11.3 5.5-21.6 15-28.3 4-2.8 12.3-6.2 13.1-5.4.2.2-.4 3.2-1.2 6.7-4.4 18.4-3.6 37.4 2.4 55.8l2 6.3h-1.6c-.8.1-3.4-.5-5.6-1.3zm196.6.7c.2-.4 1.2-3.4 2.3-6.6 5.6-17 6.4-36.6 2.1-54.7l-1.5-6.7c0-.7 4.8.6 8.4 2.3 17.9 8.5 25.3 30.7 16 48.2-2.6 4.8-8 10.6-12.5 13.3-6 3.6-15.7 6.3-14.8 4.2h0zm183.5 96.4C418 237 409 225.9 398 214.4l-6.3-6.6.2-59.9c.2-67-.1-62.2 4.8-72.2 5-10.3 12.5-17.9 22.4-22.8 8.5-4.2 14.2-5.4 24-5 6.8.3 8.8.6 13.4 2.1 7.8 2.7 13.5 6.3 19.6 12.4 8.5 8.6 13 18.2 14.2 30.1.8 7.9.8 48 0 52.7-1.1 6.8-4.7 11.9-10.8 15.1-2.6 1.4-3.9 1.6-8 1.6-4.2 0-5.5-.3-8.4-1.7-4-2-7.5-5.5-9.4-9.6-1.3-2.7-1.3-3.9-1.6-29.9-.3-29-.3-29-3.5-31.8-1.7-1.5-5.4-2.9-7.7-2.9-2.8 0-7 2.2-8.7 4.5l-1.4 1.9-.6 163.4-4.3-6.6zm-141 193.4c-4.2-3.9-6-7.8-6-13.1 0-7.1 3.8-13 10.4-16.1 3.5-1.6 10.2-2 16.5-.8 1.9.4 7.4 1.2 12.3 1.8 8.2 1.1 8.9 1.3 10.2 2.9l1.4 1.7-5.4.4c-14.8 1.2-27 9-33.2 21.2-1.3 2.5-2.5 4.5-2.8 4.5-.4.1-1.9-1-3.4-2.5h0zm-130.1-77.7v-33.8l5 5 1.4 1.3v61.2h-6.4v-33.7z"/><path d="M134 230.7c-26-6.6-46.2-31.1-46.3-56.1 0-4.5-1-7.2-5.1-13.5-6.7-10.4-10.8-19.6-12.8-29.4-1.7-8.2-2.1-24.2-.7-29.3.8-2.8.8-2.8 4.5 1.1 10.4 11 27.1 21.1 43.7 26.5 9.6 3.1 12.1 3.4 29.5 3.5 16.3.1 20.5-.3 28.7-2.7 16.7-4.8 31-13 43-24.7 7.6-7.4 7.8-7.3 8.7 2.2 1.6 16.4-4 37.4-13.7 51.6-3.4 4.9-5.1 8.8-5.1 11.5-.1 13.5-6.9 30.8-16.3 41.1-14.7 15.9-38.1 23.2-58.1 18.2h0zm5.5-27.7c.6 0 2.2-1.1 3.6-2.5 6.4-6.4-.6-19.9-10.5-19.9-3.7 0-5.5.8-7.6 3.3-3.5 4-3.5 7.2-.3 12.4 2.6 4.2 9.4 8.3 12.1 7.3.8-.3 2.1-.6 2.7-.6zm29.1-4.4c6.3-6.6 5.2-15-2.2-17.6-5.2-1.8-11.4.8-14.7 6.2-3 4.9-3.1 8.1-.5 11.9 4.4 6.2 11.2 6 17.4-.5h0zm-54.4-41.2c3.3-3.7 3-10.7-.6-13.6-4.2-3.4-10.5-3-13.6.9-3.2 4.1-3.2 7.9 0 12 3.4 4.2 10.8 4.5 14.2.7zm80.6.1c1.5-1.5 2.5-4.1 2.5-6.8 0-8.4-9.4-12.4-15.6-6.6s-2.2 15.8 6.4 15.8c2.6 0 5.2-.9 6.7-2.4h0z"/></svg>