<?xml version="1.0" encoding="UTF-8" standalone="no"?>
<svg
   xmlns:dc="http://purl.org/dc/elements/1.1/"
   xmlns:cc="http://creativecommons.org/ns#"
   xmlns:rdf="http://www.w3.org/1999/02/22-rdf-syntax-ns#"
   xmlns:svg="http://www.w3.org/2000/svg"
   xmlns="http://www.w3.org/2000/svg"
   xmlns:sodipodi="http://sodipodi.sourceforge.net/DTD/sodipodi-0.dtd"
   xmlns:inkscape="http://www.inkscape.org/namespaces/inkscape"
   inkscape:version="1.0 (4035a4fb49, 2020-05-01)"
   sodipodi:docname="o.svg"
   version="1.1"
   viewBox="-60 -60 628 628"
   enable-background="new 0 0 500 500"
   id="Capa_1">
  <metadata
     id="metadata1014">
    <rdf:RDF>
      <cc:Work
         rdf:about="">
        <dc:format>image/svg+xml</dc:format>
        <dc:type
           rdf:resource="http://purl.org/dc/dcmitype/StillImage" />
      </cc:Work>
    </rdf:RDF>
  </metadata>
  <defs
     id="defs1012" />
  <sodipodi:namedview
     inkscape:current-layer="Capa_1"
     inkscape:window-maximized="0"
     inkscape:window-y="46"
     inkscape:window-x="0"
     inkscape:cy="247.57528"
     inkscape:cx="-109.36694"
     inkscape:zoom="0.66242038"
     showgrid="false"
     id="namedview1010"
     inkscape:window-height="1034"
     inkscape:window-width="1920"
     inkscape:pageshadow="2"
     inkscape:pageopacity="0"
     guidetolerance="10"
     gridtolerance="10"
     objecttolerance="10"
     borderopacity="1"
     bordercolor="#666666"
     pagecolor="#ffffff" />
  <g
     id="g1007">
    <path
       id="path993"
       d="m436 149.994v248.211c0 3.984-1.582 7.793-4.395 10.605l-45.582 45.582c3.81 5.387 7.557 10.818 12.198 15.692 25.737 27.026 61.469 41.909 98.778 41.909 8.291 0 15-6.709 15-15v-212c0-72.854-32.287-140.217-84.08-187.683 5.219 16.844 8.081 34.558 8.081 52.684z" />
    <path
       id="path995"
       d="m15 511.994c44.394 0 85.728-22.46 110.678-57.891l-45.283-45.293c-2.813-2.812-4.395-6.621-4.395-10.605v-248.211c0-17.225 2.635-33.906 7.181-49.838-51.253 49.265-83.181 119.097-83.181 193.055v203.782c0 8.292 6.709 15.001 15 15.001z" />
    <path
       id="path997"
       d="m140.395 175.599-4.788-4.788c-18.769 23.5-29.607 53.051-29.607 84.183v130.789c0 3.984 1.582 7.793 4.395 10.605l25.605 25.613v-122.007c0-43 22.927-80.491 57.008-101.682 1.89-5.887 2.992-12.019 2.992-18.318 0-16.699-6.973-32.534-18.999-43.799-7.185 3.876-13.753 8.558-20.017 13.572l4.622 4.622c5.859 5.859 5.859 15.352 0 21.211s-15.352 5.858-21.211-.001z" />
    <path
       id="path999"
       d="m401.605 396.388c2.813-2.813 4.395-6.621 4.395-10.605v-130.789c0-31.132-10.838-60.683-29.606-84.183l-4.788 4.788c-5.859 5.859-15.352 5.859-21.211 0s-5.859-15.352 0-21.211l4.622-4.622c-6.264-5.013-12.832-9.695-20.017-13.572-12.027 11.265-19 27.1-19 43.8 0 6.432 1.335 12.552 3.243 18.455 33.946 21.22 56.757 58.647 56.757 101.545v122z" />
    <path
       id="path1001"
       d="m406 149.994c0-80.519-65.2-149.876-149.998-149.988-81.477-.108-150.002 65.419-150.002 149.988v10.882c16.756-24.016 39.868-43.802 66.724-56.028 4.819-2.227 10.474-1.685 14.795 1.362 24.096 16.831 38.481 44.414 38.481 73.784 0 1.469-.251 2.9-.32 4.36 9.743-2.562 19.785-4.36 30.32-4.36 10.605 0 20.707 1.824 30.509 4.42-.073-1.498-.509-2.908-.509-4.42 0-29.37 14.385-56.953 38.481-73.784 4.336-3.047 10.005-3.589 14.795-1.362 26.404 12.019 50.114 32.219 66.724 56.028z" />
    <path
       id="path1003"
       d="m260.087 270.049h-8.174c-3.311-.059-7.866-.129-10.723.179.688 8.877 7.075 14.766 14.81 14.766 8.188 0 14.854-6.592 15-14.736-2.812-.352-7.529-.224-10.913-.209z" />
    <path
       id="path1005"
       d="m316 511.994c16.538 0 30-13.462 30-30v-182c0-49.629-40.371-90-90-90s-90 40.371-90 90v182c0 16.538 13.462 30 30 30 13.608 0 25.767-9.126 29.15-22.896l30.425-174.147c-24.617-.236-44.575-20.288-44.575-44.957 0-8.936 2.681-16.143 7.969-21.387 8.892-8.833 21.211-8.877 33.179-8.628h7.705c11.807-.146 24.287-.205 33.179 8.628 5.288 5.244 7.969 12.451 7.969 21.387 0 24.67-19.958 44.722-44.575 44.958l30.425 174.147c3.251 13.476 15.248 22.895 29.149 22.895z" />
  </g>
  <path
     sodipodi:nodetypes="cc"
     id="path1577"
     d="M 83.181,100.156 C 95.286696,-20.223539 335.78595,-118.45054 427.919,97.31"
     style="fill:none;stroke:#000000;stroke-width:1px;stroke-linecap:butt;stroke-linejoin:miter;stroke-opacity:1" />
  <path
     id="path1579"
     d="m 125.678,454.103 47.10328,46.71521"
     style="fill:none;stroke:#000000;stroke-width:1px;stroke-linecap:butt;stroke-linejoin:miter;stroke-opacity:1" />
  <path
     id="path1581"
     d="m 386.023,454.392 -49.44708,49.42091"
     style="fill:none;stroke:#000000;stroke-width:1px;stroke-linecap:butt;stroke-linejoin:miter;stroke-opacity:1" />
  <path
     id="path1583"
     d="M 194.41884,511.9768 316,511.994"
     style="fill:none;stroke:#000000;stroke-width:1px;stroke-linecap:butt;stroke-linejoin:miter;stroke-opacity:1" />
  <path
     transform="translate(-60,-60)"
     id="path1585"
     d="m 184.17208,511.44398 c -23.66752,-23.28166 -43.95942,-43.77136 -45.09312,-45.53267 -2.00873,-3.12078 -2.06128,-6.61604 -2.062,-137.16851 -7.8e-4,-141.10282 0.0782,-143.73507 4.82897,-160.98422 0.91997,-3.34024 2.63631,-10.60382 3.81407,-16.14129 7.83764,-36.84998 34.16081,-70.0048 74.38532,-93.690501 55.46176,-32.657962 123.22626,-35.569749 175.28346,-7.531793 21.34096,11.494218 45.79283,32.873681 60.74679,53.113894 13.80747,18.68841 30.15903,49.29152 33.82155,63.29942 5.19393,19.86497 5.03425,15.27844 5.47032,157.13092 0.2256,73.38783 0.11372,135.04842 -0.24862,137.02355 -0.83706,4.5628 -2.06957,5.86472 -50.14605,52.97039 l -39.50313,38.70544 0.28778,-102.42125 c 0.28152,-100.19237 0.23998,-102.62276 -1.90882,-111.68104 -7.78324,-32.81035 -33.68276,-58.5882 -66.75688,-66.44329 -12.21289,-2.90055 -30.95446,-2.92671 -42.1382,-0.0588 -17.60342,4.51413 -31.0781,12.10996 -43.20135,24.35311 -12.33907,12.46108 -20.67824,27.86521 -24.1244,44.56265 -1.86592,9.04075 -1.99789,16.13353 -2.01099,108.07936 -0.009,64.83849 0.36027,99.38809 1.0833,101.28981 0.60353,1.5874 0.9638,3.0142 0.80059,3.17065 -0.1632,0.15646 -19.66106,-18.76416 -43.32859,-42.04582 z m 12.60927,-95.56342 c 0,-72.82864 0.21676,-76.05824 6.30638,-93.96225 7.85706,-23.10045 25.33414,-46.30684 44.41613,-58.97656 6.68121,-4.43608 7.75632,-6.86326 8.67985,-19.59569 1.09224,-15.05826 -4.30454,-31.23145 -14.19382,-42.53639 l -4.85141,-5.54589 -3.89981,2.34135 c -6.72215,4.03579 -16.11199,11.00735 -16.14447,11.98658 -0.0171,0.51595 1.62299,2.76898 3.64467,5.00674 4.998,5.53219 5.89558,10.72267 2.84775,16.46789 -2.78626,5.25214 -7.04259,8.00988 -12.36258,8.00988 -4.68159,0 -7.39221,-1.28164 -12.12357,-5.73225 l -3.5519,-3.34116 -2.64667,3.20238 c -8.64086,10.45514 -19.41401,33.1865 -24.04622,50.73758 -2.34663,8.89119 -2.39212,10.3239 -2.76046,86.95102 -0.20599,42.85098 -0.0822,79.07551 0.27504,80.49895 0.63215,2.51868 27.7661,31.06419 29.52809,31.06419 0.48565,0 0.883,-29.95936 0.883,-66.57637 z m 269.36273,33.61857 c 1.19792,-6.12617 0.80905,-136.98194 -0.44036,-148.18674 -2.72891,-24.47319 -13.51435,-52.24781 -26.03284,-67.03974 l -3.61359,-4.26984 -4.25336,4.12294 c -9.78224,9.48227 -24.7331,4.14287 -24.7331,-8.83294 0,-5.02847 1.31246,-7.82423 6.13279,-13.06383 l 2.60299,-2.8294 -5.70221,-4.19219 c -3.13621,-2.3057 -7.93301,-5.49159 -10.65955,-7.07974 l -4.95732,-2.88756 -4.37779,5.10558 c -5.23782,6.10859 -11.11879,17.82278 -13.01336,25.92104 -1.76458,7.54266 -1.77416,18.03323 -0.0239,26.15275 1.3251,6.14707 1.64498,6.58515 7.95041,10.88831 8.28018,5.65085 21.48363,18.87967 28.55281,28.60768 8.95726,12.32622 15.62784,27.67301 19.71908,45.36702 1.62579,7.03125 1.90669,16.38547 2.30734,76.83382 l 0.45619,68.82786 14.69064,-14.92117 c 11.22702,-11.4032 14.85674,-15.77059 15.3951,-18.52385 z M 295.18468,242.69606 c 10.41741,-2.29116 31.00208,-2.30223 41.23677,-0.0222 4.29486,0.9568 8.3779,1.73715 9.0734,1.73409 0.85391,-0.004 1.33563,-2.86337 1.48347,-8.80654 0.5928,-23.83046 14.3292,-50.69705 33.43848,-65.4013 8.87715,-6.83083 13.10863,-7.32523 22.86054,-2.67108 18.56899,8.86217 43.5541,29.28127 56.33419,46.03917 3.08763,4.04865 5.97908,7.36119 6.42544,7.36119 2.47528,0 -0.10536,-30.20028 -3.9733,-46.49892 -12.59561,-53.07443 -54.09968,-95.590565 -107.18304,-109.796605 -28.46663,-7.61817 -64.4434,-6.061433 -90.84934,3.931108 -35.54845,13.45225 -65.38442,39.821087 -82.01277,72.482357 -10.45081,20.52739 -15.06668,39.05847 -15.77635,63.33646 l -0.49924,17.07935 2.97656,-3.70666 c 18.14586,-22.5966 35.69846,-37.59951 56.64873,-48.41989 11.80895,-6.09909 15.86158,-6.40911 22.89362,-1.75127 7.06977,4.68283 19.1148,17.78748 24.14155,26.26536 7.82396,13.19552 12.97708,30.71257 12.97708,44.11308 0,3.54737 0.44896,6.44976 0.99767,6.44976 0.54873,0 4.51167,-0.77286 8.80654,-1.71746 z"
     style="fill:#ffffff;stroke-width:1.06746" />
  <path
     transform="translate(-60,-60)"
     id="path1587"
     d="m 265.9042,570.5802 c 2.38563,-0.87841 6.06123,-2.82145 7.92408,-4.1889 4.82373,-3.54095 9.51609,-10.18212 11.05006,-15.63933 0.62775,-2.23329 30.93988,-175.48925 30.73814,-175.69099 -0.0666,-0.0666 -1.83714,-0.30992 -3.93454,-0.54071 -17.98314,-1.97882 -33.0353,-14.20357 -38.37718,-31.16839 -1.55434,-4.9363 -1.92262,-7.56542 -1.90082,-13.56987 0.0237,-6.52113 0.6931,-9.71384 3.04196,-14.50815 2.07601,-4.23738 7.08361,-9.17137 11.45625,-11.28785 7.12939,-3.45083 11.51467,-3.95359 32.52115,-3.72849 14.28186,0.15305 16.30174,0.25102 19.3437,0.93829 6.98257,1.57755 11.056,3.70438 15.2894,7.98292 5.88148,5.94419 8.4204,14.26261 7.51958,24.63691 -1.52305,17.54029 -13.21401,32.55844 -29.87592,38.37845 -3.32883,1.16277 -7.58184,2.06156 -11.89761,2.51433 -1.85457,0.19457 -2.35877,0.38239 -2.35877,0.87867 0,1.29378 30.21797,173.54791 30.79085,175.51974 2.43798,8.39154 9.62175,15.99661 18.08293,19.14344 l 2.26444,0.84217 -51.51562,-0.007 c -43.1184,-0.006 -51.295,-0.0882 -50.16208,-0.50532 z m 56.67622,-226.95027 c 4.60275,-2.26592 7.88133,-6.8553 8.47435,-11.86245 l 0.2128,-1.79676 h -15.1819 -15.18189 l 0.24825,1.60396 c 0.57359,3.70598 1.80666,6.38449 4.06899,8.83882 3.12139,3.38631 6.42007,4.6943 11.44976,4.54003 2.98692,-0.0916 3.75785,-0.26428 5.90964,-1.3236 z"
     style="fill:#ffffff;stroke-width:0.377404" />
  <path
     transform="translate(-60,-60)"
     id="path1589"
     d="m 402.49176,556.6823 c 0,-0.1619 0.4096,-1.10266 0.91022,-2.09063 0.50063,-0.98793 1.22241,-2.80796 1.60397,-4.04452 0.66595,-2.15826 0.69374,-6.23871 0.69374,-101.88292 0,-94.10291 -0.0375,-99.84403 -0.67592,-103.40634 -5.24814,-29.28528 -23.06322,-53.22731 -49.14139,-66.04207 -8.54635,-4.19966 -15.49743,-6.47424 -25.06671,-8.20249 -4.18789,-0.75636 -5.95063,-0.85605 -14.9381,-0.84489 -10.89175,0.0136 -13.6733,0.30821 -21.51202,2.27897 -15.61228,3.92514 -29.47579,11.61306 -41.09107,22.78677 -14.00126,13.469 -23.19345,31.32159 -26.53301,51.53101 -0.65068,3.93761 -0.68601,9.20552 -0.68601,102.27644 0,92.63238 0.0373,98.25603 0.66608,100.46562 0.36634,1.28733 1.00748,3.13706 1.42475,4.11049 0.41727,0.97344 0.70686,1.82173 0.64353,1.88506 -0.0633,0.0633 -9.64861,-9.30146 -21.30063,-20.81065 -11.65201,-11.50916 -21.33048,-20.92576 -21.5077,-20.92576 -0.17722,0 -10.88265,-10.57203 -23.78984,-23.49339 -25.6522,-25.68037 -24.98893,-24.90458 -25.80586,-30.1835 -0.23359,-1.50943 -0.31726,-49.2191 -0.23084,-131.6284 0.14577,-139.01205 0.037,-131.04485 1.96586,-143.9511 1.26437,-8.45989 4.66417,-23.48166 5.42604,-23.97454 0.17664,-0.11428 0.43968,-1.22676 0.58455,-2.4722 0.56876,-4.88961 2.56856,-13.67518 4.31789,-18.96952 4.36063,-13.19742 11.43864,-26.21806 20.85643,-38.36735 l 2.78099,-3.587561 22.18171,-0.01314 22.18171,-0.01314 -6.17335,6.132821 c -12.27749,12.19687 -20.66111,23.66411 -28.21254,38.58954 -11.57184,22.8718 -16.68606,46.1395 -16.13436,73.40505 l 0.11837,5.84976 3.26401,-4.34015 c 16.17833,-21.51224 36.48695,-38.47164 59.67161,-49.83081 6.04712,-2.96274 8.81343,-3.65774 12.12337,-3.04587 3.14783,0.58191 4.88169,1.46827 9.11452,4.65939 21.73407,16.38525 34.86055,42.10147 35.4663,69.48235 0.0728,3.28912 0.2104,6.05831 0.30587,6.15378 0.0955,0.0955 2.9522,-0.42314 6.34832,-1.15244 17.86431,-3.83631 31.71787,-3.72007 49.26897,0.41338 2.34442,0.55213 4.38455,0.88192 4.53361,0.73286 0.14906,-0.14907 0.22481,-2.25947 0.16834,-4.68979 -0.37644,-16.19914 5.55576,-35.33418 15.50753,-50.02144 4.54871,-6.71319 12.59356,-15.22248 19.34774,-20.4647 5.80363,-4.50446 9.64849,-5.90294 14.01153,-5.09639 4.07064,0.7525 14.89287,6.2632 24.21373,12.32969 16.18483,10.5339 31.41601,24.76146 42.86344,40.03905 1.89737,2.53221 3.60284,4.61265 3.78993,4.6232 0.51699,0.0292 -0.0308,-20.48372 -0.71344,-26.71826 -3.83063,-34.98231 -19.26712,-66.66947 -44.65875,-91.67301 l -5.46148,-5.378011 h 18.28721 18.2872 l 4.17982,5.566711 c 10.75701,14.32625 21.24919,32.31757 28.99744,49.72296 1.20125,2.69843 2.34446,5.01188 2.54048,5.14099 0.8539,0.56243 4.39437,14.90451 5.90465,23.9191 2.26731,13.53316 2.1116,2.62433 2.1116,147.94231 v 132.46875 l -1.10559,2.45313 c -1.02819,2.28136 -2.75751,4.11064 -24.69801,26.1257 -12.97583,13.01994 -23.67985,23.58514 -23.78672,23.47829 -0.10687,-0.10688 -9.92453,9.53481 -21.81702,21.42594 -11.89248,11.89113 -21.6227,21.48779 -21.6227,21.32588 z M 196.91739,346.38778 c 2.04664,-14.9795 5.52509,-26.53291 11.76631,-39.08095 9.7287,-19.55966 23.74894,-35.11017 43.5362,-48.28804 2.63037,-1.75177 4.70966,-17.4115 3.50839,-26.42279 -1.7543,-13.15993 -7.89489,-25.93059 -16.56966,-34.46015 l -2.23404,-2.19663 -3.35885,1.96762 c -4.12778,2.41807 -9.50996,6.09092 -13.64654,9.31252 l -3.11702,2.42756 3.2033,3.40285 c 4.79066,5.0891 6.48145,9.38429 5.58712,14.19328 -1.68599,9.06596 -10.63954,14.58083 -19.06453,11.74265 -2.97286,-1.00148 -3.94015,-1.67426 -7.70051,-5.3559 -1.69074,-1.65533 -3.2551,-2.89781 -3.47636,-2.76107 -0.71342,0.44093 -6.05896,7.9912 -9.13775,12.90656 -11.17194,17.83628 -18.55124,40.1111 -19.61571,59.21105 -0.18509,3.32116 -0.45091,37.11767 -0.5907,75.10337 -0.2344,63.69451 -0.20534,69.25325 0.37373,71.48716 0.34534,1.33224 0.98966,3.03056 1.43181,3.77404 0.44215,0.74348 6.93441,7.51136 14.42724,15.03975 l 13.62333,13.68796 0.21774,-65.58099 c 0.19215,-57.87501 0.29044,-66.11315 0.8365,-70.10985 z m 252.80464,122.1845 c 7.58693,-7.62272 13.8556,-14.23505 14.40983,-15.19981 2.30191,-4.00701 2.18367,0.50237 2.03524,-77.61393 -0.14799,-77.88981 -0.0289,-73.56045 -2.35826,-85.71317 -3.81933,-19.92585 -12.10361,-39.00671 -23.8079,-54.83582 -1.68395,-2.27741 -3.16789,-4.2469 -3.29765,-4.37666 -0.12976,-0.12976 -1.77303,1.24585 -3.65171,3.0569 -2.43888,2.35108 -4.1402,3.63601 -5.94874,4.49276 -2.29442,1.08694 -2.87135,1.19995 -6.12623,1.19995 -3.28281,0 -3.8061,-0.10478 -6.05653,-1.21266 -4.96867,-2.44607 -8.19908,-7.04745 -8.56805,-12.20429 -0.35716,-4.99171 1.07738,-8.29534 5.66586,-13.04805 l 3.32438,-3.44335 -3.68908,-2.8249 c -4.15012,-3.17793 -10.69464,-7.55816 -14.33132,-9.5919 l -2.42264,-1.35482 -0.96208,0.89407 c -1.76046,1.636 -6.65616,7.65263 -8.32146,10.22674 -8.66947,13.40071 -11.8274,30.30657 -8.38287,44.87741 1.54048,6.51647 1.47338,6.40694 5.65178,9.22438 11.6063,7.82597 23.11296,19.11879 31.11737,30.5391 11.04478,15.75818 17.34034,31.49992 20.67798,51.70432 0.80416,4.86798 0.8114,5.42808 0.92788,71.80108 0.0646,36.79216 0.24519,66.89484 0.40137,66.89484 0.15619,0 6.32696,-6.07149 13.71283,-13.49219 z"
     style="fill:#ffffff;stroke-width:0.377404" />
  <path
     transform="translate(-60,-60)"
     id="path1591"
     d="m 402.60553,556.41302 c 0.11661,-0.31135 0.76617,-1.83984 1.44349,-3.39663 l 1.23148,-2.83053 0.31202,-11.32211 c 0.17161,-6.22717 0.25407,-51.65716 0.18324,-100.95553 l -0.12879,-89.63342 -0.80708,-4.15144 C 401.2344,325.57732 392.66402,309.21749 379.81457,296.35304 365.3611,281.8827 345.96999,272.55191 325.7993,270.36148 c -8.03227,-0.87226 -19.65262,-0.38197 -27.2823,1.15109 -37.4594,7.5269 -65.80532,37.31816 -71.78121,75.44132 -0.64261,4.09948 -0.68033,9.77077 -0.68033,102.27644 0,92.45206 0.0373,98.06737 0.66608,100.27692 0.36634,1.28733 1.00748,3.13706 1.42475,4.11049 0.41727,0.97344 0.70311,1.82547 0.63521,1.89336 -0.0679,0.0679 -9.6533,-9.29689 -21.30087,-20.81061 -11.64757,-11.51376 -21.32229,-20.9341 -21.49938,-20.9341 -0.17709,0 -10.88241,-10.57203 -23.7896,-23.49339 -25.51469,-25.54271 -24.94891,-24.8849 -25.78286,-29.9769 -0.50224,-3.06665 -0.48328,-248.96315 0.0199,-258.45399 0.42268,-7.97209 1.43755,-16.62542 2.82751,-24.10909 1.11154,-5.98459 3.39588,-15.37346 4.13323,-16.98801 0.29442,-0.64467 0.72919,-2.53078 0.96615,-4.19136 2.89491,-20.28698 12.13943,-40.1715 27.3953,-58.926005 0.34538,-0.424587 4.31043,-0.515102 22.56429,-0.515102 h 22.14528 l -5.80214,5.755407 c -6.27125,6.22075 -10.60835,11.14197 -15.05051,17.07753 -15.96331,21.32994 -25.96663,46.71782 -28.79726,73.08587 -0.31966,2.97777 -0.67279,10.50908 -0.78471,16.73624 l -0.20351,11.32212 0.94771,-1.13221 c 0.52125,-0.62272 2.44022,-3.07301 4.26439,-5.44509 15.47949,-20.12889 35.68821,-36.73017 57.94016,-47.59731 6.05747,-2.95827 8.82832,-3.65306 12.13263,-3.04222 3.15156,0.5826 4.88194,1.46846 9.1425,4.68047 14.57658,10.98917 25.51091,26.44831 31.26607,44.20447 2.56498,7.91365 3.844,15.55313 4.22792,25.25312 0.24489,6.18701 0.27221,6.34942 1.04002,6.18249 15.27448,-3.32065 19.07561,-3.816 29.28253,-3.816 9.15291,0 13.88972,0.52463 23.62655,2.61678 3.34251,0.71821 6.16214,1.30583 6.26586,1.30583 0.10373,0 0.28634,-3.18434 0.40582,-7.07632 0.57546,-18.74532 6.64289,-36.07429 17.90339,-51.13317 3.79529,-5.07552 12.88386,-14.1775 17.73058,-17.75674 5.38374,-3.97582 9.10308,-5.22232 13.23928,-4.43702 6.02772,1.14443 21.4025,9.8178 33.48356,18.88907 12.57087,9.43905 24.74275,21.59769 33.70348,33.66679 1.80515,2.43135 3.40947,4.42687 3.56515,4.43449 0.4091,0.02 0.34525,-12.35474 -0.1002,-19.42243 -1.22055,-19.36546 -5.60278,-36.88591 -13.54591,-54.15746 -7.67103,-16.6799 -18.01545,-31.31093 -31.68627,-44.8167 l -5.44372,-5.378007 h 18.28698 18.28698 l 4.17982,5.566707 c 10.75701,14.32625 21.24919,32.31757 28.99744,49.72296 1.20125,2.69843 2.34142,5.01 2.53373,5.13681 0.87543,0.57731 4.36833,14.71297 5.9114,23.92328 2.26731,13.53316 2.1116,2.62433 2.1116,147.94231 v 132.46875 l -1.10559,2.45313 c -1.02819,2.28136 -2.75751,4.11064 -24.69801,26.1257 -12.97583,13.01994 -23.67985,23.58514 -23.78672,23.47829 -0.10687,-0.10688 -9.94663,9.53534 -21.86613,21.42718 -11.91951,11.89181 -21.57642,21.36672 -21.45982,21.05536 z M 196.93288,346.23253 c 2.6793,-19.78731 8.73051,-36.05965 19.30994,-51.92648 8.80265,-13.20205 19.46761,-23.98191 32.64557,-32.99726 2.17951,-1.49105 4.15754,-3.08331 4.39563,-3.53836 0.23808,-0.45505 0.90856,-2.86534 1.48995,-5.3562 0.97694,-4.18557 1.05808,-5.12959 1.07043,-12.45433 0.0115,-6.85692 -0.10123,-8.44699 -0.83657,-11.79351 -2.62755,-11.958 -8.31849,-22.68673 -16.02928,-30.21888 l -2.05519,-2.00757 -3.35823,1.96726 c -4.1272,2.41774 -9.50953,6.09071 -13.64593,9.31216 l -3.11702,2.42756 3.2033,3.40285 c 1.76181,1.87157 3.63592,4.28709 4.16468,5.36783 2.92941,5.98752 1.83989,12.17328 -3.00247,17.04648 -2.65857,2.67551 -5.38201,3.90894 -9.29317,4.20883 -4.82035,0.36959 -8.38938,-1.28669 -13.17139,-6.11249 -1.5516,-1.56581 -2.9408,-2.84692 -3.0871,-2.84692 -0.44632,0 -5.44842,6.85394 -8.59189,11.7727 -11.79685,18.45918 -19.34322,40.9535 -20.42313,60.87755 -0.55324,10.20707 -0.92958,142.56376 -0.41307,145.27582 0.83066,4.36164 1.22594,4.84923 15.86649,19.57159 l 13.80872,13.88588 0.21774,-65.59021 c 0.19429,-58.52931 0.28601,-66.09445 0.85199,-70.2743 z m 267.61227,106.31283 c 0.66651,-1.37051 1.18175,-3.25408 1.4127,-5.16447 0.54057,-4.47137 0.16764,-141.43554 -0.39778,-146.09287 -2.59797,-21.3991 -9.27897,-40.7498 -19.94706,-57.77423 -2.44091,-3.89528 -7.60042,-11.26054 -8.8137,-12.58168 -0.18582,-0.20233 -1.74875,1.03065 -3.74133,2.9515 -2.44486,2.35686 -4.14555,3.64169 -5.95514,4.49894 -2.29442,1.08694 -2.87135,1.19995 -6.12623,1.19995 -3.28281,0 -3.8061,-0.10478 -6.05653,-1.21266 -4.96867,-2.44607 -8.19908,-7.04745 -8.56805,-12.20429 -0.35719,-4.99217 1.07729,-8.29525 5.66719,-13.04942 l 3.3257,-3.44473 -4.25651,-3.2058 c -4.73523,-3.56635 -10.16014,-7.19144 -13.8494,-9.25459 l -2.43329,-1.36077 -2.25252,2.42983 c -8.25942,8.90957 -14.01117,20.40885 -15.84514,31.67863 -1.50353,9.23922 -0.97248,17.72196 1.63796,26.16445 l 0.7203,2.32954 4.50685,3.12904 c 12.25348,8.50741 23.85618,20.18302 31.6889,31.88803 10.48778,15.67266 16.18104,30.3029 19.41779,49.89879 0.80405,4.86793 0.81125,5.4251 0.9209,71.32933 0.0608,36.53269 0.20486,66.67782 0.32019,66.98918 0.14512,0.39182 4.4223,-3.67501 13.89237,-13.20913 11.2366,-11.31261 13.87024,-14.16091 14.73183,-15.93257 z"
     style="fill:#ffffff;stroke-width:0.377404" />
  <path
     transform="translate(-60,-60)"
     id="path1593"
     d="M 207.17642,534.56201 C 156.74577,485.00334 138.9829,467.04738 137.65758,464.28744 l -1.28149,-2.66865 V 330.05444 c 0,-105.46383 0.13939,-132.72909 0.70262,-137.43538 1.10846,-9.26214 2.6382,-17.59605 4.65711,-25.37161 1.02619,-3.95225 2.32553,-9.63871 2.88741,-12.6366 0.56189,-2.99788 1.64483,-7.73829 2.40653,-10.53423 14.00108,-51.393314 69.53019,-96.839868 133.98706,-109.658706 13.76369,-2.73725 21.50299,-3.47307 36.29362,-3.450646 14.39791,0.02183 21.78796,0.720297 33.89183,3.203276 55.91213,11.469771 101.07491,50.011421 130.31896,111.213436 2.59494,5.4307 5.17333,10.71994 5.72975,11.75387 1.24675,2.31665 4.48529,15.0526 5.90152,23.2084 2.47963,14.2798 2.42364,10.81482 2.42364,149.97505 v 131.83122 l -1.25633,2.40179 c -0.83595,1.59812 -9.14038,10.27409 -24.81843,25.92874 -25.76989,25.73147 -65.60001,64.84307 -65.81517,64.62791 -0.0744,-0.0744 0.33858,-1.65788 0.91777,-3.5188 1.03213,-3.31625 1.0534,-5.36014 1.06975,-102.81057 0.0182,-108.53957 0.17129,-102.76285 -3.01495,-113.78256 -4.44065,-15.35808 -12.50061,-28.54115 -24.50581,-40.08226 -24.2916,-23.35256 -59.04517,-31.08572 -91.2636,-20.30745 -27.05541,9.05105 -49.12288,32.0153 -57.33786,59.66797 -3.72538,12.54011 -3.50884,5.43908 -3.50884,115.06572 V 548.083 l 1.22755,3.3981 c 0.67515,1.86896 1.15544,3.47023 1.06729,3.55837 -0.0881,0.0881 -9.61064,-9.12671 -21.16109,-20.47746 z M 196.31333,399.80587 c 0.13349,-52.45255 0.2325,-54.5643 3.13267,-66.81592 6.70502,-28.32492 22.94863,-52.37242 47.33071,-70.06971 6.73891,-4.89132 6.83239,-5.01711 8.20756,-11.04476 1.07473,-4.71077 1.21907,-18.39228 0.24225,-22.96281 -1.85059,-8.65888 -5.89217,-17.97778 -10.51849,-24.25308 -2.95748,-4.01164 -7.12162,-8.57129 -7.82779,-8.57129 -0.83378,0 -10.58534,6.2952 -15.48299,9.99517 l -4.64541,3.50942 3.42096,3.69496 c 2.32215,2.50813 3.78838,4.66802 4.56482,6.72438 4.45569,11.80063 -7.85357,23.39522 -19.62966,18.48994 -0.94624,-0.39415 -3.42341,-2.31606 -5.50483,-4.27091 -4.54412,-4.26781 -3.94226,-4.53851 -10.06567,4.52717 -9.25653,13.70423 -15.67928,27.8327 -19.5099,42.917 -3.8126,15.01329 -3.62929,10.61331 -3.88338,93.2123 l -0.22904,74.45528 1.50923,2.80435 c 1.00655,1.8703 5.95344,7.36736 14.85247,16.50427 l 13.34324,13.69992 0.28494,-17.038 c 0.15672,-9.3709 0.34046,-38.84935 0.40831,-65.50768 z m 254.49933,67.79651 c 7.4016,-7.52968 13.23254,-13.91045 13.80991,-15.1121 0.57559,-1.19795 1.1582,-4.00341 1.37404,-6.61651 0.43708,-5.29156 0.39464,-80.45126 -0.0675,-119.55544 -0.29111,-24.63154 -0.41954,-27.50506 -1.49098,-33.3581 -3.90788,-21.34794 -11.79,-40.23142 -23.66038,-56.68402 -2.07482,-2.87574 -3.85714,-5.32201 -3.96069,-5.43614 -0.10357,-0.11414 -2.04789,1.42077 -4.32072,3.41092 -4.98895,4.36844 -6.84003,5.22622 -11.41248,5.28851 -6.65704,0.0907 -12.24667,-4.14913 -14.16366,-10.74334 -1.60913,-5.53524 -0.15046,-10.07107 5.05188,-15.70912 l 3.27552,-3.54984 -4.66901,-3.44298 c -5.49481,-4.05193 -10.18683,-7.19774 -13.34631,-8.94816 l -2.27254,-1.25903 -1.91119,1.83526 c -5.86599,5.63294 -12.36858,16.88834 -14.88098,25.75766 -3.13755,11.07618 -3.02883,22.99407 0.30377,33.30003 0.40991,1.26762 1.69317,2.50871 4.92293,4.76112 29.05219,20.26084 47.46121,50.54238 51.54756,84.79209 0.36839,3.08766 0.61513,25.77585 0.69075,63.51383 0.0647,32.29064 0.20266,61.65333 0.30659,65.25041 0.17454,6.04086 0.26049,6.50188 1.12594,6.0387 0.51534,-0.2758 6.70175,-6.36599 13.74757,-13.53375 z M 292.517,243.01758 c 15.88286,-3.48284 31.03537,-3.48284 46.91823,0 7.56522,1.65893 6.96295,2.0593 6.96662,-4.63121 0.0138,-25.21167 12.32737,-50.77129 32.5134,-67.48914 6.67571,-5.52875 9.77926,-7.04063 14.36424,-6.9975 3.27245,0.0308 4.03224,0.30054 11.6578,4.13886 22.37871,11.26429 42.03437,28.11939 59.49318,51.01651 0.77652,1.0184 1.60279,1.66583 1.83616,1.43875 0.6191,-0.60242 -0.66902,-25.84396 -1.65403,-32.41149 -6.81361,-45.42988 -34.54972,-85.86614 -74.70555,-108.912648 -15.45834,-8.87195 -33.15843,-14.916042 -52.58175,-17.955209 -4.8806,-0.763667 -9.30845,-0.958543 -21.61605,-0.95135 -16.54681,0.0097 -20.58027,0.403339 -33.27752,3.247903 C 224.4133,76.50892 178.8744,123.90146 168.39527,182.18931 c -1.75528,9.76336 -2.398,17.65685 -2.3703,29.11028 l 0.0232,9.60714 1.44269,-1.85163 c 7.43814,-9.54647 11.03192,-13.67017 17.95832,-20.60636 4.41977,-4.42602 10.36766,-9.90823 13.21753,-12.1827 7.98683,-6.37425 19.50489,-13.7762 28.41885,-18.26303 7.52388,-3.78713 8.32598,-4.07214 11.52775,-4.09621 4.14181,-0.0311 6.78719,1.04184 11.71395,4.75116 20.61496,15.52081 33.93055,40.67801 35.00005,66.12574 0.33953,8.07893 0.537,9.34027 1.46222,9.34027 0.37509,0 2.95243,-0.49788 5.72743,-1.10639 z"
     style="fill:#ffffff;stroke-width:0.53373" />
  <path
     transform="translate(-60,-60)"
     id="path1595"
     d="m 267.50015,569.99651 c 6.48736,-2.69566 12.43938,-8.34968 15.62143,-14.8393 2.15316,-4.39127 -0.0405,7.40041 20.52954,-110.3509 l 12.16752,-69.65172 -2.72334,-0.41696 c -9.66488,-1.47977 -15.63167,-3.57421 -21.72745,-7.62668 -9.22103,-6.13012 -15.8972,-15.453 -18.58099,-25.94722 -5.08373,-19.87859 3.10908,-35.64673 20.66152,-39.76582 3.55092,-0.83331 6.63455,-0.96547 22.52773,-0.96547 15.89319,0 18.97681,0.13216 22.52774,0.96547 10.77298,2.52813 17.96248,9.12715 21.04465,19.31626 1.56156,5.1622 1.29939,15.1715 -0.55918,21.34919 -2.50368,8.32193 -7.65934,16.50778 -13.49604,21.42817 -7.85583,6.62254 -15.24007,9.73358 -26.44822,11.14284 -2.03091,0.25535 -2.53522,0.52208 -2.53522,1.34085 0,0.56215 6.85309,40.22834 15.22908,88.14709 14.63265,83.71286 15.30198,87.27657 17.09064,90.99534 3.11025,6.46648 9.09531,12.16664 15.62252,14.87886 l 3.02894,1.2586 H 315.97611 264.4712 Z m 56.07452,-226.75512 c 4.0634,-2.38132 6.81192,-6.47268 7.51423,-11.18546 l 0.29826,-2.00149 -2.50166,-0.0568 c -10.47498,-0.23786 -22.71965,-0.26269 -25.05174,-0.0508 -3.20987,0.29164 -3.2752,0.45561 -1.95403,4.90446 0.64776,2.18125 1.56161,3.56545 3.86954,5.86111 3.64048,3.62114 5.43169,4.28355 11.0766,4.09626 3.55593,-0.11799 4.74829,-0.39489 6.7488,-1.56726 z"
     style="fill:#ffffff;stroke-width:0.53373" />
</svg>
