<svg xmlns="http://www.w3.org/2000/svg" viewBox="-60 -60 628 628" xmlns:v="https://vecta.io/nano"><path d="M436 149.994v248.2c0 3.984-1.582 7.793-4.395 10.605l-45.582 45.582c3.8 5.387 7.557 10.818 12.198 15.692 25.737 27.026 61.47 41.9 98.778 41.9 8.3 0 15-6.7 15-15v-212c0-72.854-32.287-140.217-84.08-187.683 5.22 16.844 8.08 34.558 8.08 52.684zm-421 362c44.394 0 85.728-22.46 110.678-57.9L80.395 408.8C77.582 405.998 76 402.2 76 398.205v-248.2c0-17.225 2.635-33.906 7.18-49.838C31.928 149.42 0 219.253 0 293.2v203.782c0 8.292 6.7 15 15 15zM140.395 175.6l-4.788-4.788c-18.77 23.5-29.607 53.05-29.607 84.183v130.8c0 3.984 1.582 7.793 4.395 10.605L136 422V299.994c0-43 22.927-80.5 57.008-101.682 1.9-5.887 2.992-12.02 2.992-18.318 0-16.7-6.973-32.534-19-43.8-7.185 3.876-13.753 8.558-20.017 13.572l4.622 4.622a15 15 0 0 1-21.211 21.21zm261.2 220.788A14.99 14.99 0 0 0 406 385.783v-130.8c0-31.132-10.838-60.683-29.606-84.183l-4.788 4.788a15 15 0 0 1-21.211-21.211l4.622-4.622c-6.264-5.013-12.832-9.695-20.017-13.572-12.027 11.265-19 27.1-19 43.8 0 6.432 1.335 12.552 3.243 18.455C353.2 219.67 376 257.096 376 299.994v122zM406 149.994C406 69.475 340.8.118 256.002.006 174.525-.102 106 65.425 106 149.994v10.882c16.756-24.016 39.868-43.802 66.724-56.028 4.82-2.227 10.474-1.685 14.795 1.362 24.096 16.83 38.48 44.414 38.48 73.784 0 1.47-.25 2.9-.32 4.36 9.743-2.562 19.785-4.36 30.32-4.36 10.605 0 20.707 1.824 30.5 4.42-.073-1.498-.5-2.908-.5-4.42 0-29.37 14.385-56.953 38.48-73.784 4.336-3.047 10.005-3.6 14.795-1.362 26.404 12.02 50.114 32.22 66.724 56.028zM260.087 270.05h-8.174c-3.3-.06-7.866-.13-10.723.18.688 8.877 7.075 14.766 14.8 14.766 8.188 0 14.854-6.592 15-14.736-2.812-.352-7.53-.224-10.913-.2zM316 511.994c16.538 0 30-13.462 30-30v-182c0-49.63-40.37-90-90-90s-90 40.37-90 90v182c0 16.538 13.462 30 30 30 13.608 0 25.767-9.126 29.15-22.896l30.425-174.147C230.958 314.715 211 294.663 211 269.994c0-8.936 2.68-16.143 7.97-21.387 8.892-8.833 21.2-8.877 33.18-8.628h7.705c11.807-.146 24.287-.205 33.18 8.628 5.288 5.244 7.97 12.45 7.97 21.387 0 24.67-19.958 44.722-44.575 44.958L286.85 489.1c3.25 13.476 15.248 22.895 29.15 22.895z"/><path d="M83.18 100.156C95.287-20.224 335.786-118.45 427.92 97.3M125.678 454.103l47.103 46.715m213.242-46.426l-49.447 49.42m-142.156 8.165l121.58.017" fill="none" stroke="#000"/><g fill="#fff"><path d="M124.172 451.444L79.08 405.9c-2-3.12-2.06-6.616-2.062-137.17-.001-141.103.078-143.735 4.83-160.984.92-3.34 2.636-10.604 3.814-16.14 7.838-36.85 34.16-70.005 74.385-93.7 55.462-32.658 123.226-35.57 175.283-7.532C356.67 1.9 381.122 23.27 396.076 43.5c13.807 18.688 30.16 49.292 33.822 63.3 5.194 19.865 5.034 15.278 5.47 157.13l-.25 137.024c-.837 4.563-2.07 5.865-50.146 52.97L345.47 492.64l.288-102.42c.282-100.192.24-102.623-1.9-111.68-7.783-32.8-33.683-58.588-66.757-66.443-12.213-2.9-30.954-2.927-42.138-.06-17.603 4.514-31.078 12.1-43.2 24.353-12.34 12.46-20.678 27.865-24.124 44.563-1.866 9.04-1.998 16.134-2 108.08l1.083 101.3c.604 1.587.964 3.014.8 3.17s-19.66-18.764-43.33-42.046zm12.6-95.563c0-72.83.217-76.058 6.306-93.962 7.857-23.1 25.334-46.307 44.416-58.977 6.68-4.436 7.756-6.863 8.68-19.596 1.092-15.058-4.305-31.23-14.194-42.536l-4.85-5.546-3.9 2.34c-6.722 4.036-16.112 11.007-16.144 11.987-.017.516 1.623 2.77 3.645 5.007 4.998 5.532 5.896 10.723 2.848 16.468-2.786 5.252-7.043 8-12.363 8-4.682 0-7.392-1.282-12.124-5.732l-3.552-3.34-2.647 3.202c-8.64 10.455-19.414 33.186-24.046 50.738-2.347 8.9-2.392 10.324-2.76 86.95l.275 80.5c.632 2.52 27.766 31.064 29.528 31.064.486 0 .883-29.96.883-66.576zm269.363 33.62c1.198-6.126.8-136.982-.44-148.187-2.73-24.473-13.514-52.248-26.033-67.04l-3.614-4.27-4.253 4.123c-9.782 9.482-24.733 4.143-24.733-8.833 0-5.028 1.312-7.824 6.133-13.064l2.603-2.83-5.702-4.192c-3.136-2.306-7.933-5.492-10.66-7.08l-4.957-2.888-4.378 5.106c-5.238 6.1-11.12 17.823-13.013 25.92-1.765 7.543-1.774 18.033-.024 26.153 1.325 6.147 1.645 6.585 7.95 10.888 8.28 5.65 21.484 18.88 28.553 28.608 8.957 12.326 15.628 27.673 19.72 45.367 1.626 7.03 1.907 16.385 2.307 76.834l.456 68.828 14.7-14.92c11.227-11.403 14.857-15.77 15.395-18.524zm-170.96-206.803c10.417-2.3 31.002-2.302 41.237-.022 4.295.957 8.378 1.737 9.073 1.734.854-.004 1.336-2.863 1.483-8.807.593-23.83 14.33-50.697 33.438-65.4 8.877-6.83 13.1-7.325 22.86-2.67 18.57 8.862 43.554 29.28 56.334 46.04 3.088 4.05 5.98 7.36 6.425 7.36 2.475 0-.105-30.2-3.973-46.5-12.596-53.074-54.1-95.6-107.183-109.797-28.467-7.618-64.443-6.06-90.85 3.93-35.548 13.452-65.384 39.82-82.013 72.482-10.45 20.527-15.067 39.058-15.776 63.336l-.5 17.08 2.977-3.707c18.146-22.597 35.698-37.6 56.65-48.42 11.8-6.1 15.862-6.4 22.894-1.75 7.07 4.683 19.115 17.787 24.142 26.265 7.824 13.196 12.977 30.713 12.977 44.113 0 3.547.45 6.45.998 6.45s4.512-.773 8.807-1.717zm-29.28 327.882c2.386-.878 6.06-2.82 7.924-4.2 4.824-3.54 9.516-10.182 11.05-15.64.628-2.233 30.94-175.5 30.738-175.7-.067-.067-1.837-.3-3.935-.54-17.983-1.98-33.035-14.204-38.377-31.168-1.554-4.936-1.923-7.565-1.9-13.57.024-6.52.693-9.714 3.042-14.508 2.076-4.237 7.084-9.17 11.456-11.288 7.13-3.45 11.515-3.954 32.52-3.728 14.282.153 16.302.25 19.344.938 6.983 1.578 11.056 3.704 15.3 7.983 5.88 5.944 8.42 14.263 7.52 24.637-1.523 17.54-13.214 32.558-29.876 38.378-3.33 1.163-7.582 2.062-11.898 2.514-1.855.195-2.36.382-2.36.88 0 1.294 30.218 173.548 30.8 175.52 2.438 8.392 9.622 15.997 18.083 19.143l2.264.842-51.516-.007-50.162-.505zm56.676-226.95c4.603-2.266 7.88-6.855 8.474-11.862l.213-1.797h-30.364l.248 1.604c.574 3.706 1.807 6.384 4.07 8.84 3.12 3.386 6.42 4.694 11.45 4.54 2.987-.092 3.758-.264 5.9-1.324z"/><path d="M342.492 496.682c0-.162.4-1.103.9-2.09s1.222-2.808 1.604-4.045c.666-2.158.694-6.24.694-101.883l-.676-103.406c-5.248-29.285-23.063-53.227-49.14-66.042-8.546-4.2-15.497-6.474-25.067-8.202-4.188-.756-5.95-.856-14.938-.845-10.892.014-13.673.308-21.512 2.28-15.612 3.925-29.476 11.613-41.09 22.787-14 13.47-23.193 31.322-26.533 51.53-.65 3.938-.686 9.206-.686 102.276l.666 100.466c.366 1.287 1.007 3.137 1.425 4.1s.707 1.822.644 1.885-9.65-9.3-21.3-20.81l-21.508-20.926c-.177 0-10.883-10.572-23.8-23.493-25.652-25.68-24.99-24.905-25.806-30.183-.234-1.51-.317-49.22-.23-131.628L78.12 124.5c1.264-8.46 4.664-23.482 5.426-23.975.177-.114.44-1.227.585-2.472.57-4.9 2.57-13.675 4.318-18.97 4.36-13.197 11.44-26.218 20.856-38.367l2.78-3.588 44.363-.026-6.173 6.133c-12.277 12.197-20.66 23.664-28.213 38.6-11.572 22.872-16.686 46.14-16.134 73.405l.118 5.85 3.264-4.34c16.178-21.512 36.487-38.472 59.672-49.83 6.047-2.963 8.813-3.658 12.123-3.046 3.148.582 4.882 1.468 9.115 4.66 21.734 16.385 34.86 42.1 35.466 69.482.073 3.29.2 6.058.306 6.154s2.952-.423 6.348-1.152c17.864-3.836 31.718-3.72 49.27.413 2.344.552 4.385.882 4.534.733s.225-2.26.168-4.7c-.376-16.2 5.556-35.334 15.508-50.02 4.55-6.713 12.594-15.222 19.348-20.465 5.804-4.504 9.648-5.903 14.012-5.096 4.07.752 14.893 6.263 24.214 12.33 16.185 10.534 31.416 24.76 42.863 40.04 1.897 2.532 3.603 4.613 3.8 4.623.517.03-.03-20.484-.713-26.718-3.83-34.982-19.267-66.67-44.66-91.673l-5.46-5.378h36.574l4.18 5.567c10.757 14.326 21.25 32.318 28.997 49.723 1.2 2.698 2.344 5.012 2.54 5.14.854.562 4.394 14.905 5.905 23.92 2.267 13.533 2.112 2.624 2.112 147.942v132.47l-1.106 2.453c-1.028 2.28-2.758 4.11-24.698 26.126L385.93 453.93c-.107-.107-9.925 9.535-21.817 21.426l-21.623 21.326zM136.917 286.388c2.047-14.98 5.525-26.533 11.766-39.08 9.73-19.56 23.75-35.1 43.536-48.288 2.63-1.752 4.7-17.41 3.508-26.423-1.754-13.16-7.895-25.93-16.57-34.46l-2.234-2.197-3.36 1.968c-4.128 2.418-9.5 6.09-13.647 9.313l-3.117 2.428 3.203 3.403c4.79 5.09 6.48 9.384 5.587 14.193-1.686 9.066-10.64 14.58-19.065 11.743-2.973-1-3.94-1.674-7.7-5.356-1.69-1.655-3.255-2.898-3.476-2.76-.713.44-6.06 7.99-9.138 12.907-11.172 17.836-18.55 40.11-19.616 59.21-.185 3.32-.45 37.118-.59 75.103l.374 71.487c.345 1.332 1 3.03 1.432 3.774s6.934 7.51 14.427 15.04l13.623 13.688.218-65.58.837-70.1zm252.805 122.185c7.587-7.623 13.856-14.235 14.4-15.2 2.302-4.007 2.184.502 2.035-77.614-.148-77.9-.03-73.56-2.358-85.713C400 210.12 391.705 191.04 380 175.2l-3.298-4.377c-.13-.13-1.773 1.246-3.652 3.057-2.44 2.35-4.14 3.636-5.95 4.493-2.294 1.087-2.87 1.2-6.126 1.2-3.283 0-3.806-.105-6.057-1.213-4.97-2.446-8.2-7.047-8.568-12.204-.357-4.992 1.077-8.295 5.666-13.048l3.324-3.443-3.69-2.825c-4.15-3.178-10.695-7.558-14.33-9.592l-2.423-1.355-.962.894c-1.76 1.636-6.656 7.653-8.32 10.227-8.67 13.4-11.827 30.307-8.383 44.877 1.54 6.516 1.473 6.407 5.652 9.224 11.606 7.826 23.113 19.12 31.117 30.54 11.045 15.758 17.34 31.5 20.678 51.704.804 4.868.81 5.428.928 71.8l.4 66.895c.156 0 6.327-6.07 13.713-13.492z"/><path d="M342.606 496.413l1.443-3.397 1.23-2.83.312-11.322c.172-6.227.254-51.657.183-100.956l-.13-89.633-.807-4.15c-3.605-18.546-12.176-34.906-25.025-47.77-14.453-14.47-33.845-23.8-54.015-25.992-8.032-.872-19.653-.382-27.282 1.15-37.46 7.527-65.805 37.318-71.78 75.44-.643 4.1-.68 9.77-.68 102.276l.666 100.277c.366 1.287 1.007 3.137 1.425 4.1s.703 1.825.635 1.893-9.653-9.297-21.3-20.81l-21.5-20.934c-.177 0-10.882-10.572-23.8-23.493-25.515-25.543-24.95-24.885-25.783-29.977-.502-3.067-.483-248.963.02-258.454.423-7.972 1.438-16.625 2.828-24.11 1.112-5.985 3.396-15.373 4.133-16.988.294-.645.73-2.53.966-4.19 2.895-20.287 12.14-40.172 27.395-58.926.345-.425 4.3-.515 22.564-.515h22.145l-5.802 5.755c-6.27 6.22-10.608 11.142-15.05 17.078-15.963 21.33-25.967 46.718-28.797 73.086-.32 2.978-.673 10.51-.785 16.736l-.204 11.322.948-1.132c.52-.623 2.44-3.073 4.264-5.445 15.48-20.13 35.688-36.73 57.94-47.597 6.057-2.958 8.828-3.653 12.133-3.042 3.152.583 4.882 1.468 9.143 4.68 14.577 10.99 25.51 26.448 31.266 44.204 2.565 7.914 3.844 15.553 4.228 25.253.245 6.187.272 6.35 1.04 6.182 15.274-3.32 19.076-3.816 29.283-3.816 9.153 0 13.9.525 23.627 2.617l6.266 1.306c.104 0 .286-3.184.406-7.076.575-18.745 6.643-36.074 17.903-51.133 3.795-5.076 12.884-14.178 17.73-17.757 5.384-3.976 9.103-5.222 13.24-4.437 6.028 1.144 21.402 9.818 33.484 18.89 12.57 9.44 24.743 21.598 33.703 33.667 1.805 2.43 3.41 4.427 3.565 4.434.41.02.345-12.355-.1-19.422-1.22-19.365-5.603-36.886-13.546-54.157-7.67-16.68-18.015-31.31-31.686-44.817l-5.444-5.378h36.574l4.18 5.567c10.757 14.326 21.25 32.318 28.997 49.723 1.2 2.698 2.34 5 2.534 5.137.875.577 4.368 14.713 5.91 23.923 2.267 13.533 2.112 2.624 2.112 147.942v132.47l-1.106 2.453c-1.028 2.28-2.758 4.11-24.698 26.126L385.93 453.93c-.107-.107-9.947 9.535-21.866 21.427l-21.46 21.055zm-205.673-210.18c2.68-19.787 8.73-36.06 19.3-51.926 8.803-13.202 19.468-23.982 32.646-32.997 2.18-1.49 4.158-3.083 4.396-3.538s.91-2.865 1.5-5.356c.977-4.186 1.058-5.13 1.07-12.454.012-6.857-.1-8.447-.837-11.794-2.628-11.958-8.318-22.687-16.03-30.22l-2.055-2.008-3.358 1.967c-4.127 2.418-9.5 6.09-13.646 9.312l-3.117 2.428 3.203 3.403c1.762 1.872 3.636 4.287 4.165 5.368 2.93 5.988 1.84 12.173-3.002 17.046-2.66 2.676-5.382 3.91-9.293 4.21-4.82.37-8.39-1.287-13.17-6.112-1.552-1.566-2.94-2.847-3.087-2.847-.446 0-5.448 6.854-8.592 11.773-11.797 18.46-19.343 40.954-20.423 60.878-.553 10.207-.93 142.564-.413 145.276.83 4.362 1.226 4.85 15.866 19.572l13.81 13.886.218-65.6.852-70.274zm267.612 106.313c.667-1.37 1.182-3.254 1.413-5.164.54-4.47.168-141.436-.398-146.093-2.598-21.4-9.28-40.75-19.947-57.774-2.44-3.895-7.6-11.26-8.814-12.582-.186-.202-1.75 1.03-3.74 2.952-2.445 2.357-4.146 3.642-5.955 4.5-2.294 1.087-2.87 1.2-6.126 1.2-3.283 0-3.806-.105-6.057-1.213-4.97-2.446-8.2-7.047-8.568-12.204-.357-4.992 1.077-8.295 5.667-13.05l3.326-3.445-4.257-3.206c-4.735-3.566-10.16-7.19-13.85-9.255l-2.433-1.36-2.253 2.43c-8.26 8.9-14.01 20.41-15.845 31.68-1.504 9.24-.972 17.722 1.638 26.164l.72 2.33 4.507 3.13c12.253 8.507 23.856 20.183 31.69 31.888 10.488 15.673 16.18 30.303 19.418 49.9.804 4.868.81 5.425.92 71.33l.32 66.99c.145.392 4.422-3.675 13.892-13.21 11.237-11.313 13.87-14.16 14.732-15.933z"/><path d="M147.176 474.562l-69.52-70.275-1.28-2.67V270.054l.703-137.435c1.108-9.262 2.638-17.596 4.657-25.372 1.026-3.952 2.326-9.64 2.887-12.637s1.645-7.738 2.407-10.534c14-51.393 69.53-96.84 133.987-109.66 13.764-2.737 21.503-3.473 36.294-3.45 14.398.022 21.788.72 33.892 3.203 55.912 11.47 101.075 50 130.32 111.213l5.73 11.754c1.247 2.317 4.485 15.053 5.902 23.208 2.48 14.28 2.424 10.815 2.424 149.975v131.83l-1.256 2.402c-.836 1.598-9.14 10.274-24.818 25.93L343.7 495.11c-.074-.074.34-1.658.918-3.52 1.032-3.316 1.053-5.36 1.07-102.8.018-108.54.17-102.763-3.015-113.783-4.44-15.358-12.5-28.54-24.506-40.082-24.292-23.353-59.045-31.086-91.264-20.307-27.055 9.05-49.123 32.015-57.338 59.668-3.725 12.54-3.5 5.44-3.5 115.066v98.74l1.228 3.398c.675 1.87 1.155 3.47 1.067 3.558s-9.6-9.127-21.16-20.477zm-10.863-134.756c.133-52.453.232-54.564 3.133-66.816 6.705-28.325 22.95-52.372 47.33-70.07 6.74-4.9 6.832-5.017 8.208-11.045 1.075-4.7 1.22-18.392.242-22.963-1.85-8.66-5.892-17.978-10.518-24.253-2.957-4.012-7.122-8.57-7.828-8.57-.834 0-10.585 6.295-15.483 9.995l-4.645 3.5 3.42 3.695c2.322 2.508 3.788 4.668 4.565 6.724 4.456 11.8-7.854 23.395-19.63 18.5-.946-.394-3.423-2.316-5.505-4.27-4.544-4.268-3.942-4.54-10.066 4.527-9.257 13.704-15.68 27.833-19.5 42.917-3.813 15.013-3.63 10.613-3.883 93.212l-.23 74.455 1.5 2.804c1.007 1.87 5.953 7.367 14.852 16.504l13.343 13.7.285-17.038.408-65.508zm254.5 67.797c7.402-7.53 13.233-13.9 13.8-15.112s1.158-4.003 1.374-6.617c.437-5.292.395-80.45-.067-119.555-.3-24.632-.42-27.505-1.5-33.358-3.908-21.348-11.8-40.23-23.66-56.684l-3.96-5.436c-.104-.114-2.048 1.42-4.32 3.4-5 4.368-6.84 5.226-11.412 5.3-6.657.1-12.247-4.15-14.164-10.743-1.6-5.535-.15-10.07 5.052-15.7l3.276-3.55-4.67-3.443c-5.495-4.052-10.187-7.198-13.346-8.948l-2.273-1.26-1.9 1.835c-5.866 5.633-12.37 16.888-14.88 25.758-3.138 11.076-3.03 22.994.304 33.3.4 1.268 1.693 2.5 4.923 4.76 29.052 20.26 47.46 50.542 51.548 84.792.368 3.088.615 25.776.7 63.514l.307 65.25c.175 6.04.26 6.502 1.126 6.04.515-.276 6.702-6.366 13.748-13.534zM232.517 183.018c15.883-3.483 31.035-3.483 46.918 0 7.565 1.66 6.963 2.06 6.967-4.63.014-25.212 12.327-50.77 32.513-67.5 6.676-5.53 9.78-7.04 14.364-6.998 3.272.03 4.032.3 11.658 4.14 22.38 11.264 42.034 28.12 59.493 51.017.777 1.018 1.603 1.666 1.836 1.44.62-.602-.67-25.844-1.654-32.4-6.814-45.43-34.55-85.866-74.706-108.913-15.458-8.872-33.158-14.916-52.582-17.955-4.88-.764-9.308-.96-21.616-.95-16.547.01-20.58.403-33.278 3.248C164.413 16.5 118.874 63.9 108.395 122.2c-1.755 9.763-2.398 17.657-2.37 29.1l.023 9.607 1.443-1.852c7.438-9.546 11.032-13.67 17.958-20.606 4.42-4.426 10.368-9.908 13.218-12.183 7.987-6.374 19.505-13.776 28.42-18.263 7.524-3.787 8.326-4.072 11.528-4.096 4.142-.03 6.787 1.042 11.714 4.75 20.615 15.52 33.93 40.678 35 66.126.34 8.08.537 9.34 1.462 9.34.375 0 2.952-.498 5.727-1.106zM207.5 509.997c6.487-2.696 12.44-8.35 15.62-14.84 2.153-4.4-.04 7.4 20.53-110.35l12.168-69.652-2.723-.417c-9.665-1.48-15.632-3.574-21.727-7.627-9.22-6.13-15.897-15.453-18.58-25.947-5.084-19.88 3.1-35.647 20.662-39.766 3.55-.833 6.635-.965 22.528-.965s18.977.132 22.528.965c10.773 2.528 17.962 9.127 21.045 19.316 1.562 5.162 1.3 15.17-.56 21.35-2.504 8.322-7.66 16.508-13.496 21.428-7.856 6.623-15.24 9.734-26.448 11.143-2.03.255-2.535.522-2.535 1.34 0 .562 6.853 40.228 15.23 88.147l17.1 90.995c3.1 6.466 9.095 12.167 15.623 14.88l3.03 1.26h-103zm56.075-226.755c4.063-2.38 6.812-6.473 7.514-11.185l.298-2-2.502-.057c-10.475-.238-22.72-.263-25.052-.05-3.2.292-3.275.456-1.954 4.904.648 2.18 1.562 3.565 3.87 5.86 3.64 3.62 5.432 4.284 11.077 4.096 3.556-.118 4.748-.395 6.75-1.567z"/></g></svg>