<svg xmlns="http://www.w3.org/2000/svg" viewBox="0 0 45 45" width="100%" height="100%" fill-rule="evenodd" stroke="#000" xmlns:v="https://vecta.io/nano"><g stroke-linejoin="round" stroke-width="1.5"><path d="M9 39h27v-3H9v3zm3.5-7l1.5-2.5h17l1.5 2.5h-20z"/><path d="M12 36v-4h21v4H12z"/></g><path d="M14 29.5v-13h17v13H14z" stroke-linejoin="miter" stroke-width="1.5"/><g stroke-linejoin="round"><path d="M14 16.5L11 14h23l-3 2.5H14z" stroke-width="1.5"/><path d="M11 14V9h4v2h5V9h5v2h5V9h4v5H11z" stroke-width="1.5"/></g><path d="M12 35.5h21m-20-4h19m-18-2h17m-17-13h17M11 14h23" stroke-linejoin="miter" fill="none" stroke="#fff" stroke-width="1" stroke-linecap="round"/></svg>