<svg xmlns="http://www.w3.org/2000/svg" height="512" width="512" xmlns:v="https://vecta.io/nano"><path d="M156.57 22.566c-1.566 2.528-3.19 6.016-4.377 10.727-2.523 10.003-3.254 23.68-1.513 37.383s5.94 27.454 12.453 38.02a56.705 56.705 0 0 0 5.197 7.155c14.74-5.38 29.878-12.334 45.508-18.188 23.404-8.765 48.567-15.053 74.94-7.318a64.115 64.115 0 0 1 18.882 9.1l25.387-6.153c-9.732-15.71-28.765-35.45-48.922-42.52l-.32-.1-.31-.138c.302.133-8.195-.7-18.522-.02s-23.36 1.79-37.16 1.397c-24.66-.7-53-6.674-71.242-29.336zm271.514 61.252c-19.57-.08-46.106 3.298-76.533 14.442 4.226 17.662 9.268 34.14 17.267 47.578 9.305 15.628 22.043 27.565 43.805 34.086 14.84-22.4 26.025-43.193 33.633-59.865 4.885-10.707 8.303-19.746 10.26-26.235a57.057 57.057 0 0 0 1.49-6.1c-.965-.35-1.584-.657-3.06-1.037-5.155-1.326-13.085-2.53-23.036-2.808l-3.826-.06zm-36.016 14.698a18.127 18.763 0 0 1 18.127 18.763 18.127 18.763 0 0 1-18.127 18.762 18.127 18.763 0 0 1-18.127-18.762 18.127 18.763 0 0 1 18.127-18.763zm-127.902 6.322c-14.353-.03-28.832 3.997-44.016 9.683-22.085 8.27-44.998 20.047-69.68 25.448h-.01l-.012.002c-26.6 5.753-47.864 3.407-66.307-3.133-11.18-3.965-21.3-9.414-31.295-15.205 3.223 9.405 7.2 19.2 11.823 28.992 32.696 12.67 72.32 10.22 101.117 9.926l.183 17.998c-23.345.238-56.918 2.6-89.527-5.424a280.65 280.65 0 0 0 13.887 21.725l.084-.36c36.765 8.66 68.775 4.345 94.722-2.03l4.295 17.48c-22.672 5.572-50.697 9.827-82.482 5.8 4.416 4.89 8.98 9.443 13.666 13.57 2.23 1.963 4.48 3.828 6.746 5.587 32.378-1.36 56.2-6.99 69.04-16.345L207 233.1c-12.96 9.444-30.337 14.798-51.582 17.578 7.043 2.442 14.14 3.74 21.218 3.728 19.01-.03 39.048-9.008 60.157-33.9l13.726 11.644c-23.453 27.647-48.975 40.207-73.853 40.246-6.032.01-11.956-.695-17.758-2.01-9.578 15.197-19.043 31.578-28.332 49.277l-2.336 4.45-5.014.346c-16.916 1.168-26.468 5.796-35.252 13.283s-16.633 18.512-27.316 31.734c-1.545 1.912-3.84 7.517-5.664 15.026a114.64 114.64 0 0 1 27.115-12.946l5.596 17.108c-12.054 3.942-23.15 9.673-36.022 20.865a218.07 218.07 0 0 0-.27 13.736c10.08-6.864 20.846-13.317 33.18-17.054l5.22 17.226c-12.39 3.755-24.44 12.046-37.135 20.936.692 6.153 1.648 12.1 2.87 17.5 8.1-9.954 16.812-19.7 27.635-26.467l9.543 15.262c-9.955 6.225-19.8 18.36-30.074 31.13 2.676 4.566 5.404 6.957 7.404 7.616.16-.044.316-.068.805-.31 1.308-.645 3.457-2.105 5.906-4.242 4.898-4.275 11.054-11.136 17.432-19.024 12.755-15.774 26.53-35.597 37.287-49.3l6.912-8.813 7.117 8.647c11.8 14.323 28.932 30.9 45.32 41.68 8.195 5.395 16.2 9.3 22.838 11.013 6.588 1.693 11.3 1.272 14.82-.7.05-.06.327-.417.685-1.708.37-1.33.624-3.432.645-6.025a110.008 110.008 0 0 0-27.301-5.58l1.352-17.95a128.47 128.47 0 0 1 23.07 3.868 160.145 160.145 0 0 0-2.623-9.354c-11.874-2.542-24.824-2.652-38.22-3.674l1.366-17.947c9.154.698 19.105.833 29.422 2.104a200.27 200.27 0 0 0-5.049-10.444c-12.925-2.5-28.66-1.447-45.04-.76l-.755-17.984c8.223-.345 16.763-.96 25.37-1.002a145.421 145.421 0 0 1 8.531.186c-3.337-4.583-6.503-8.136-9.166-10.102l-.81-.598c-13.008.3-23.244-1.175-23.418-5.712.373-1.055 7.105-3.314 16.2-5.9l10.487-3.547c94.5-31.956 162.346-97.43 205.85-156.86a502.599 502.599 0 0 0 2.964-4.107c-22.787-8.364-38.38-22.872-48.705-40.215-9.1-15.267-14.477-32.445-18.72-49.92a285.524 285.524 0 0 0-13.806 6.602c9.123 11.188 14.452 25.04 15.197 38.824.698 12.906-2.757 26.08-11.377 36.53s-22.218 17.727-39.885 19.8l-2.1-17.876c14.02-1.646 22.683-6.81 28.1-13.38s7.78-14.986 7.288-24.103c-.987-18.232-13.95-37.927-34.336-43.906-6.526-1.914-13.023-2.766-19.547-2.78zm107.154 79l2.404 17.84s-4.836.658-10.453 2.1-11.914 4.488-12.695 5.27c-2.863 2.86-4.196 8.963-5.328 17.474s-2.084 19.476-10.652 27.805c-12.107 11.768-28.014 14.285-42.24 16.3s-27.21 3.68-36.01 9.4c-7.323 4.768-18.5 16.902-27 27.564S214.6 327.436 214.6 327.436l-14.887-10.118s6.6-9.7 15.566-20.947 19.945-24.053 31.254-31.418c13.753-8.956 29.565-10.21 43.32-12.15s25.018-4.385 32.208-11.373c2.88-2.8 4.227-8.79 5.355-17.27s2.015-19.4 10.447-27.836c6.292-6.287 14.147-8.216 20.916-9.965s12.55-2.52 12.55-2.52z" stroke="#fff" stroke-width="7"/></svg>