<svg xmlns="http://www.w3.org/2000/svg" viewBox="0 0 45 45" fill-rule="evenodd" stroke="#000" xmlns:v="https://vecta.io/nano"><g fill="#000" stroke-linecap="round" stroke-linejoin="round" stroke-width="1.5"><path d="M22 10c10.5 1 16.5 8 16 29H15c0-9 10-6.5 8-21"/><path d="M24 18c.38 2.9-5.55 7.37-8 9-3 2-2.82 4.34-5 4-1.042-.94 1.4-3.04 0-3-1 0 .2 1.23-1 2-1 0-4 1-4-4 0-2 6-12 6-12S4.473 7.525 4.96 6.85 13.945 11.3 14 10.5c-.73-.994-.5-2-.5-3 1-1 3 2.5 3 2.5h2s.78-1.992 2.5-3c1 0 1 3 1 3"/></g><g fill="#fff"><path d="M9.5 25.5a.5.5 0 1 1-1 0 .5.5 0 1 1 1 0zm5.433-9.75c-.414.717-.944 1.187-1.183 1.05s-.097-.832.317-1.55.944-1.187 1.183-1.05.097.832-.317 1.55z" stroke-linejoin="round" stroke-width="1.5" stroke="#fff"/><path d="M24.55 10.4l-.45 1.45.5.15c3.15 1 5.65 2.5 7.9 6.75s3.25 10.3 2.75 20.25l-.05.5h2.25l.05-.5c.5-10.06-.88-16.85-3.25-21.34s-5.8-6.64-9.2-7.16l-.5-.1z" stroke="none"/></g></svg>