<svg xmlns="http://www.w3.org/2000/svg" viewBox="0 0 11.906 11.906" xmlns:v="https://vecta.io/nano"><g transform="matrix(.304347 0 0 .304347 -.747868 -1.04713)"><g fill="#2b2b3c"><g fill-rule="evenodd" stroke="#303042" stroke-linecap="round"><path d="M22 10c10.5 1 16.5 8 16 29H15c0-9 10-6.5 8-21"/><path d="M24 18c.384 2.91-5.553 7.37-8 9-3 2-2.82 4.343-5 4-1.042-.944 1.413-3.038 0-3-1 0 .187 1.232-1 2-1 0-4.003 1-4-4 0-2 6-12 6-12s1.886-1.902 2-3.5c-.726-.994-.5-2-.5-3 1-1 3 2.5 3 2.5h2s.782-1.992 2.5-3c1 0 1 3 1 3" stroke-linejoin="round"/></g><g stroke="#fff"><circle cx="9" cy="25.5" r=".5" stroke-linejoin="round"/><ellipse transform="rotate(30 14.5 15.5)" cx="14.5" cy="15.5" rx=".5" ry="1.5" stroke-linejoin="round"/></g></g><path d="M24.55 10.4l-.3 1.1.55.1c3.1.477 6.324 2.234 8.575 6.494S36.297 29.057 35.8 39l-.05.5h1.75V39c.503-10.057-.876-16.853-3.25-21.344s-5.79-6.633-9.187-7.156z" fill="#fff" fill-rule="evenodd"/><path d="M14.568 38.46c.136-1.796.56-3.152 1.385-4.445.233-.365 1.312-1.58 2.398-2.7 1.994-2.056 2.894-3.227 3.455-4.495.447-1 .8-2.508.9-3.78l.08-1.113-1.11 1.075c-1.51 1.464-2.577 2.35-4.42 3.673-1.7 1.22-2.544 2.007-3.665 3.418-.775.976-1.422 1.388-2.187 1.393-.575.004-.855-.177-1.012-.653l-.134-.407-1.032.042c-1.254.05-1.836-.11-2.463-.675-.62-.56-.99-1.445-1.134-2.698-.14-1.225-.027-1.826.634-3.372 1.153-2.698 4.86-9.36 5.97-10.734.362-.447.803-1.12.98-1.496.32-.68.322-.688.107-1.25-.12-.31-.247-1.077-.283-1.7-.065-1.124-.062-1.137.28-1.406.2-.15.502-.272.694-.272.5 0 1.32.673 2.1 1.724l.67.9h1.466l.27-.53c.15-.292.678-.94 1.176-1.437.782-.782.966-.906 1.346-.906.335 0 .515.09.753.37.305.362.583 1.3.587 1.98.003.508.127.617.81.713 6.882.967 11.352 4.976 13.518 12.124 1.123 3.707 1.628 7.688 1.755 13.844l.08 3.844h-1l.06-3.127c.125-6.497-.567-11.665-2.148-16.03-1.7-4.723-4.733-8.075-8.448-9.365-.532-.185-2.216-.602-2.43-.602-.084 0-.33 1.016-.27 1.113.037.06.33.148.653.196 2.436.365 5.13 1.936 6.703 3.91 3.062 3.837 4.212 8.694 4.212 17.782 0 2.028-.036 4.236-.08 4.906l-.08 1.22H14.49l.078-1.03zM9.69 26.184c.62-.62.18-1.693-.693-1.693-.514 0-1 .486-1 1s.486 1 1 1c.244 0 .5-.113.693-.307zm4.663-9.016c.72-.43 1.52-1.843 1.52-2.688 0-.482-.458-.9-.874-.8-.47.116-1.09.778-1.506 1.61-.435.87-.474 1.472-.12 1.826.302.302.54.314.98.052z"/><path d="M20 38c5-5 11.375-5.625 16.375-6.625l.125.75c-5 1-10.75 1.875-14.75 5.875zm16.25-9.5c-5.547.614-12.7 1.06-18.25 5.25 2.125-2.625 2.823-2.542 3.625-3.875 4-1 9.188-2.068 14.375-2.875zm-12.5-2.75c6-.943 8.145-1.984 11.25-2.75v-1c-3.366.835-6.665 2.155-11 2.5zm12.75 9.875c-3.847.338-5.6.87-7.875 2.375l3.125-.125c2.23-1.604 3.357-1.372 4.625-1.375zM33.125 17.75c-1.65 1.498-5.12 2.268-8.375 3.125l.125-.75c2.192-.758 2.842.157 7.5-3.375zm-8-6.5l-1.75 2.25.375-2.625zM30 13.375c-2.648 2.504-2.72 2.48-5.25 3.375 1.858-1.62 2.685-2.344 3.875-4.75z" stroke="#fff" fill="#fff"/></g></svg>