<?xml version="1.0" encoding="UTF-8" standalone="no"?>
<svg
   xmlns:dc="http://purl.org/dc/elements/1.1/"
   xmlns:cc="http://creativecommons.org/ns#"
   xmlns:rdf="http://www.w3.org/1999/02/22-rdf-syntax-ns#"
   xmlns:svg="http://www.w3.org/2000/svg"
   xmlns="http://www.w3.org/2000/svg"
   xmlns:sodipodi="http://sodipodi.sourceforge.net/DTD/sodipodi-0.dtd"
   xmlns:inkscape="http://www.inkscape.org/namespaces/inkscape"
   inkscape:version="1.0 (4035a4fb49, 2020-05-01)"
   sodipodi:docname="grarrow.svg"
   id="svg1127"
   version="1.1"
   enable-background="new 0 0 64 64"
   viewBox="0 0 64 64">
  <metadata
     id="metadata1133">
    <rdf:RDF>
      <cc:Work
         rdf:about="">
        <dc:format>image/svg+xml</dc:format>
        <dc:type
           rdf:resource="http://purl.org/dc/dcmitype/StillImage" />
        <dc:title></dc:title>
      </cc:Work>
    </rdf:RDF>
  </metadata>
  <defs
     id="defs1131" />
  <sodipodi:namedview
     inkscape:current-layer="svg1127"
     inkscape:window-maximized="0"
     inkscape:window-y="46"
     inkscape:window-x="0"
     inkscape:cy="27.609891"
     inkscape:cx="36.135212"
     inkscape:zoom="8"
     showgrid="false"
     id="namedview1129"
     inkscape:window-height="1034"
     inkscape:window-width="1920"
     inkscape:pageshadow="2"
     inkscape:pageopacity="0"
     guidetolerance="10"
     gridtolerance="10"
     objecttolerance="10"
     borderopacity="1"
     bordercolor="#666666"
     pagecolor="#ffffff" />
  <g
     style="display:inline"
     inkscape:label="Layer 2"
     id="layer4"
     inkscape:groupmode="layer">
    <g
       id="g1234">
      <circle
         cx="32"
         cy="32"
         r="30"
         fill="#ffffff"
         id="circle1220" />
      <path
         d="m 53.213,10.786 c -11.715,-11.715 -30.711,-11.715 -42.426,0 -11.716,11.715 -11.716,30.711 0,42.426 11.715,11.717 30.711,11.717 42.426,0 11.716,-11.715 11.716,-30.711 0,-42.426 M 36.821,53.999 28.642,45.087 h 4.596 V 22.884 c 0,-3.045 -2.41,-5.521 -5.373,-5.521 -1.434,0 -2.785,0.574 -3.8,1.617 L 19,13.771 C 21.368,11.339 24.517,10 27.865,10 c 6.914,0 12.537,5.779 12.537,12.885 V 45.088 H 45 l -8.179,8.911"
         fill="#e53935"
         id="path1222" />
    </g>
  </g>
  <path
     sodipodi:nodetypes="cccccsccsc"
     id="path1125"
     fill="#43a047"
     d="m 53.213,10.786 c -11.715,-11.715 -30.711,-11.715 -42.426,0 -11.716,11.715 -11.716,30.711 0,42.426 M 33.239398,30.759397 c 0,0 -0.0014,-4.624446 -0.0014,-7.875397 0,-3.045 -2.41,-5.521 -5.373,-5.521 -1.434,0 -2.785,0.574 -3.8,1.617 L 19,13.771 C 21.368,11.339 24.517,10 27.865,10 c 6.914,0 12.551184,6.477184 12.551184,13.583184" />
  <g
     style="display:inline"
     inkscape:label="Layer 1"
     id="layer3"
     inkscape:groupmode="layer" />
</svg>
