<?xml version="1.0" encoding="iso-8859-1"?>
<!-- Generator: Adobe Illustrator 18.1.1, SVG Export Plug-In . SVG Version: 6.00 Build 0)  -->
<svg version="1.1" id="Capa_1" xmlns="http://www.w3.org/2000/svg" xmlns:xlink="http://www.w3.org/1999/xlink" x="0px" y="0px"
	 viewBox="0 0 162.341 162.341" style="enable-background:new 0 0 162.341 162.341;" xml:space="preserve">
<g>
	<g>
		<path style="fill:#010002;" d="M109.719,155.303v-32.627C46.971,116.983,0,79.541,0,34.802c0-6.009,0.865-12.035,2.572-17.907
			l2.864-9.857L8.3,16.895c9.947,34.196,51.399,60.898,101.419,65.636V50.059l52.622,52.622L109.719,155.303z M6.319,28.501
			c-0.233,2.094-0.352,4.201-0.352,6.301c0,42.245,45.981,77.563,106.956,82.158l2.757,0.209v23.736l38.218-38.218L115.68,64.469
			v24.53l-3.21-0.245C62.652,84.995,21.582,61.283,6.319,28.501z"/>
	</g>
</g>
<g>
</g>
<g>
</g>
<g>
</g>
<g>
</g>
<g>
</g>
<g>
</g>
<g>
</g>
<g>
</g>
<g>
</g>
<g>
</g>
<g>
</g>
<g>
</g>
<g>
</g>
<g>
</g>
<g>
</g>
</svg>
