<svg xmlns="http://www.w3.org/2000/svg" viewBox="0 0 162.341 162.341" xmlns:v="https://vecta.io/nano"><path d="M109.72 155.303v-32.627C46.97 116.983 0 79.54 0 34.802c0-6.01.865-12.035 2.572-17.907l2.864-9.857L8.3 16.895C18.247 51.09 59.7 77.793 109.72 82.53V50.06l52.622 52.622-52.622 52.622zM6.32 28.5c-.233 2.094-.352 4.2-.352 6.3 0 42.245 45.98 77.563 106.956 82.158l2.757.21v23.736l38.218-38.218L115.68 64.47V89l-3.2-.245C62.652 84.995 21.582 61.283 6.32 28.5z" fill="#010002"/><path d="M115.707 128.926c0-7.356-.07-11.853-.185-11.853-.102 0-1.748-.134-3.66-.298-31.226-2.683-58.42-12.91-78.497-29.517-3.1-2.564-9.88-9.407-12.12-12.233-3.987-5.028-6.287-8.624-8.857-13.854-3.518-7.158-5.54-14.412-6.14-22.028-.292-3.704-.18-9.874.18-9.874.068 0 .415.593.772 1.317 2.597 5.28 7 11.72 11.48 16.83 20.127 22.906 54.01 38.11 91.957 41.263l4.34.377.73.078.1-24.353 37.95 37.953-38.05 38.047z" fill="#0f0"/><g fill="#43a047"><path d="M115.66 128.778l-.05-11.803-1.854-.144c-28.705-2.224-54.103-10.74-73.936-24.79-8.666-6.14-17.296-14.78-22.45-22.48-6.2-9.26-9.926-19.27-10.926-29.338-.246-2.474-.26-9.973-.02-10.352.128-.202.385.143.967 1.302 2.39 4.752 6.667 11.03 10.735 15.75 18.9 21.93 50.804 37.107 86.75 41.258 4.932.57 10.646 1.042 10.795.893.072-.072.175-5.48.23-12.018L116 65.17l37.56 37.563-37.85 37.85z"/><path d="M115.765 128.738l-.155-11.73c-.054-.053-1.634-.24-3.512-.412-21.578-1.994-39.727-6.898-56.412-15.243C44.004 95.51 35.46 89.405 27 80.845c-4.302-4.347-6.77-7.314-9.635-11.577-5.59-8.32-9.11-17.263-10.547-26.802-.358-2.374-.616-11.957-.33-12.243.124-.124.416.24.835 1.037 2.56 4.875 6.136 10.174 10.112 14.983 2.378 2.877 8.4 8.883 11.55 11.502 18.58 15.494 43.8 26.054 71.512 29.942 4.162.584 10.058 1.215 13.122 1.403l2.195.135.028-1.247.265-22.614 37.366 37.368-37.64 37.64z"/></g><path d="M109.756 138.803v-16.22l-1.317-.13c-38.722-3.8-72.9-20.174-92.14-44.17-5.87-7.322-10.276-15.322-13.003-23.61C-.23 43.954-.83 32.21 1.6 21.268 2.074 19.08 5.082 8.35 5.355 7.842c.076-.14.683 1.647 1.36 4 2.332 8.113 3.5 11.332 5.716 15.753 6.392 12.75 18.146 24.948 32.927 34.17 14.92 9.3 32.51 15.815 51.9 19.196 3.643.635 10.688 1.574 11.81 1.574h.677V50.244l52.4 52.4-52.4 52.4zm25.122-55.242l-19.17-19.17-.1 24.5-2-.148c-20.53-1.52-39.292-6.13-56.294-13.83C34.17 64.428 16.143 48.273 7.192 30c-.407-.832-.797-1.512-.865-1.512-.392 0-.516 8.498-.175 11.93 2.733 27.49 24.7 51.924 59.21 65.86 13.43 5.424 28.976 9.083 44.6 10.494 5.995.542 5.398.408 5.535 1.237.066.396.12 5.77.12 11.94l.002 11.22 38.44-38.437z" fill="#fff"/></svg>