<?xml version="1.0" encoding="UTF-8" standalone="no"?>
<svg
   xmlns:dc="http://purl.org/dc/elements/1.1/"
   xmlns:cc="http://creativecommons.org/ns#"
   xmlns:rdf="http://www.w3.org/1999/02/22-rdf-syntax-ns#"
   xmlns:svg="http://www.w3.org/2000/svg"
   xmlns="http://www.w3.org/2000/svg"
   xmlns:sodipodi="http://sodipodi.sourceforge.net/DTD/sodipodi-0.dtd"
   xmlns:inkscape="http://www.inkscape.org/namespaces/inkscape"
   version="1.1"
   id="Capa_1"
   x="0px"
   y="0px"
   viewBox="0 0 162.341 162.341"
   style="enable-background:new 0 0 162.341 162.341;"
   xml:space="preserve"
   sodipodi:docname="sgrarrow.svg"
   inkscape:version="1.0 (4035a4fb49, 2020-05-01)"><metadata
   id="metadata1497"><rdf:RDF><cc:Work
       rdf:about=""><dc:format>image/svg+xml</dc:format><dc:type
         rdf:resource="http://purl.org/dc/dcmitype/StillImage" /><dc:title></dc:title></cc:Work></rdf:RDF></metadata><defs
   id="defs1495" /><sodipodi:namedview
   inkscape:document-rotation="0"
   pagecolor="#ffffff"
   bordercolor="#666666"
   borderopacity="1"
   objecttolerance="10"
   gridtolerance="10"
   guidetolerance="10"
   inkscape:pageopacity="0"
   inkscape:pageshadow="2"
   inkscape:window-width="1920"
   inkscape:window-height="1034"
   id="namedview1493"
   showgrid="false"
   inkscape:zoom="3.6239325"
   inkscape:cx="71.329302"
   inkscape:cy="90.098896"
   inkscape:window-x="0"
   inkscape:window-y="46"
   inkscape:window-maximized="0"
   inkscape:current-layer="Capa_1" />
<g
   id="g1460">
	<g
   id="g1458">
		<path
   style="fill:#010002;"
   d="M109.719,155.303v-32.627C46.971,116.983,0,79.541,0,34.802c0-6.009,0.865-12.035,2.572-17.907    l2.864-9.857L8.3,16.895c9.947,34.196,51.399,60.898,101.419,65.636V50.059l52.622,52.622L109.719,155.303z M6.319,28.501    c-0.233,2.094-0.352,4.201-0.352,6.301c0,42.245,45.981,77.563,106.956,82.158l2.757,0.209v23.736l38.218-38.218L115.68,64.469    v24.53l-3.21-0.245C62.652,84.995,21.582,61.283,6.319,28.501z"
   id="path1456" />
	</g>
</g>
<g
   id="g1462">
</g>
<g
   id="g1464">
</g>
<g
   id="g1466">
</g>
<g
   id="g1468">
</g>
<g
   id="g1470">
</g>
<g
   id="g1472">
</g>
<g
   id="g1474">
</g>
<g
   id="g1476">
</g>
<g
   id="g1478">
</g>
<g
   id="g1480">
</g>
<g
   id="g1482">
</g>
<g
   id="g1484">
</g>
<g
   id="g1486">
</g>
<g
   id="g1488">
</g>
<g
   id="g1490">
</g>
<path
   style="fill:#00ff00;stroke-width:0.195121"
   d="m 115.70699,128.92609 c 0,-7.35591 -0.0703,-11.85325 -0.18536,-11.85325 -0.10195,0 -1.74828,-0.13431 -3.65853,-0.29847 C 80.636683,114.09091 53.44349,103.86547 33.365759,87.257066 30.26648,84.693327 23.485218,77.849586 21.24455,75.024178 17.257108,69.996147 14.95801,66.399845 12.388,61.170558 8.8703356,54.013049 6.8480993,46.758821 6.2472536,39.142286 5.9550694,35.438455 6.0671141,29.26821 6.4265558,29.26821 c 0.068097,0 0.4153408,0.592681 0.7716522,1.317069 2.5969094,5.279568 6.990313,11.720775 11.478836,16.829221 20.126526,22.906255 54.010549,38.110889 91.956786,41.263381 1.98536,0.16494 3.93836,0.334805 4.33999,0.377482 l 0.73025,0.07759 0.0502,-12.176732 0.0502,-12.176734 18.97556,18.976338 18.97555,18.976345 -19.02433,19.02358 -19.02434,19.02359 z"
   id="path1499" /><path
   style="fill:#43a047;stroke-width:0.195121;fill-opacity:1"
   d="m 115.65975,128.7782 -0.0503,-11.80292 -1.85365,-0.14363 C 85.050612,114.60742 59.653103,106.09164 39.819749,92.040894 31.153512,85.901386 22.523861,77.259705 17.370928,69.560779 11.172291,60.299482 7.444879,50.291188 6.4446344,40.223114 6.1988864,37.74951 6.1839939,30.250304 6.4240766,29.871049 c 0.127981,-0.202169 0.3846192,0.143265 0.9670254,1.301613 2.3892043,4.751892 6.667458,11.029161 10.735246,15.751294 18.89015,21.928823 50.803982,37.106629 86.751402,41.257849 4.93239,0.569594 10.64581,1.042007 10.79537,0.892612 0.0723,-0.0722 0.17533,-5.480367 0.22899,-12.018144 l 0.0976,-11.886867 18.78044,18.781382 18.78043,18.781382 -18.92523,18.92448 -18.92524,18.92448 z"
   id="path1501" /><path
   style="fill:#43a047;fill-opacity:1;stroke-width:0.195121"
   d="m 115.76453,128.73832 c -0.0316,-6.39828 -0.10144,-11.67668 -0.1551,-11.72977 -0.0537,-0.0531 -1.63414,-0.23851 -3.51219,-0.41205 C 90.519041,114.60261 72.370724,109.69868 55.684935,101.35311 44.00378,95.510662 35.460727,89.404931 26.98999,80.844803 22.688488,76.497908 20.218798,73.530475 17.355103,69.268096 11.76434,60.946696 8.2456621,52.005086 6.8081769,42.46641 6.4504046,40.092351 6.192537,30.509798 6.478722,30.223613 c 0.1237367,-0.123737 0.415862,0.239164 0.8346512,1.036868 2.5594757,4.875257 6.1355188,10.174205 10.1116078,14.98329 2.378338,2.876603 8.410187,8.882949 11.550547,11.50171 18.579933,15.493894 43.800555,26.053683 71.511992,29.941832 4.16181,0.583937 10.05828,1.214574 13.12191,1.403406 l 2.19512,0.135301 0.0276,-1.247278 c 0.0152,-0.686004 0.081,-6.054904 0.14634,-11.930887 l 0.11873,-10.683607 18.68288,18.683963 18.68287,18.683969 -18.82045,18.81969 -18.82046,18.8197 z"
   id="path2064" /><path
   style="fill:#ffffff;fill-opacity:1;stroke-width:0.195121"
   d="M 109.75579,138.80273 V 122.5817 l -1.31707,-0.12889 C 69.716282,118.66323 35.537562,102.27887 16.298732,78.283368 10.42796,70.961085 6.0226663,62.961761 3.2959442,54.672341 -0.22962336,43.954375 -0.82939353,32.210687 1.5899393,21.268232 2.0735079,19.081089 5.0824726,8.3510215 5.3548658,7.8423798 5.4304379,7.7012636 6.0381511,9.489043 6.7145671,11.842369 c 2.331787,8.112543 3.5000899,11.332094 5.7162609,15.752583 6.39167,12.749158 18.146084,24.947785 32.92679,34.171134 14.919288,9.309828 32.510661,15.815128 51.910399,19.196498 3.642763,0.634933 10.688483,1.573767 11.810733,1.573767 h 0.67704 V 66.390147 50.243942 l 26.19495,26.194958 26.19496,26.19496 -26.19496,26.19495 -26.19495,26.19496 z m 25.12188,-55.242024 -19.17068,-19.171452 -0.0502,12.250523 -0.0502,12.250525 -1.99856,-0.147902 C 93.079465,87.223203 74.316498,82.613179 57.313945,74.911062 34.171372,64.427533 16.142694,48.273249 7.1917209,29.999915 6.7843201,29.16821 6.395139,28.487724 6.3268736,28.487724 c -0.3915384,0 -0.5160144,8.49844 -0.1747453,11.930513 2.7334083,27.489311 24.6999107,51.924018 59.2086267,65.861433 13.429783,5.42404 28.976232,9.08277 44.590155,10.49393 5.99452,0.54178 5.39807,0.40847 5.53508,1.23714 0.0655,0.39635 0.12011,5.76923 0.12129,11.93974 l 0.002,11.21911 19.21946,-19.21872 19.21946,-19.21871 z"
   id="path2066" /><path
   id="path957"
   d="M 128.01543,102.83927 C 99.680275,102.07846 73.222535,96.011012 52.443609,85.508675 36.785461,77.594543 24.653683,67.353307 16.843098,55.455927 12.941048,49.512177 10.217367,43.46967 8.4783809,36.898738 8.0361435,35.227701 7.3592111,32.006215 7.3592111,31.572669 c 0,-0.140489 0.3774337,0.426097 0.8387415,1.25908 2.3861544,4.308674 5.8916384,9.363511 9.4224844,13.587034 1.893878,2.265415 7.361086,7.817102 9.744665,9.895237 18.386865,16.030679 43.663817,26.964059 72.159181,31.211979 5.765267,0.859452 15.881487,1.842418 16.154237,1.569666 0.10062,-0.100621 0.38202,-16.064917 0.39961,-22.670797 l 0.003,-1.034593 18.41356,18.413178 c 10.12746,10.127247 18.40058,18.425277 18.38472,18.440057 -0.10297,0.096 -8.31523,0.49605 -12.44628,0.60637 -5.42788,0.14494 -6.66335,0.14389 -12.41745,-0.0106 z"
   style="fill:#ff0000;stroke-width:0.137972" /></svg>
