<svg xmlns="http://www.w3.org/2000/svg" viewBox="0 0 162.341 162.341" xmlns:v="https://vecta.io/nano"><path d="M109.72 155.303v-32.627C46.97 116.983 0 79.54 0 34.802c0-6.01.865-12.035 2.572-17.907l2.864-9.857L8.3 16.895C18.247 51.09 59.7 77.793 109.72 82.53V50.06l52.622 52.622-52.622 52.622zM6.32 28.5c-.233 2.094-.352 4.2-.352 6.3 0 42.245 45.98 77.563 106.956 82.158l2.757.21v23.736l38.218-38.218L115.68 64.47V89l-3.2-.245C62.652 84.995 21.582 61.283 6.32 28.5z" fill="#010002"/><path d="M115.914 128.786v-11.64l-1.173-.144-5.726-.576c-15.393-1.458-30.985-5.237-44.565-10.8-5.362-2.197-14.14-6.68-18.86-9.63C26.3 83.923 13.14 67.86 8.31 50.453 6.625 44.378 5.748 36.44 6.213 31.476l.203-2.162L8.2 32.558c11.88 21.61 34.188 38.52 63.84 48.4 11.414 3.8 25.87 6.713 38.356 7.73l4.62.416.894.113.144-24.25 37.666 37.67-37.804 37.8z" fill="#e53935"/><path d="M109.763 138.766v-16.253l-2.44-.263c-33.568-3.627-63.27-16.336-82.97-35.5C11.013 73.766 3.4 59.852.828 43.802.146 39.526.234 29.44.993 24.97c.565-3.33 4.176-17.014 4.424-16.766.06.06 1.003 3.09 2.097 6.732 3.948 13.154 9.823 22.905 19.683 32.676 16.005 15.86 39.146 27.3 65.98 32.65 5.293 1.053 14.12 2.37 15.882 2.37.653 0 .7-.956.797-16l.102-16 52.097 52.102-52.293 52.288zm25.268-55.257l-19.22-19.223-.206 24.576-2.434-.22c-6.366-.578-15.647-1.82-20.306-2.72-36.13-6.968-65.516-24.446-81.032-48.196-1.622-2.483-3.465-5.6-4.095-6.927s-1.31-2.41-1.51-2.41c-.22 0-.285 3.057-.165 7.707.166 6.425.362 8.39 1.18 11.805 1.357 5.66 2.67 9.14 5.592 14.83 13.434 26.157 45.294 45.954 84.436 52.466 4.92.818 15.73 2.126 17.854 2.16.38.006.488 2.672.488 12.006v11.998l38.634-38.628z" fill="#fff"/></svg>