<?xml version="1.0" encoding="UTF-8" standalone="no"?>
<svg
   xmlns:dc="http://purl.org/dc/elements/1.1/"
   xmlns:cc="http://creativecommons.org/ns#"
   xmlns:rdf="http://www.w3.org/1999/02/22-rdf-syntax-ns#"
   xmlns:svg="http://www.w3.org/2000/svg"
   xmlns="http://www.w3.org/2000/svg"
   xmlns:sodipodi="http://sodipodi.sourceforge.net/DTD/sodipodi-0.dtd"
   xmlns:inkscape="http://www.inkscape.org/namespaces/inkscape"
   inkscape:version="1.0 (4035a4fb49, 2020-05-01)"
   sodipodi:docname="srarrow.svg"
   xml:space="preserve"
   style="enable-background:new 0 0 162.341 162.341;"
   viewBox="0 0 162.341 162.341"
   y="0px"
   x="0px"
   id="Capa_1"
   version="1.1"><metadata
   id="metadata1497"><rdf:RDF><cc:Work
       rdf:about=""><dc:format>image/svg+xml</dc:format><dc:type
         rdf:resource="http://purl.org/dc/dcmitype/StillImage" /><dc:title></dc:title></cc:Work></rdf:RDF></metadata><defs
   id="defs1495" /><sodipodi:namedview
   inkscape:current-layer="Capa_1"
   inkscape:window-maximized="0"
   inkscape:window-y="46"
   inkscape:window-x="0"
   inkscape:cy="72.363242"
   inkscape:cx="58.19475"
   inkscape:zoom="4"
   showgrid="false"
   id="namedview1493"
   inkscape:window-height="1034"
   inkscape:window-width="1920"
   inkscape:pageshadow="2"
   inkscape:pageopacity="0"
   guidetolerance="10"
   gridtolerance="10"
   objecttolerance="10"
   borderopacity="1"
   bordercolor="#666666"
   pagecolor="#ffffff" />
<g
   id="g1460">
	<g
   id="g1458">
		<path
   id="path1456"
   d="M109.719,155.303v-32.627C46.971,116.983,0,79.541,0,34.802c0-6.009,0.865-12.035,2.572-17.907    l2.864-9.857L8.3,16.895c9.947,34.196,51.399,60.898,101.419,65.636V50.059l52.622,52.622L109.719,155.303z M6.319,28.501    c-0.233,2.094-0.352,4.201-0.352,6.301c0,42.245,45.981,77.563,106.956,82.158l2.757,0.209v23.736l38.218-38.218L115.68,64.469    v24.53l-3.21-0.245C62.652,84.995,21.582,61.283,6.319,28.501z"
   style="fill:#010002;" />
	</g>
</g>
<g
   id="g1462">
</g>
<g
   id="g1464">
</g>
<g
   id="g1466">
</g>
<g
   id="g1468">
</g>
<g
   id="g1470">
</g>
<g
   id="g1472">
</g>
<g
   id="g1474">
</g>
<g
   id="g1476">
</g>
<g
   id="g1478">
</g>
<g
   id="g1480">
</g>
<g
   id="g1482">
</g>
<g
   id="g1484">
</g>
<g
   id="g1486">
</g>
<g
   id="g1488">
</g>
<g
   id="g1490">
</g>
<path
   id="path2086"
   d="M 115.91432,128.78574 V 117.1448 l -1.17276,-0.14424 c -0.64502,-0.0793 -3.22164,-0.33831 -5.72582,-0.5755 C 93.622803,114.96707 78.031207,111.18829 64.450891,105.62433 59.089298,103.42765 50.310208,98.944472 45.591368,95.993429 26.28982,83.92273 13.141479,67.861272 8.3106236,50.452845 6.6247906,44.377792 5.747582,36.439991 6.2134519,31.47568 L 6.4163844,29.313231 8.2002924,32.5579 C 20.08176,54.168561 42.387823,71.076406 72.039333,80.947462 c 11.413783,3.799673 25.869811,6.712771 38.356127,7.72931 2.04887,0.166805 4.12751,0.353914 4.61919,0.415797 l 0.89396,0.112516 0.0718,-12.124541 0.0718,-12.124539 18.83314,18.83473 18.83313,18.834725 -18.90212,18.90062 -18.90212,18.90061 z"
   style="fill:#e53935;fill-opacity:1;stroke-width:0.275943" /><path
   id="path2088"
   d="m 109.76345,138.76561 v -16.25323 l -2.43901,-0.2635 C 73.756009,118.6222 44.053728,105.91319 24.355767,86.748237 11.012564,73.766088 3.3900203,59.852122 0.82826346,43.801826 0.14580713,39.526 0.23397671,29.441257 0.99291439,24.969223 1.5582589,21.637934 5.1689179,7.9550618 5.4171381,8.2032822 c 0.059774,0.059773 1.0033294,3.0890348 2.0967913,6.7316918 3.9484556,13.153517 9.8227776,22.905425 19.6834616,32.676335 16.004566,15.858855 39.1461,27.309956 65.980744,32.64918 5.293199,1.053172 14.118995,2.370495 15.881855,2.370495 0.65329,0 0.70089,-0.956048 0.7967,-16.001192 l 0.10189,-16.001196 26.04871,26.051037 26.04871,26.051037 -26.14627,26.14408 -26.14628,26.14409 z m 25.26823,-55.256822 -19.21946,-19.222642 -0.10303,12.287805 -0.10304,12.287805 -2.43354,-0.220885 C 106.80669,88.06305 97.525315,86.820197 92.8671,85.921796 56.736561,78.953511 27.350954,61.475376 11.835549,37.725405 10.213127,35.241908 8.3704769,32.124843 7.7407701,30.798595 7.1110638,29.472347 6.432025,28.387235 6.2317953,28.387235 c -0.2196595,0 -0.2852737,3.056942 -0.1654294,7.707295 0.1655699,6.424672 0.3621695,8.389197 1.1813672,11.804845 1.3573511,5.659481 2.6698516,9.140286 5.5916329,14.829226 13.434065,26.157202 45.294061,45.954099 84.436319,52.466339 4.919025,0.8184 15.730565,2.12638 17.853605,2.15994 0.3795,0.006 0.48781,2.67169 0.48781,12.0062 v 11.99849 l 19.31702,-19.31407 19.31703,-19.31407 z"
   style="fill:#ffffff;fill-opacity:1;stroke-width:0.390243" /></svg>
