<?xml version="1.0" encoding="utf-8"?>
<!-- Generator: Adobe Illustrator 13.0.0, SVG Export Plug-In . SVG Version: 6.00 Build 14948)  -->
<!DOCTYPE svg PUBLIC "-//W3C//DTD SVG 1.1//EN" "http://www.w3.org/Graphics/SVG/1.1/DTD/svg11.dtd">
<svg version="1.1" id="Layer_1" xmlns="http://www.w3.org/2000/svg" xmlns:xlink="http://www.w3.org/1999/xlink" x="0px" y="0px"
	viewBox="0 0 45 45" xml:space="preserve">
<g id="Layer_2">
	<g>
		<g>
			<path d="M22.527,4.833c0,3.024-5.041,5.545-7.562,7.057c-2.521,1.512-3.529,3.276-3.529,5.545s0,14.114,0,16.383
				c0,2.269-5.041,4.285-5.041,4.285h16.131"/>
		</g>
		<path d="M22.447,4.833c0,3.024,4.98,5.545,7.47,7.057c2.49,1.512,3.485,3.276,3.485,5.545s0,14.114,0,16.383
			c0,2.269,4.98,4.285,4.98,4.285H22.447"/>
	</g>
	<g>
		<line fill="none" stroke="#FFFFFF" stroke-width="2" x1="19.056" y1="18.333" x2="25.723" y2="18.333"/>
		<line fill="none" stroke="#FFFFFF" stroke-width="2" x1="22.306" y1="18.333" x2="22.306" y2="30.584"/>
	</g>
</g>
</svg>
